G75*
%MOIN*%
%OFA0B0*%
%FSLAX25Y25*%
%IPPOS*%
%LPD*%
%AMOC8*
5,1,8,0,0,1.08239X$1,22.5*
%
%ADD10C,0.00000*%
%ADD11C,0.00600*%
%ADD12C,0.00500*%
%ADD13C,0.00800*%
%ADD14C,0.00400*%
%ADD15C,0.00300*%
%ADD16R,0.06200X0.02400*%
%ADD17C,0.03000*%
%ADD18R,0.03000X0.02000*%
%ADD19R,0.03000X0.04000*%
%ADD20R,0.03000X0.03000*%
%ADD21C,0.00200*%
%ADD22C,0.00700*%
%ADD23C,0.01969*%
%ADD24R,0.02400X0.06200*%
D10*
X0001800Y0001800D02*
X0001800Y0196800D01*
X0161800Y0196800D01*
X0161800Y0001800D01*
X0001800Y0001800D01*
D11*
X0065800Y0015800D02*
X0067300Y0015800D01*
X0065800Y0015800D02*
X0065800Y0017800D01*
X0067300Y0017800D01*
X0076300Y0017800D02*
X0077800Y0017800D01*
X0077800Y0015800D01*
X0076300Y0015800D01*
X0085800Y0015800D02*
X0087300Y0015800D01*
X0085800Y0015800D02*
X0085800Y0017800D01*
X0087300Y0017800D01*
X0096300Y0017800D02*
X0097800Y0017800D01*
X0097800Y0015800D01*
X0096300Y0015800D01*
X0105800Y0015800D02*
X0107300Y0015800D01*
X0105800Y0015800D02*
X0105800Y0017800D01*
X0107300Y0017800D01*
X0116300Y0017800D02*
X0117800Y0017800D01*
X0117800Y0015800D01*
X0116300Y0015800D01*
X0135800Y0015800D02*
X0137300Y0015800D01*
X0135800Y0015800D02*
X0135800Y0017800D01*
X0137300Y0017800D01*
X0146300Y0017800D02*
X0147800Y0017800D01*
X0147800Y0015800D01*
X0146300Y0015800D01*
X0106800Y0125300D02*
X0106800Y0148300D01*
X0016800Y0148300D01*
X0016800Y0140800D01*
X0016926Y0140798D01*
X0017051Y0140792D01*
X0017176Y0140782D01*
X0017301Y0140768D01*
X0017426Y0140751D01*
X0017550Y0140729D01*
X0017673Y0140704D01*
X0017795Y0140674D01*
X0017916Y0140641D01*
X0018036Y0140604D01*
X0018155Y0140564D01*
X0018272Y0140519D01*
X0018389Y0140471D01*
X0018503Y0140419D01*
X0018616Y0140364D01*
X0018727Y0140305D01*
X0018836Y0140243D01*
X0018943Y0140177D01*
X0019048Y0140108D01*
X0019151Y0140036D01*
X0019252Y0139961D01*
X0019350Y0139882D01*
X0019445Y0139800D01*
X0019538Y0139716D01*
X0019628Y0139628D01*
X0019716Y0139538D01*
X0019800Y0139445D01*
X0019882Y0139350D01*
X0019961Y0139252D01*
X0020036Y0139151D01*
X0020108Y0139048D01*
X0020177Y0138943D01*
X0020243Y0138836D01*
X0020305Y0138727D01*
X0020364Y0138616D01*
X0020419Y0138503D01*
X0020471Y0138389D01*
X0020519Y0138272D01*
X0020564Y0138155D01*
X0020604Y0138036D01*
X0020641Y0137916D01*
X0020674Y0137795D01*
X0020704Y0137673D01*
X0020729Y0137550D01*
X0020751Y0137426D01*
X0020768Y0137301D01*
X0020782Y0137176D01*
X0020792Y0137051D01*
X0020798Y0136926D01*
X0020800Y0136800D01*
X0020798Y0136674D01*
X0020792Y0136549D01*
X0020782Y0136424D01*
X0020768Y0136299D01*
X0020751Y0136174D01*
X0020729Y0136050D01*
X0020704Y0135927D01*
X0020674Y0135805D01*
X0020641Y0135684D01*
X0020604Y0135564D01*
X0020564Y0135445D01*
X0020519Y0135328D01*
X0020471Y0135211D01*
X0020419Y0135097D01*
X0020364Y0134984D01*
X0020305Y0134873D01*
X0020243Y0134764D01*
X0020177Y0134657D01*
X0020108Y0134552D01*
X0020036Y0134449D01*
X0019961Y0134348D01*
X0019882Y0134250D01*
X0019800Y0134155D01*
X0019716Y0134062D01*
X0019628Y0133972D01*
X0019538Y0133884D01*
X0019445Y0133800D01*
X0019350Y0133718D01*
X0019252Y0133639D01*
X0019151Y0133564D01*
X0019048Y0133492D01*
X0018943Y0133423D01*
X0018836Y0133357D01*
X0018727Y0133295D01*
X0018616Y0133236D01*
X0018503Y0133181D01*
X0018389Y0133129D01*
X0018272Y0133081D01*
X0018155Y0133036D01*
X0018036Y0132996D01*
X0017916Y0132959D01*
X0017795Y0132926D01*
X0017673Y0132896D01*
X0017550Y0132871D01*
X0017426Y0132849D01*
X0017301Y0132832D01*
X0017176Y0132818D01*
X0017051Y0132808D01*
X0016926Y0132802D01*
X0016800Y0132800D01*
X0016800Y0125300D01*
X0106800Y0125300D01*
X0149811Y0138481D02*
X0156217Y0138481D01*
X0156217Y0142751D01*
X0156217Y0147061D02*
X0149811Y0147061D01*
X0149811Y0144926D02*
X0149811Y0149196D01*
X0151800Y0189300D02*
X0141800Y0189300D01*
X0141800Y0199300D01*
X0151800Y0199300D01*
X0151800Y0189300D01*
X0141800Y0189300D02*
X0131800Y0189300D01*
X0131800Y0199300D01*
X0141800Y0199300D01*
D12*
X0134050Y0185449D02*
X0134050Y0182446D01*
X0134050Y0183947D02*
X0129546Y0183947D01*
X0131047Y0182446D01*
X0130297Y0180845D02*
X0131798Y0180845D01*
X0132549Y0180094D01*
X0132549Y0177842D01*
X0134050Y0177842D02*
X0129546Y0177842D01*
X0129546Y0180094D01*
X0130297Y0180845D01*
X0129546Y0176241D02*
X0129546Y0174739D01*
X0129546Y0175490D02*
X0133299Y0175490D01*
X0134050Y0174739D01*
X0134050Y0173989D01*
X0133299Y0173238D01*
X0126800Y0159300D02*
X0126800Y0194300D01*
X0121800Y0194300D01*
X0121800Y0195300D01*
X0116800Y0195300D01*
X0116800Y0194300D01*
X0079300Y0194300D01*
X0079300Y0195300D01*
X0074300Y0195300D01*
X0074300Y0194300D01*
X0036800Y0194300D01*
X0036800Y0195300D01*
X0031800Y0195300D01*
X0031800Y0194300D01*
X0026800Y0194300D01*
X0026800Y0159300D01*
X0043800Y0159300D01*
X0043800Y0159800D01*
X0049800Y0159800D01*
X0049800Y0159300D01*
X0068800Y0159300D01*
X0068800Y0163300D01*
X0068800Y0164300D01*
X0031800Y0164300D01*
X0031800Y0189300D01*
X0121800Y0189300D01*
X0121800Y0164300D01*
X0104800Y0164300D01*
X0098800Y0164300D01*
X0084800Y0164300D01*
X0084800Y0163300D01*
X0084800Y0159300D01*
X0068800Y0159300D01*
X0068800Y0164300D02*
X0068800Y0167300D01*
X0084800Y0167300D01*
X0084800Y0164300D01*
X0084800Y0159300D02*
X0095300Y0159300D01*
X0096800Y0161300D01*
X0098800Y0161300D01*
X0104800Y0161300D01*
X0104800Y0163300D01*
X0104800Y0164300D01*
X0104800Y0161300D02*
X0106800Y0161300D01*
X0108300Y0159300D01*
X0126800Y0159300D01*
X0098800Y0161300D02*
X0098800Y0163300D01*
X0098800Y0164300D01*
X0080656Y0163302D02*
X0077654Y0163302D01*
X0079906Y0165554D01*
X0079906Y0161050D01*
X0076053Y0161050D02*
X0073050Y0161050D01*
X0074551Y0161050D02*
X0074551Y0165554D01*
X0073050Y0164053D01*
X0040053Y0169550D02*
X0037050Y0169550D01*
X0038551Y0169550D02*
X0038551Y0174054D01*
X0037050Y0172553D01*
X0037050Y0179550D02*
X0040053Y0182553D01*
X0040053Y0183303D01*
X0039302Y0184054D01*
X0037801Y0184054D01*
X0037050Y0183303D01*
X0037050Y0179550D02*
X0040053Y0179550D01*
X0015550Y0134975D02*
X0011046Y0134975D01*
X0013298Y0132723D01*
X0013298Y0135726D01*
X0011797Y0131122D02*
X0011046Y0130371D01*
X0011046Y0128870D01*
X0011797Y0128119D01*
X0014799Y0128119D01*
X0015550Y0128870D01*
X0015550Y0130371D01*
X0014799Y0131122D01*
X0015550Y0126551D02*
X0015550Y0125050D01*
X0015550Y0125801D02*
X0011046Y0125801D01*
X0011046Y0126551D02*
X0011046Y0125050D01*
X0067551Y0026554D02*
X0066050Y0025053D01*
X0067551Y0026554D02*
X0067551Y0022050D01*
X0066050Y0022050D02*
X0069053Y0022050D01*
X0070654Y0022050D02*
X0073656Y0025053D01*
X0073656Y0025803D01*
X0072906Y0026554D01*
X0071405Y0026554D01*
X0070654Y0025803D01*
X0070654Y0022050D02*
X0073656Y0022050D01*
X0075258Y0023551D02*
X0076759Y0022050D01*
X0078260Y0023551D01*
X0078260Y0026554D01*
X0075258Y0026554D02*
X0075258Y0023551D01*
X0086050Y0022801D02*
X0086801Y0022050D01*
X0088302Y0022050D01*
X0089053Y0022801D01*
X0089053Y0024302D01*
X0087551Y0024302D01*
X0086050Y0025803D02*
X0086050Y0022801D01*
X0086050Y0025803D02*
X0086801Y0026554D01*
X0088302Y0026554D01*
X0089053Y0025803D01*
X0090654Y0026554D02*
X0093656Y0022050D01*
X0093656Y0026554D01*
X0095258Y0026554D02*
X0097510Y0026554D01*
X0098260Y0025803D01*
X0098260Y0022801D01*
X0097510Y0022050D01*
X0095258Y0022050D01*
X0095258Y0026554D01*
X0090654Y0026554D02*
X0090654Y0022050D01*
X0106050Y0022801D02*
X0106801Y0022050D01*
X0108302Y0022050D01*
X0109053Y0022801D01*
X0109053Y0023551D01*
X0108302Y0024302D01*
X0106801Y0024302D01*
X0106050Y0025053D01*
X0106050Y0025803D01*
X0106801Y0026554D01*
X0108302Y0026554D01*
X0109053Y0025803D01*
X0110654Y0026554D02*
X0112906Y0026554D01*
X0113656Y0025803D01*
X0113656Y0024302D01*
X0112906Y0023551D01*
X0110654Y0023551D01*
X0110654Y0022050D02*
X0110654Y0026554D01*
X0115258Y0026554D02*
X0115258Y0022050D01*
X0115258Y0023551D02*
X0118260Y0026554D01*
X0119862Y0026554D02*
X0119862Y0022050D01*
X0122864Y0022050D01*
X0118260Y0022050D02*
X0116008Y0024302D01*
X0136050Y0025053D02*
X0136801Y0024302D01*
X0138302Y0024302D01*
X0139053Y0023551D01*
X0139053Y0022801D01*
X0138302Y0022050D01*
X0136801Y0022050D01*
X0136050Y0022801D01*
X0136050Y0025053D02*
X0136050Y0025803D01*
X0136801Y0026554D01*
X0138302Y0026554D01*
X0139053Y0025803D01*
X0140654Y0026554D02*
X0142906Y0026554D01*
X0143656Y0025803D01*
X0143656Y0024302D01*
X0142906Y0023551D01*
X0140654Y0023551D01*
X0140654Y0022050D02*
X0140654Y0026554D01*
X0145258Y0026554D02*
X0145258Y0022050D01*
X0145258Y0023551D02*
X0148260Y0026554D01*
X0149862Y0026554D02*
X0152114Y0026554D01*
X0152864Y0025803D01*
X0152864Y0024302D01*
X0152114Y0023551D01*
X0149862Y0023551D01*
X0149862Y0022050D02*
X0149862Y0026554D01*
X0151363Y0023551D02*
X0152864Y0022050D01*
X0148260Y0022050D02*
X0146008Y0024302D01*
D13*
X0146131Y0028335D02*
X0150265Y0028335D01*
X0150265Y0041721D01*
X0146721Y0045265D01*
X0145934Y0045265D01*
X0138060Y0043296D02*
X0137903Y0043203D01*
X0137748Y0043106D01*
X0137595Y0043006D01*
X0137445Y0042901D01*
X0137298Y0042793D01*
X0137153Y0042682D01*
X0137011Y0042567D01*
X0136872Y0042448D01*
X0136735Y0042326D01*
X0136602Y0042201D01*
X0136472Y0042073D01*
X0136345Y0041941D01*
X0136221Y0041807D01*
X0136101Y0041669D01*
X0135984Y0041529D01*
X0135870Y0041386D01*
X0135760Y0041240D01*
X0135654Y0041091D01*
X0135551Y0040940D01*
X0135452Y0040787D01*
X0135357Y0040631D01*
X0135265Y0040472D01*
X0135178Y0040312D01*
X0135094Y0040150D01*
X0135014Y0039985D01*
X0134939Y0039819D01*
X0134867Y0039651D01*
X0134800Y0039481D01*
X0134736Y0039309D01*
X0134677Y0039136D01*
X0134623Y0038962D01*
X0134572Y0038786D01*
X0134526Y0038610D01*
X0134484Y0038432D01*
X0134446Y0038253D01*
X0134413Y0038073D01*
X0134384Y0037893D01*
X0134360Y0037712D01*
X0134340Y0037530D01*
X0134324Y0037348D01*
X0134313Y0037165D01*
X0134306Y0036983D01*
X0134304Y0036800D01*
X0134306Y0036617D01*
X0134313Y0036435D01*
X0134324Y0036252D01*
X0134340Y0036070D01*
X0134360Y0035888D01*
X0134384Y0035707D01*
X0134413Y0035527D01*
X0134446Y0035347D01*
X0134484Y0035168D01*
X0134526Y0034990D01*
X0134572Y0034814D01*
X0134623Y0034638D01*
X0134677Y0034464D01*
X0134736Y0034291D01*
X0134800Y0034119D01*
X0134867Y0033949D01*
X0134939Y0033781D01*
X0135014Y0033615D01*
X0135094Y0033450D01*
X0135178Y0033288D01*
X0135265Y0033128D01*
X0135357Y0032969D01*
X0135452Y0032813D01*
X0135551Y0032660D01*
X0135654Y0032509D01*
X0135760Y0032360D01*
X0135870Y0032214D01*
X0135984Y0032071D01*
X0136101Y0031931D01*
X0136221Y0031793D01*
X0136345Y0031659D01*
X0136472Y0031527D01*
X0136602Y0031399D01*
X0136735Y0031274D01*
X0136872Y0031152D01*
X0137011Y0031033D01*
X0137153Y0030918D01*
X0137298Y0030807D01*
X0137445Y0030699D01*
X0137595Y0030594D01*
X0137748Y0030494D01*
X0137903Y0030397D01*
X0138060Y0030304D01*
X0137469Y0028335D02*
X0133335Y0028335D01*
X0133335Y0041721D01*
X0136879Y0045265D01*
X0137469Y0045265D01*
X0145540Y0043296D02*
X0145697Y0043203D01*
X0145852Y0043106D01*
X0146005Y0043006D01*
X0146155Y0042901D01*
X0146302Y0042793D01*
X0146447Y0042682D01*
X0146589Y0042567D01*
X0146728Y0042448D01*
X0146865Y0042326D01*
X0146998Y0042201D01*
X0147128Y0042073D01*
X0147255Y0041941D01*
X0147379Y0041807D01*
X0147499Y0041669D01*
X0147616Y0041529D01*
X0147730Y0041386D01*
X0147840Y0041240D01*
X0147946Y0041091D01*
X0148049Y0040940D01*
X0148148Y0040787D01*
X0148243Y0040631D01*
X0148335Y0040472D01*
X0148422Y0040312D01*
X0148506Y0040150D01*
X0148586Y0039985D01*
X0148661Y0039819D01*
X0148733Y0039651D01*
X0148800Y0039481D01*
X0148864Y0039309D01*
X0148923Y0039136D01*
X0148977Y0038962D01*
X0149028Y0038786D01*
X0149074Y0038610D01*
X0149116Y0038432D01*
X0149154Y0038253D01*
X0149187Y0038073D01*
X0149216Y0037893D01*
X0149240Y0037712D01*
X0149260Y0037530D01*
X0149276Y0037348D01*
X0149287Y0037165D01*
X0149294Y0036983D01*
X0149296Y0036800D01*
X0149294Y0036617D01*
X0149287Y0036435D01*
X0149276Y0036252D01*
X0149260Y0036070D01*
X0149240Y0035888D01*
X0149216Y0035707D01*
X0149187Y0035527D01*
X0149154Y0035347D01*
X0149116Y0035168D01*
X0149074Y0034990D01*
X0149028Y0034814D01*
X0148977Y0034638D01*
X0148923Y0034464D01*
X0148864Y0034291D01*
X0148800Y0034119D01*
X0148733Y0033949D01*
X0148661Y0033781D01*
X0148586Y0033615D01*
X0148506Y0033450D01*
X0148422Y0033288D01*
X0148335Y0033128D01*
X0148243Y0032969D01*
X0148148Y0032813D01*
X0148049Y0032660D01*
X0147946Y0032509D01*
X0147840Y0032360D01*
X0147730Y0032214D01*
X0147616Y0032071D01*
X0147499Y0031931D01*
X0147379Y0031793D01*
X0147255Y0031659D01*
X0147128Y0031527D01*
X0146998Y0031399D01*
X0146865Y0031274D01*
X0146728Y0031152D01*
X0146589Y0031033D01*
X0146447Y0030918D01*
X0146302Y0030807D01*
X0146155Y0030699D01*
X0146005Y0030594D01*
X0145852Y0030494D01*
X0145697Y0030397D01*
X0145540Y0030304D01*
X0120265Y0028335D02*
X0116131Y0028335D01*
X0120265Y0028335D02*
X0120265Y0041721D01*
X0116721Y0045265D01*
X0115934Y0045265D01*
X0108060Y0043296D02*
X0107903Y0043203D01*
X0107748Y0043106D01*
X0107595Y0043006D01*
X0107445Y0042901D01*
X0107298Y0042793D01*
X0107153Y0042682D01*
X0107011Y0042567D01*
X0106872Y0042448D01*
X0106735Y0042326D01*
X0106602Y0042201D01*
X0106472Y0042073D01*
X0106345Y0041941D01*
X0106221Y0041807D01*
X0106101Y0041669D01*
X0105984Y0041529D01*
X0105870Y0041386D01*
X0105760Y0041240D01*
X0105654Y0041091D01*
X0105551Y0040940D01*
X0105452Y0040787D01*
X0105357Y0040631D01*
X0105265Y0040472D01*
X0105178Y0040312D01*
X0105094Y0040150D01*
X0105014Y0039985D01*
X0104939Y0039819D01*
X0104867Y0039651D01*
X0104800Y0039481D01*
X0104736Y0039309D01*
X0104677Y0039136D01*
X0104623Y0038962D01*
X0104572Y0038786D01*
X0104526Y0038610D01*
X0104484Y0038432D01*
X0104446Y0038253D01*
X0104413Y0038073D01*
X0104384Y0037893D01*
X0104360Y0037712D01*
X0104340Y0037530D01*
X0104324Y0037348D01*
X0104313Y0037165D01*
X0104306Y0036983D01*
X0104304Y0036800D01*
X0104306Y0036617D01*
X0104313Y0036435D01*
X0104324Y0036252D01*
X0104340Y0036070D01*
X0104360Y0035888D01*
X0104384Y0035707D01*
X0104413Y0035527D01*
X0104446Y0035347D01*
X0104484Y0035168D01*
X0104526Y0034990D01*
X0104572Y0034814D01*
X0104623Y0034638D01*
X0104677Y0034464D01*
X0104736Y0034291D01*
X0104800Y0034119D01*
X0104867Y0033949D01*
X0104939Y0033781D01*
X0105014Y0033615D01*
X0105094Y0033450D01*
X0105178Y0033288D01*
X0105265Y0033128D01*
X0105357Y0032969D01*
X0105452Y0032813D01*
X0105551Y0032660D01*
X0105654Y0032509D01*
X0105760Y0032360D01*
X0105870Y0032214D01*
X0105984Y0032071D01*
X0106101Y0031931D01*
X0106221Y0031793D01*
X0106345Y0031659D01*
X0106472Y0031527D01*
X0106602Y0031399D01*
X0106735Y0031274D01*
X0106872Y0031152D01*
X0107011Y0031033D01*
X0107153Y0030918D01*
X0107298Y0030807D01*
X0107445Y0030699D01*
X0107595Y0030594D01*
X0107748Y0030494D01*
X0107903Y0030397D01*
X0108060Y0030304D01*
X0107469Y0028335D02*
X0103335Y0028335D01*
X0103335Y0041721D01*
X0106879Y0045265D01*
X0107469Y0045265D01*
X0115540Y0043296D02*
X0115697Y0043203D01*
X0115852Y0043106D01*
X0116005Y0043006D01*
X0116155Y0042901D01*
X0116302Y0042793D01*
X0116447Y0042682D01*
X0116589Y0042567D01*
X0116728Y0042448D01*
X0116865Y0042326D01*
X0116998Y0042201D01*
X0117128Y0042073D01*
X0117255Y0041941D01*
X0117379Y0041807D01*
X0117499Y0041669D01*
X0117616Y0041529D01*
X0117730Y0041386D01*
X0117840Y0041240D01*
X0117946Y0041091D01*
X0118049Y0040940D01*
X0118148Y0040787D01*
X0118243Y0040631D01*
X0118335Y0040472D01*
X0118422Y0040312D01*
X0118506Y0040150D01*
X0118586Y0039985D01*
X0118661Y0039819D01*
X0118733Y0039651D01*
X0118800Y0039481D01*
X0118864Y0039309D01*
X0118923Y0039136D01*
X0118977Y0038962D01*
X0119028Y0038786D01*
X0119074Y0038610D01*
X0119116Y0038432D01*
X0119154Y0038253D01*
X0119187Y0038073D01*
X0119216Y0037893D01*
X0119240Y0037712D01*
X0119260Y0037530D01*
X0119276Y0037348D01*
X0119287Y0037165D01*
X0119294Y0036983D01*
X0119296Y0036800D01*
X0119294Y0036617D01*
X0119287Y0036435D01*
X0119276Y0036252D01*
X0119260Y0036070D01*
X0119240Y0035888D01*
X0119216Y0035707D01*
X0119187Y0035527D01*
X0119154Y0035347D01*
X0119116Y0035168D01*
X0119074Y0034990D01*
X0119028Y0034814D01*
X0118977Y0034638D01*
X0118923Y0034464D01*
X0118864Y0034291D01*
X0118800Y0034119D01*
X0118733Y0033949D01*
X0118661Y0033781D01*
X0118586Y0033615D01*
X0118506Y0033450D01*
X0118422Y0033288D01*
X0118335Y0033128D01*
X0118243Y0032969D01*
X0118148Y0032813D01*
X0118049Y0032660D01*
X0117946Y0032509D01*
X0117840Y0032360D01*
X0117730Y0032214D01*
X0117616Y0032071D01*
X0117499Y0031931D01*
X0117379Y0031793D01*
X0117255Y0031659D01*
X0117128Y0031527D01*
X0116998Y0031399D01*
X0116865Y0031274D01*
X0116728Y0031152D01*
X0116589Y0031033D01*
X0116447Y0030918D01*
X0116302Y0030807D01*
X0116155Y0030699D01*
X0116005Y0030594D01*
X0115852Y0030494D01*
X0115697Y0030397D01*
X0115540Y0030304D01*
X0090265Y0028335D02*
X0086131Y0028335D01*
X0090265Y0028335D02*
X0090265Y0041721D01*
X0086721Y0045265D01*
X0085934Y0045265D01*
X0078060Y0043296D02*
X0077903Y0043203D01*
X0077748Y0043106D01*
X0077595Y0043006D01*
X0077445Y0042901D01*
X0077298Y0042793D01*
X0077153Y0042682D01*
X0077011Y0042567D01*
X0076872Y0042448D01*
X0076735Y0042326D01*
X0076602Y0042201D01*
X0076472Y0042073D01*
X0076345Y0041941D01*
X0076221Y0041807D01*
X0076101Y0041669D01*
X0075984Y0041529D01*
X0075870Y0041386D01*
X0075760Y0041240D01*
X0075654Y0041091D01*
X0075551Y0040940D01*
X0075452Y0040787D01*
X0075357Y0040631D01*
X0075265Y0040472D01*
X0075178Y0040312D01*
X0075094Y0040150D01*
X0075014Y0039985D01*
X0074939Y0039819D01*
X0074867Y0039651D01*
X0074800Y0039481D01*
X0074736Y0039309D01*
X0074677Y0039136D01*
X0074623Y0038962D01*
X0074572Y0038786D01*
X0074526Y0038610D01*
X0074484Y0038432D01*
X0074446Y0038253D01*
X0074413Y0038073D01*
X0074384Y0037893D01*
X0074360Y0037712D01*
X0074340Y0037530D01*
X0074324Y0037348D01*
X0074313Y0037165D01*
X0074306Y0036983D01*
X0074304Y0036800D01*
X0074306Y0036617D01*
X0074313Y0036435D01*
X0074324Y0036252D01*
X0074340Y0036070D01*
X0074360Y0035888D01*
X0074384Y0035707D01*
X0074413Y0035527D01*
X0074446Y0035347D01*
X0074484Y0035168D01*
X0074526Y0034990D01*
X0074572Y0034814D01*
X0074623Y0034638D01*
X0074677Y0034464D01*
X0074736Y0034291D01*
X0074800Y0034119D01*
X0074867Y0033949D01*
X0074939Y0033781D01*
X0075014Y0033615D01*
X0075094Y0033450D01*
X0075178Y0033288D01*
X0075265Y0033128D01*
X0075357Y0032969D01*
X0075452Y0032813D01*
X0075551Y0032660D01*
X0075654Y0032509D01*
X0075760Y0032360D01*
X0075870Y0032214D01*
X0075984Y0032071D01*
X0076101Y0031931D01*
X0076221Y0031793D01*
X0076345Y0031659D01*
X0076472Y0031527D01*
X0076602Y0031399D01*
X0076735Y0031274D01*
X0076872Y0031152D01*
X0077011Y0031033D01*
X0077153Y0030918D01*
X0077298Y0030807D01*
X0077445Y0030699D01*
X0077595Y0030594D01*
X0077748Y0030494D01*
X0077903Y0030397D01*
X0078060Y0030304D01*
X0077469Y0028335D02*
X0073335Y0028335D01*
X0073335Y0041721D01*
X0076879Y0045265D01*
X0077469Y0045265D01*
X0085540Y0043296D02*
X0085697Y0043203D01*
X0085852Y0043106D01*
X0086005Y0043006D01*
X0086155Y0042901D01*
X0086302Y0042793D01*
X0086447Y0042682D01*
X0086589Y0042567D01*
X0086728Y0042448D01*
X0086865Y0042326D01*
X0086998Y0042201D01*
X0087128Y0042073D01*
X0087255Y0041941D01*
X0087379Y0041807D01*
X0087499Y0041669D01*
X0087616Y0041529D01*
X0087730Y0041386D01*
X0087840Y0041240D01*
X0087946Y0041091D01*
X0088049Y0040940D01*
X0088148Y0040787D01*
X0088243Y0040631D01*
X0088335Y0040472D01*
X0088422Y0040312D01*
X0088506Y0040150D01*
X0088586Y0039985D01*
X0088661Y0039819D01*
X0088733Y0039651D01*
X0088800Y0039481D01*
X0088864Y0039309D01*
X0088923Y0039136D01*
X0088977Y0038962D01*
X0089028Y0038786D01*
X0089074Y0038610D01*
X0089116Y0038432D01*
X0089154Y0038253D01*
X0089187Y0038073D01*
X0089216Y0037893D01*
X0089240Y0037712D01*
X0089260Y0037530D01*
X0089276Y0037348D01*
X0089287Y0037165D01*
X0089294Y0036983D01*
X0089296Y0036800D01*
X0089294Y0036617D01*
X0089287Y0036435D01*
X0089276Y0036252D01*
X0089260Y0036070D01*
X0089240Y0035888D01*
X0089216Y0035707D01*
X0089187Y0035527D01*
X0089154Y0035347D01*
X0089116Y0035168D01*
X0089074Y0034990D01*
X0089028Y0034814D01*
X0088977Y0034638D01*
X0088923Y0034464D01*
X0088864Y0034291D01*
X0088800Y0034119D01*
X0088733Y0033949D01*
X0088661Y0033781D01*
X0088586Y0033615D01*
X0088506Y0033450D01*
X0088422Y0033288D01*
X0088335Y0033128D01*
X0088243Y0032969D01*
X0088148Y0032813D01*
X0088049Y0032660D01*
X0087946Y0032509D01*
X0087840Y0032360D01*
X0087730Y0032214D01*
X0087616Y0032071D01*
X0087499Y0031931D01*
X0087379Y0031793D01*
X0087255Y0031659D01*
X0087128Y0031527D01*
X0086998Y0031399D01*
X0086865Y0031274D01*
X0086728Y0031152D01*
X0086589Y0031033D01*
X0086447Y0030918D01*
X0086302Y0030807D01*
X0086155Y0030699D01*
X0086005Y0030594D01*
X0085852Y0030494D01*
X0085697Y0030397D01*
X0085540Y0030304D01*
X0080265Y0063335D02*
X0066879Y0063335D01*
X0063335Y0066879D01*
X0063335Y0067469D01*
X0063335Y0075934D02*
X0063335Y0076721D01*
X0066879Y0080265D01*
X0080265Y0080265D01*
X0080265Y0076131D01*
X0080265Y0067469D02*
X0080265Y0063335D01*
X0078296Y0075540D02*
X0078203Y0075697D01*
X0078106Y0075852D01*
X0078006Y0076005D01*
X0077901Y0076155D01*
X0077793Y0076302D01*
X0077682Y0076447D01*
X0077567Y0076589D01*
X0077448Y0076728D01*
X0077326Y0076865D01*
X0077201Y0076998D01*
X0077073Y0077128D01*
X0076941Y0077255D01*
X0076807Y0077379D01*
X0076669Y0077499D01*
X0076529Y0077616D01*
X0076386Y0077730D01*
X0076240Y0077840D01*
X0076091Y0077946D01*
X0075940Y0078049D01*
X0075787Y0078148D01*
X0075631Y0078243D01*
X0075472Y0078335D01*
X0075312Y0078422D01*
X0075150Y0078506D01*
X0074985Y0078586D01*
X0074819Y0078661D01*
X0074651Y0078733D01*
X0074481Y0078800D01*
X0074309Y0078864D01*
X0074136Y0078923D01*
X0073962Y0078977D01*
X0073786Y0079028D01*
X0073610Y0079074D01*
X0073432Y0079116D01*
X0073253Y0079154D01*
X0073073Y0079187D01*
X0072893Y0079216D01*
X0072712Y0079240D01*
X0072530Y0079260D01*
X0072348Y0079276D01*
X0072165Y0079287D01*
X0071983Y0079294D01*
X0071800Y0079296D01*
X0071617Y0079294D01*
X0071435Y0079287D01*
X0071252Y0079276D01*
X0071070Y0079260D01*
X0070888Y0079240D01*
X0070707Y0079216D01*
X0070527Y0079187D01*
X0070347Y0079154D01*
X0070168Y0079116D01*
X0069990Y0079074D01*
X0069814Y0079028D01*
X0069638Y0078977D01*
X0069464Y0078923D01*
X0069291Y0078864D01*
X0069119Y0078800D01*
X0068949Y0078733D01*
X0068781Y0078661D01*
X0068615Y0078586D01*
X0068450Y0078506D01*
X0068288Y0078422D01*
X0068128Y0078335D01*
X0067969Y0078243D01*
X0067813Y0078148D01*
X0067660Y0078049D01*
X0067509Y0077946D01*
X0067360Y0077840D01*
X0067214Y0077730D01*
X0067071Y0077616D01*
X0066931Y0077499D01*
X0066793Y0077379D01*
X0066659Y0077255D01*
X0066527Y0077128D01*
X0066399Y0076998D01*
X0066274Y0076865D01*
X0066152Y0076728D01*
X0066033Y0076589D01*
X0065918Y0076447D01*
X0065807Y0076302D01*
X0065699Y0076155D01*
X0065594Y0076005D01*
X0065494Y0075852D01*
X0065397Y0075697D01*
X0065304Y0075540D01*
X0065304Y0068060D02*
X0065397Y0067903D01*
X0065494Y0067748D01*
X0065594Y0067595D01*
X0065699Y0067445D01*
X0065807Y0067298D01*
X0065918Y0067153D01*
X0066033Y0067011D01*
X0066152Y0066872D01*
X0066274Y0066735D01*
X0066399Y0066602D01*
X0066527Y0066472D01*
X0066659Y0066345D01*
X0066793Y0066221D01*
X0066931Y0066101D01*
X0067071Y0065984D01*
X0067214Y0065870D01*
X0067360Y0065760D01*
X0067509Y0065654D01*
X0067660Y0065551D01*
X0067813Y0065452D01*
X0067969Y0065357D01*
X0068128Y0065265D01*
X0068288Y0065178D01*
X0068450Y0065094D01*
X0068615Y0065014D01*
X0068781Y0064939D01*
X0068949Y0064867D01*
X0069119Y0064800D01*
X0069291Y0064736D01*
X0069464Y0064677D01*
X0069638Y0064623D01*
X0069814Y0064572D01*
X0069990Y0064526D01*
X0070168Y0064484D01*
X0070347Y0064446D01*
X0070527Y0064413D01*
X0070707Y0064384D01*
X0070888Y0064360D01*
X0071070Y0064340D01*
X0071252Y0064324D01*
X0071435Y0064313D01*
X0071617Y0064306D01*
X0071800Y0064304D01*
X0071983Y0064306D01*
X0072165Y0064313D01*
X0072348Y0064324D01*
X0072530Y0064340D01*
X0072712Y0064360D01*
X0072893Y0064384D01*
X0073073Y0064413D01*
X0073253Y0064446D01*
X0073432Y0064484D01*
X0073610Y0064526D01*
X0073786Y0064572D01*
X0073962Y0064623D01*
X0074136Y0064677D01*
X0074309Y0064736D01*
X0074481Y0064800D01*
X0074651Y0064867D01*
X0074819Y0064939D01*
X0074985Y0065014D01*
X0075150Y0065094D01*
X0075312Y0065178D01*
X0075472Y0065265D01*
X0075631Y0065357D01*
X0075787Y0065452D01*
X0075940Y0065551D01*
X0076091Y0065654D01*
X0076240Y0065760D01*
X0076386Y0065870D01*
X0076529Y0065984D01*
X0076669Y0066101D01*
X0076807Y0066221D01*
X0076941Y0066345D01*
X0077073Y0066472D01*
X0077201Y0066602D01*
X0077326Y0066735D01*
X0077448Y0066872D01*
X0077567Y0067011D01*
X0077682Y0067153D01*
X0077793Y0067298D01*
X0077901Y0067445D01*
X0078006Y0067595D01*
X0078106Y0067748D01*
X0078203Y0067903D01*
X0078296Y0068060D01*
X0080265Y0093335D02*
X0066879Y0093335D01*
X0063335Y0096879D01*
X0063335Y0097469D01*
X0063335Y0105934D02*
X0063335Y0106721D01*
X0066879Y0110265D01*
X0080265Y0110265D01*
X0080265Y0106131D01*
X0080265Y0097469D02*
X0080265Y0093335D01*
X0078296Y0105540D02*
X0078203Y0105697D01*
X0078106Y0105852D01*
X0078006Y0106005D01*
X0077901Y0106155D01*
X0077793Y0106302D01*
X0077682Y0106447D01*
X0077567Y0106589D01*
X0077448Y0106728D01*
X0077326Y0106865D01*
X0077201Y0106998D01*
X0077073Y0107128D01*
X0076941Y0107255D01*
X0076807Y0107379D01*
X0076669Y0107499D01*
X0076529Y0107616D01*
X0076386Y0107730D01*
X0076240Y0107840D01*
X0076091Y0107946D01*
X0075940Y0108049D01*
X0075787Y0108148D01*
X0075631Y0108243D01*
X0075472Y0108335D01*
X0075312Y0108422D01*
X0075150Y0108506D01*
X0074985Y0108586D01*
X0074819Y0108661D01*
X0074651Y0108733D01*
X0074481Y0108800D01*
X0074309Y0108864D01*
X0074136Y0108923D01*
X0073962Y0108977D01*
X0073786Y0109028D01*
X0073610Y0109074D01*
X0073432Y0109116D01*
X0073253Y0109154D01*
X0073073Y0109187D01*
X0072893Y0109216D01*
X0072712Y0109240D01*
X0072530Y0109260D01*
X0072348Y0109276D01*
X0072165Y0109287D01*
X0071983Y0109294D01*
X0071800Y0109296D01*
X0071617Y0109294D01*
X0071435Y0109287D01*
X0071252Y0109276D01*
X0071070Y0109260D01*
X0070888Y0109240D01*
X0070707Y0109216D01*
X0070527Y0109187D01*
X0070347Y0109154D01*
X0070168Y0109116D01*
X0069990Y0109074D01*
X0069814Y0109028D01*
X0069638Y0108977D01*
X0069464Y0108923D01*
X0069291Y0108864D01*
X0069119Y0108800D01*
X0068949Y0108733D01*
X0068781Y0108661D01*
X0068615Y0108586D01*
X0068450Y0108506D01*
X0068288Y0108422D01*
X0068128Y0108335D01*
X0067969Y0108243D01*
X0067813Y0108148D01*
X0067660Y0108049D01*
X0067509Y0107946D01*
X0067360Y0107840D01*
X0067214Y0107730D01*
X0067071Y0107616D01*
X0066931Y0107499D01*
X0066793Y0107379D01*
X0066659Y0107255D01*
X0066527Y0107128D01*
X0066399Y0106998D01*
X0066274Y0106865D01*
X0066152Y0106728D01*
X0066033Y0106589D01*
X0065918Y0106447D01*
X0065807Y0106302D01*
X0065699Y0106155D01*
X0065594Y0106005D01*
X0065494Y0105852D01*
X0065397Y0105697D01*
X0065304Y0105540D01*
X0065304Y0098060D02*
X0065397Y0097903D01*
X0065494Y0097748D01*
X0065594Y0097595D01*
X0065699Y0097445D01*
X0065807Y0097298D01*
X0065918Y0097153D01*
X0066033Y0097011D01*
X0066152Y0096872D01*
X0066274Y0096735D01*
X0066399Y0096602D01*
X0066527Y0096472D01*
X0066659Y0096345D01*
X0066793Y0096221D01*
X0066931Y0096101D01*
X0067071Y0095984D01*
X0067214Y0095870D01*
X0067360Y0095760D01*
X0067509Y0095654D01*
X0067660Y0095551D01*
X0067813Y0095452D01*
X0067969Y0095357D01*
X0068128Y0095265D01*
X0068288Y0095178D01*
X0068450Y0095094D01*
X0068615Y0095014D01*
X0068781Y0094939D01*
X0068949Y0094867D01*
X0069119Y0094800D01*
X0069291Y0094736D01*
X0069464Y0094677D01*
X0069638Y0094623D01*
X0069814Y0094572D01*
X0069990Y0094526D01*
X0070168Y0094484D01*
X0070347Y0094446D01*
X0070527Y0094413D01*
X0070707Y0094384D01*
X0070888Y0094360D01*
X0071070Y0094340D01*
X0071252Y0094324D01*
X0071435Y0094313D01*
X0071617Y0094306D01*
X0071800Y0094304D01*
X0071983Y0094306D01*
X0072165Y0094313D01*
X0072348Y0094324D01*
X0072530Y0094340D01*
X0072712Y0094360D01*
X0072893Y0094384D01*
X0073073Y0094413D01*
X0073253Y0094446D01*
X0073432Y0094484D01*
X0073610Y0094526D01*
X0073786Y0094572D01*
X0073962Y0094623D01*
X0074136Y0094677D01*
X0074309Y0094736D01*
X0074481Y0094800D01*
X0074651Y0094867D01*
X0074819Y0094939D01*
X0074985Y0095014D01*
X0075150Y0095094D01*
X0075312Y0095178D01*
X0075472Y0095265D01*
X0075631Y0095357D01*
X0075787Y0095452D01*
X0075940Y0095551D01*
X0076091Y0095654D01*
X0076240Y0095760D01*
X0076386Y0095870D01*
X0076529Y0095984D01*
X0076669Y0096101D01*
X0076807Y0096221D01*
X0076941Y0096345D01*
X0077073Y0096472D01*
X0077201Y0096602D01*
X0077326Y0096735D01*
X0077448Y0096872D01*
X0077567Y0097011D01*
X0077682Y0097153D01*
X0077793Y0097298D01*
X0077901Y0097445D01*
X0078006Y0097595D01*
X0078106Y0097748D01*
X0078203Y0097903D01*
X0078296Y0098060D01*
X0049269Y0064162D02*
X0049269Y0059438D01*
X0045331Y0061800D01*
X0049269Y0064162D01*
X0023269Y0061800D02*
X0019331Y0064162D01*
X0019331Y0059438D01*
X0023269Y0061800D01*
X0117430Y0122430D02*
X0117430Y0131485D01*
X0117430Y0122430D02*
X0146170Y0122430D01*
X0146170Y0131485D01*
X0146170Y0142115D02*
X0146170Y0151170D01*
X0117430Y0151170D01*
X0117430Y0142115D01*
X0146800Y0108269D02*
X0144438Y0104331D01*
X0149162Y0104331D01*
X0146800Y0108269D01*
D14*
X0151496Y0108396D02*
X0151496Y0111465D01*
X0151496Y0109931D02*
X0156100Y0109931D01*
X0155333Y0106861D02*
X0152263Y0106861D01*
X0151496Y0106094D01*
X0151496Y0103792D01*
X0156100Y0103792D01*
X0156100Y0106094D01*
X0155333Y0106861D01*
X0136229Y0125973D02*
X0129339Y0148119D01*
X0127371Y0147627D02*
X0134261Y0125481D01*
X0121269Y0141820D02*
X0121395Y0142078D01*
X0121528Y0142332D01*
X0121667Y0142584D01*
X0121811Y0142832D01*
X0121962Y0143076D01*
X0122119Y0143317D01*
X0122282Y0143554D01*
X0122450Y0143786D01*
X0122624Y0144015D01*
X0122804Y0144239D01*
X0122989Y0144459D01*
X0123179Y0144674D01*
X0123374Y0144884D01*
X0123575Y0145090D01*
X0123781Y0145290D01*
X0123991Y0145486D01*
X0124206Y0145676D01*
X0124426Y0145861D01*
X0124650Y0146040D01*
X0124879Y0146214D01*
X0125112Y0146382D01*
X0125349Y0146545D01*
X0125589Y0146701D01*
X0125834Y0146852D01*
X0126082Y0146997D01*
X0126333Y0147135D01*
X0126588Y0147267D01*
X0126846Y0147394D01*
X0127108Y0147513D01*
X0127371Y0147626D01*
X0142331Y0131780D02*
X0142205Y0131522D01*
X0142072Y0131268D01*
X0141933Y0131016D01*
X0141789Y0130768D01*
X0141638Y0130524D01*
X0141481Y0130283D01*
X0141318Y0130046D01*
X0141150Y0129814D01*
X0140976Y0129585D01*
X0140796Y0129361D01*
X0140611Y0129141D01*
X0140421Y0128926D01*
X0140226Y0128716D01*
X0140025Y0128510D01*
X0139819Y0128310D01*
X0139609Y0128114D01*
X0139394Y0127924D01*
X0139174Y0127739D01*
X0138950Y0127560D01*
X0138721Y0127386D01*
X0138488Y0127218D01*
X0138251Y0127055D01*
X0138011Y0126899D01*
X0137766Y0126748D01*
X0137518Y0126603D01*
X0137267Y0126465D01*
X0137012Y0126333D01*
X0136754Y0126206D01*
X0136492Y0126087D01*
X0136229Y0125974D01*
X0134260Y0125481D02*
X0133982Y0125424D01*
X0133703Y0125374D01*
X0133423Y0125331D01*
X0133141Y0125295D01*
X0132859Y0125265D01*
X0132576Y0125243D01*
X0132293Y0125227D01*
X0132009Y0125219D01*
X0131726Y0125217D01*
X0131442Y0125223D01*
X0131158Y0125235D01*
X0130875Y0125254D01*
X0130593Y0125280D01*
X0130311Y0125313D01*
X0130030Y0125353D01*
X0129750Y0125400D01*
X0129472Y0125454D01*
X0129195Y0125515D01*
X0128919Y0125582D01*
X0128645Y0125656D01*
X0128373Y0125736D01*
X0128103Y0125824D01*
X0127835Y0125918D01*
X0127570Y0126018D01*
X0127307Y0126125D01*
X0127047Y0126238D01*
X0126790Y0126358D01*
X0126536Y0126484D01*
X0126284Y0126616D01*
X0126037Y0126754D01*
X0125792Y0126899D01*
X0125552Y0127049D01*
X0125315Y0127205D01*
X0125082Y0127367D01*
X0124853Y0127534D01*
X0124628Y0127707D01*
X0124407Y0127886D01*
X0124191Y0128069D01*
X0123980Y0128258D01*
X0123773Y0128453D01*
X0123571Y0128652D01*
X0123374Y0128856D01*
X0123181Y0129065D01*
X0122995Y0129278D01*
X0122813Y0129496D01*
X0122637Y0129719D01*
X0122466Y0129945D01*
X0122301Y0130176D01*
X0122142Y0130411D01*
X0121988Y0130649D01*
X0121840Y0130891D01*
X0121699Y0131137D01*
X0121563Y0131386D01*
X0129340Y0148119D02*
X0129618Y0148176D01*
X0129897Y0148226D01*
X0130177Y0148269D01*
X0130459Y0148305D01*
X0130741Y0148335D01*
X0131024Y0148357D01*
X0131307Y0148373D01*
X0131591Y0148381D01*
X0131874Y0148383D01*
X0132158Y0148377D01*
X0132442Y0148365D01*
X0132725Y0148346D01*
X0133007Y0148320D01*
X0133289Y0148287D01*
X0133570Y0148247D01*
X0133850Y0148200D01*
X0134128Y0148146D01*
X0134405Y0148085D01*
X0134681Y0148018D01*
X0134955Y0147944D01*
X0135227Y0147864D01*
X0135497Y0147776D01*
X0135765Y0147682D01*
X0136030Y0147582D01*
X0136293Y0147475D01*
X0136553Y0147362D01*
X0136810Y0147242D01*
X0137064Y0147116D01*
X0137316Y0146984D01*
X0137563Y0146846D01*
X0137808Y0146701D01*
X0138048Y0146551D01*
X0138285Y0146395D01*
X0138518Y0146233D01*
X0138747Y0146066D01*
X0138972Y0145893D01*
X0139193Y0145714D01*
X0139409Y0145531D01*
X0139620Y0145342D01*
X0139827Y0145147D01*
X0140029Y0144948D01*
X0140226Y0144744D01*
X0140419Y0144535D01*
X0140605Y0144322D01*
X0140787Y0144104D01*
X0140963Y0143881D01*
X0141134Y0143655D01*
X0141299Y0143424D01*
X0141458Y0143189D01*
X0141612Y0142951D01*
X0141760Y0142709D01*
X0141901Y0142463D01*
X0142037Y0142214D01*
X0109100Y0110639D02*
X0104496Y0110639D01*
X0104496Y0112173D02*
X0104496Y0109104D01*
X0105263Y0107569D02*
X0106798Y0107569D01*
X0107565Y0106802D01*
X0107565Y0104500D01*
X0107565Y0106035D02*
X0109100Y0107569D01*
X0109100Y0104500D02*
X0104496Y0104500D01*
X0104496Y0106802D01*
X0105263Y0107569D01*
X0119500Y0097104D02*
X0121035Y0097104D01*
X0120267Y0097104D02*
X0120267Y0092500D01*
X0119500Y0092500D02*
X0121035Y0092500D01*
X0122569Y0093267D02*
X0123337Y0092500D01*
X0124871Y0092500D01*
X0125639Y0093267D01*
X0127173Y0092500D02*
X0130242Y0095569D01*
X0130242Y0096337D01*
X0129475Y0097104D01*
X0127941Y0097104D01*
X0127173Y0096337D01*
X0125639Y0096337D02*
X0124871Y0097104D01*
X0123337Y0097104D01*
X0122569Y0096337D01*
X0122569Y0093267D01*
X0127173Y0092500D02*
X0130242Y0092500D01*
X0111381Y0079104D02*
X0109846Y0078337D01*
X0108312Y0076802D01*
X0110614Y0076802D01*
X0111381Y0076035D01*
X0111381Y0075267D01*
X0110614Y0074500D01*
X0109079Y0074500D01*
X0108312Y0075267D01*
X0108312Y0076802D01*
X0106777Y0074500D02*
X0106777Y0079104D01*
X0103708Y0079104D02*
X0103708Y0074500D01*
X0102173Y0074500D02*
X0102173Y0077569D01*
X0100639Y0079104D01*
X0099104Y0077569D01*
X0099104Y0074500D01*
X0097569Y0074500D02*
X0096035Y0076035D01*
X0096802Y0076035D02*
X0094500Y0076035D01*
X0094500Y0074500D02*
X0094500Y0079104D01*
X0096802Y0079104D01*
X0097569Y0078337D01*
X0097569Y0076802D01*
X0096802Y0076035D01*
X0099104Y0076802D02*
X0102173Y0076802D01*
X0103708Y0079104D02*
X0106777Y0074500D01*
X0109500Y0064104D02*
X0111802Y0064104D01*
X0112569Y0063337D01*
X0112569Y0061802D01*
X0111802Y0061035D01*
X0109500Y0061035D01*
X0111035Y0061035D02*
X0112569Y0059500D01*
X0114104Y0059500D02*
X0114104Y0062569D01*
X0115639Y0064104D01*
X0117173Y0062569D01*
X0117173Y0059500D01*
X0118708Y0059500D02*
X0118708Y0064104D01*
X0121777Y0059500D01*
X0121777Y0064104D01*
X0123312Y0063337D02*
X0124079Y0064104D01*
X0125614Y0064104D01*
X0126381Y0063337D01*
X0126381Y0062569D01*
X0123312Y0059500D01*
X0126381Y0059500D01*
X0126084Y0054104D02*
X0128386Y0054104D01*
X0129154Y0053337D01*
X0129154Y0051802D01*
X0128386Y0051035D01*
X0126084Y0051035D01*
X0127619Y0051035D02*
X0129154Y0049500D01*
X0130688Y0049500D02*
X0130688Y0052569D01*
X0132223Y0054104D01*
X0133757Y0052569D01*
X0133757Y0049500D01*
X0135292Y0049500D02*
X0135292Y0054104D01*
X0138361Y0049500D01*
X0138361Y0054104D01*
X0139896Y0051802D02*
X0142965Y0051802D01*
X0142198Y0049500D02*
X0142198Y0054104D01*
X0139896Y0051802D01*
X0133757Y0051802D02*
X0130688Y0051802D01*
X0126084Y0049500D02*
X0126084Y0054104D01*
X0117173Y0061802D02*
X0114104Y0061802D01*
X0109500Y0059500D02*
X0109500Y0064104D01*
X0101431Y0054104D02*
X0101431Y0049500D01*
X0102965Y0049500D02*
X0099896Y0049500D01*
X0098361Y0049500D02*
X0098361Y0054104D01*
X0099896Y0052569D02*
X0101431Y0054104D01*
X0098361Y0049500D02*
X0095292Y0054104D01*
X0095292Y0049500D01*
X0093757Y0049500D02*
X0093757Y0052569D01*
X0092223Y0054104D01*
X0090688Y0052569D01*
X0090688Y0049500D01*
X0089154Y0049500D02*
X0087619Y0051035D01*
X0088386Y0051035D02*
X0086084Y0051035D01*
X0086084Y0049500D02*
X0086084Y0054104D01*
X0088386Y0054104D01*
X0089154Y0053337D01*
X0089154Y0051802D01*
X0088386Y0051035D01*
X0090688Y0051802D02*
X0093757Y0051802D01*
X0097232Y0038924D02*
X0101836Y0038924D01*
X0101836Y0040458D02*
X0101836Y0037389D01*
X0101836Y0035854D02*
X0099534Y0033552D01*
X0100302Y0032785D02*
X0097232Y0035854D01*
X0098767Y0037389D02*
X0097232Y0038924D01*
X0097232Y0032785D02*
X0101836Y0032785D01*
X0101069Y0031250D02*
X0101836Y0030483D01*
X0101836Y0028948D01*
X0101069Y0028181D01*
X0098000Y0028181D01*
X0097232Y0028948D01*
X0097232Y0030483D01*
X0098000Y0031250D01*
X0079284Y0057236D02*
X0076215Y0057236D01*
X0077750Y0057236D02*
X0077750Y0061840D01*
X0076215Y0060305D01*
X0074680Y0061073D02*
X0073913Y0061840D01*
X0072378Y0061840D01*
X0071611Y0061073D01*
X0071611Y0058004D01*
X0072378Y0057236D01*
X0073913Y0057236D01*
X0074680Y0058004D01*
X0071069Y0040458D02*
X0071836Y0039691D01*
X0071836Y0038156D01*
X0071069Y0037389D01*
X0071836Y0035854D02*
X0069534Y0033552D01*
X0070302Y0032785D02*
X0067232Y0035854D01*
X0068000Y0037389D02*
X0067232Y0038156D01*
X0067232Y0039691D01*
X0068000Y0040458D01*
X0068767Y0040458D01*
X0069534Y0039691D01*
X0070302Y0040458D01*
X0071069Y0040458D01*
X0069534Y0039691D02*
X0069534Y0038924D01*
X0067232Y0032785D02*
X0071836Y0032785D01*
X0071069Y0031250D02*
X0071836Y0030483D01*
X0071836Y0028948D01*
X0071069Y0028181D01*
X0068000Y0028181D01*
X0067232Y0028948D01*
X0067232Y0030483D01*
X0068000Y0031250D01*
X0051946Y0031069D02*
X0051946Y0020489D01*
X0048449Y0019646D02*
X0047631Y0019646D01*
X0046610Y0010244D01*
X0044566Y0010244D01*
X0043544Y0019646D01*
X0042726Y0019646D01*
X0043748Y0008814D01*
X0043755Y0008748D01*
X0043766Y0008683D01*
X0043780Y0008618D01*
X0043798Y0008555D01*
X0043820Y0008492D01*
X0043845Y0008431D01*
X0043873Y0008371D01*
X0043905Y0008313D01*
X0043941Y0008257D01*
X0043979Y0008203D01*
X0044020Y0008152D01*
X0044064Y0008103D01*
X0044111Y0008056D01*
X0044161Y0008012D01*
X0044213Y0007971D01*
X0044267Y0007933D01*
X0044323Y0007898D01*
X0044381Y0007867D01*
X0044441Y0007839D01*
X0044503Y0007814D01*
X0044565Y0007793D01*
X0041704Y0008814D02*
X0040887Y0024756D01*
X0040882Y0024813D01*
X0040873Y0024870D01*
X0040860Y0024926D01*
X0040844Y0024981D01*
X0040824Y0025035D01*
X0040800Y0025087D01*
X0040774Y0025138D01*
X0040743Y0025187D01*
X0040710Y0025234D01*
X0040674Y0025279D01*
X0040634Y0025321D01*
X0040592Y0025360D01*
X0040548Y0025396D01*
X0040501Y0025430D01*
X0040452Y0025460D01*
X0040401Y0025487D01*
X0040349Y0025510D01*
X0040295Y0025530D01*
X0040239Y0025546D01*
X0040183Y0025559D01*
X0040126Y0025568D01*
X0040069Y0025573D01*
X0033530Y0025573D01*
X0033530Y0025574D02*
X0033473Y0025569D01*
X0033416Y0025560D01*
X0033360Y0025547D01*
X0033305Y0025531D01*
X0033251Y0025511D01*
X0033198Y0025488D01*
X0033147Y0025461D01*
X0033098Y0025431D01*
X0033051Y0025397D01*
X0033007Y0025361D01*
X0032965Y0025322D01*
X0032925Y0025279D01*
X0032889Y0025235D01*
X0032856Y0025188D01*
X0032825Y0025139D01*
X0032798Y0025088D01*
X0032775Y0025036D01*
X0032755Y0024982D01*
X0032739Y0024927D01*
X0032726Y0024870D01*
X0032717Y0024814D01*
X0032712Y0024756D01*
X0031895Y0008814D01*
X0031897Y0008758D01*
X0031903Y0008703D01*
X0031912Y0008648D01*
X0031925Y0008594D01*
X0031942Y0008540D01*
X0031963Y0008489D01*
X0031987Y0008438D01*
X0032014Y0008389D01*
X0032045Y0008343D01*
X0032078Y0008298D01*
X0032115Y0008256D01*
X0032154Y0008217D01*
X0032196Y0008180D01*
X0032241Y0008147D01*
X0032287Y0008116D01*
X0032336Y0008089D01*
X0032387Y0008065D01*
X0032438Y0008044D01*
X0032492Y0008027D01*
X0032546Y0008014D01*
X0032601Y0008005D01*
X0032656Y0007999D01*
X0032712Y0007997D01*
X0032712Y0007996D02*
X0032713Y0007996D01*
X0032713Y0007997D02*
X0032769Y0007999D01*
X0032824Y0008005D01*
X0032879Y0008014D01*
X0032933Y0008027D01*
X0032987Y0008044D01*
X0033038Y0008065D01*
X0033089Y0008089D01*
X0033138Y0008116D01*
X0033184Y0008147D01*
X0033229Y0008180D01*
X0033271Y0008217D01*
X0033310Y0008256D01*
X0033347Y0008298D01*
X0033380Y0008343D01*
X0033411Y0008389D01*
X0033438Y0008438D01*
X0033462Y0008489D01*
X0033483Y0008540D01*
X0033500Y0008594D01*
X0033513Y0008648D01*
X0033522Y0008703D01*
X0033528Y0008758D01*
X0033530Y0008814D01*
X0034347Y0022303D01*
X0034346Y0022303D02*
X0039252Y0022303D01*
X0040069Y0008814D01*
X0040070Y0008814D02*
X0040072Y0008758D01*
X0040078Y0008703D01*
X0040087Y0008648D01*
X0040100Y0008594D01*
X0040117Y0008540D01*
X0040138Y0008489D01*
X0040162Y0008438D01*
X0040189Y0008389D01*
X0040220Y0008343D01*
X0040253Y0008298D01*
X0040290Y0008256D01*
X0040329Y0008217D01*
X0040371Y0008180D01*
X0040416Y0008147D01*
X0040462Y0008116D01*
X0040511Y0008089D01*
X0040562Y0008065D01*
X0040613Y0008044D01*
X0040667Y0008027D01*
X0040721Y0008014D01*
X0040776Y0008005D01*
X0040831Y0007999D01*
X0040887Y0007997D01*
X0040943Y0007999D01*
X0040998Y0008005D01*
X0041053Y0008014D01*
X0041107Y0008027D01*
X0041161Y0008044D01*
X0041212Y0008065D01*
X0041263Y0008089D01*
X0041312Y0008116D01*
X0041358Y0008147D01*
X0041403Y0008180D01*
X0041445Y0008217D01*
X0041484Y0008256D01*
X0041521Y0008298D01*
X0041554Y0008343D01*
X0041585Y0008389D01*
X0041612Y0008438D01*
X0041636Y0008489D01*
X0041657Y0008540D01*
X0041674Y0008594D01*
X0041687Y0008648D01*
X0041696Y0008703D01*
X0041702Y0008758D01*
X0041704Y0008814D01*
X0044566Y0007793D02*
X0044681Y0007759D01*
X0044798Y0007729D01*
X0044915Y0007703D01*
X0045033Y0007681D01*
X0045151Y0007662D01*
X0045271Y0007647D01*
X0045390Y0007636D01*
X0045510Y0007628D01*
X0045630Y0007624D01*
X0045750Y0007624D01*
X0045870Y0007628D01*
X0045990Y0007636D01*
X0046109Y0007647D01*
X0046229Y0007662D01*
X0046347Y0007681D01*
X0046465Y0007703D01*
X0046582Y0007729D01*
X0046699Y0007759D01*
X0046814Y0007793D01*
X0046876Y0007814D01*
X0046938Y0007839D01*
X0046998Y0007867D01*
X0047056Y0007898D01*
X0047112Y0007933D01*
X0047166Y0007971D01*
X0047218Y0008012D01*
X0047268Y0008056D01*
X0047315Y0008103D01*
X0047359Y0008152D01*
X0047400Y0008203D01*
X0047438Y0008257D01*
X0047474Y0008313D01*
X0047506Y0008371D01*
X0047534Y0008431D01*
X0047559Y0008492D01*
X0047581Y0008555D01*
X0047599Y0008618D01*
X0047613Y0008683D01*
X0047624Y0008748D01*
X0047631Y0008814D01*
X0048449Y0019646D01*
X0051924Y0009420D02*
X0051924Y0003500D01*
X0051924Y0003500D01*
X0021676Y0003500D01*
X0021676Y0009419D01*
X0025968Y0008814D02*
X0025150Y0019646D01*
X0025968Y0019646D01*
X0026989Y0010244D01*
X0029033Y0010244D01*
X0030055Y0019646D01*
X0030873Y0019646D01*
X0029851Y0008814D01*
X0029844Y0008748D01*
X0029833Y0008683D01*
X0029819Y0008618D01*
X0029801Y0008555D01*
X0029779Y0008492D01*
X0029754Y0008431D01*
X0029726Y0008371D01*
X0029694Y0008313D01*
X0029658Y0008257D01*
X0029620Y0008203D01*
X0029579Y0008152D01*
X0029535Y0008103D01*
X0029488Y0008056D01*
X0029438Y0008012D01*
X0029386Y0007971D01*
X0029332Y0007933D01*
X0029276Y0007898D01*
X0029218Y0007867D01*
X0029158Y0007839D01*
X0029096Y0007814D01*
X0029034Y0007793D01*
X0026785Y0007793D02*
X0026723Y0007814D01*
X0026661Y0007839D01*
X0026601Y0007867D01*
X0026543Y0007898D01*
X0026487Y0007933D01*
X0026433Y0007971D01*
X0026381Y0008012D01*
X0026331Y0008056D01*
X0026284Y0008103D01*
X0026240Y0008152D01*
X0026199Y0008203D01*
X0026161Y0008257D01*
X0026125Y0008313D01*
X0026093Y0008371D01*
X0026065Y0008431D01*
X0026040Y0008492D01*
X0026018Y0008555D01*
X0026000Y0008618D01*
X0025986Y0008683D01*
X0025975Y0008748D01*
X0025968Y0008814D01*
X0026785Y0007793D02*
X0026900Y0007759D01*
X0027017Y0007729D01*
X0027134Y0007703D01*
X0027252Y0007681D01*
X0027370Y0007662D01*
X0027490Y0007647D01*
X0027609Y0007636D01*
X0027729Y0007628D01*
X0027849Y0007624D01*
X0027969Y0007624D01*
X0028089Y0007628D01*
X0028209Y0007636D01*
X0028328Y0007647D01*
X0028448Y0007662D01*
X0028566Y0007681D01*
X0028684Y0007703D01*
X0028801Y0007729D01*
X0028918Y0007759D01*
X0029033Y0007793D01*
X0021653Y0003482D02*
X0051947Y0003482D01*
X0049887Y0033925D02*
X0047430Y0033925D01*
X0047429Y0033925D02*
X0047429Y0038443D01*
X0049920Y0038443D01*
X0047906Y0066500D02*
X0048673Y0067267D01*
X0048673Y0071104D01*
X0050208Y0068802D02*
X0053277Y0068802D01*
X0051742Y0070337D02*
X0051742Y0067267D01*
X0047906Y0066500D02*
X0046371Y0066500D01*
X0045604Y0067267D01*
X0045604Y0071104D01*
X0044069Y0070337D02*
X0043302Y0071104D01*
X0041000Y0071104D01*
X0041000Y0066500D01*
X0043302Y0066500D01*
X0044069Y0067267D01*
X0044069Y0070337D01*
X0042594Y0074500D02*
X0043361Y0075267D01*
X0043361Y0079104D01*
X0044896Y0076802D02*
X0047965Y0076802D01*
X0046431Y0078337D02*
X0046431Y0075267D01*
X0042594Y0074500D02*
X0041059Y0074500D01*
X0040292Y0075267D01*
X0040292Y0079104D01*
X0038757Y0078337D02*
X0038757Y0076802D01*
X0037990Y0076035D01*
X0035688Y0076035D01*
X0037223Y0076035D02*
X0038757Y0074500D01*
X0035688Y0074500D02*
X0035688Y0079104D01*
X0037990Y0079104D01*
X0038757Y0078337D01*
X0031777Y0086802D02*
X0028708Y0086802D01*
X0027173Y0085267D02*
X0027173Y0089104D01*
X0024104Y0089104D02*
X0024104Y0085267D01*
X0024871Y0084500D01*
X0026406Y0084500D01*
X0027173Y0085267D01*
X0022569Y0084500D02*
X0021035Y0086035D01*
X0021802Y0086035D02*
X0022569Y0086802D01*
X0022569Y0088337D01*
X0021802Y0089104D01*
X0019500Y0089104D01*
X0019500Y0084500D01*
X0019500Y0086035D02*
X0021802Y0086035D01*
X0022198Y0094500D02*
X0020663Y0094500D01*
X0019896Y0095267D01*
X0019896Y0099104D01*
X0018361Y0098337D02*
X0018361Y0096802D01*
X0017594Y0096035D01*
X0015292Y0096035D01*
X0016827Y0096035D02*
X0018361Y0094500D01*
X0015292Y0094500D02*
X0015292Y0099104D01*
X0017594Y0099104D01*
X0018361Y0098337D01*
X0022965Y0099104D02*
X0022965Y0095267D01*
X0022198Y0094500D01*
X0026480Y0094500D02*
X0026480Y0099104D01*
X0028782Y0099104D01*
X0029550Y0098337D01*
X0029550Y0096802D01*
X0028782Y0096035D01*
X0026480Y0096035D01*
X0028015Y0096035D02*
X0029550Y0094500D01*
X0032619Y0094500D02*
X0032619Y0099104D01*
X0031084Y0099104D02*
X0034154Y0099104D01*
X0035688Y0097569D02*
X0037223Y0099104D01*
X0038757Y0097569D01*
X0038757Y0094500D01*
X0040292Y0095267D02*
X0041059Y0094500D01*
X0042594Y0094500D01*
X0043361Y0095267D01*
X0043361Y0096035D01*
X0042594Y0096802D01*
X0041059Y0096802D01*
X0040292Y0097569D01*
X0040292Y0098337D01*
X0041059Y0099104D01*
X0042594Y0099104D01*
X0043361Y0098337D01*
X0044896Y0099104D02*
X0047965Y0099104D01*
X0046431Y0099104D02*
X0046431Y0094500D01*
X0038757Y0096802D02*
X0035688Y0096802D01*
X0035688Y0097569D02*
X0035688Y0094500D01*
X0021861Y0057104D02*
X0021861Y0053267D01*
X0021094Y0052500D01*
X0019559Y0052500D01*
X0018792Y0053267D01*
X0018792Y0057104D01*
X0017257Y0056337D02*
X0016490Y0057104D01*
X0014188Y0057104D01*
X0014188Y0052500D01*
X0016490Y0052500D01*
X0017257Y0053267D01*
X0017257Y0056337D01*
X0023396Y0054802D02*
X0026465Y0054802D01*
X0026569Y0038376D02*
X0023712Y0038376D01*
X0026569Y0038376D02*
X0026569Y0033925D01*
X0023712Y0033926D01*
X0021653Y0030670D02*
X0021654Y0020689D01*
X0014100Y0017173D02*
X0014100Y0014104D01*
X0014100Y0015639D02*
X0009496Y0015639D01*
X0011031Y0014104D01*
X0009496Y0012569D02*
X0014100Y0009500D01*
X0014100Y0012569D02*
X0009496Y0009500D01*
X0072378Y0087236D02*
X0073913Y0087236D01*
X0074680Y0088004D01*
X0076215Y0087236D02*
X0079284Y0090305D01*
X0079284Y0091073D01*
X0078517Y0091840D01*
X0076982Y0091840D01*
X0076215Y0091073D01*
X0074680Y0091073D02*
X0073913Y0091840D01*
X0072378Y0091840D01*
X0071611Y0091073D01*
X0071611Y0088004D01*
X0072378Y0087236D01*
X0076215Y0087236D02*
X0079284Y0087236D01*
X0127232Y0039691D02*
X0127232Y0038156D01*
X0128000Y0037389D01*
X0127232Y0035854D02*
X0130302Y0032785D01*
X0129534Y0033552D02*
X0131836Y0035854D01*
X0131836Y0037389D02*
X0128767Y0040458D01*
X0128000Y0040458D01*
X0127232Y0039691D01*
X0131836Y0040458D02*
X0131836Y0037389D01*
X0131836Y0032785D02*
X0127232Y0032785D01*
X0128000Y0031250D02*
X0127232Y0030483D01*
X0127232Y0028948D01*
X0128000Y0028181D01*
X0131069Y0028181D01*
X0131836Y0028948D01*
X0131836Y0030483D01*
X0131069Y0031250D01*
X0144500Y0059500D02*
X0144500Y0064104D01*
X0146802Y0064104D01*
X0147569Y0063337D01*
X0147569Y0061802D01*
X0146802Y0061035D01*
X0144500Y0061035D01*
X0146035Y0061035D02*
X0147569Y0059500D01*
X0149104Y0059500D02*
X0149104Y0062569D01*
X0150639Y0064104D01*
X0152173Y0062569D01*
X0152173Y0059500D01*
X0153708Y0059500D02*
X0153708Y0064104D01*
X0156777Y0059500D01*
X0156777Y0064104D01*
X0158312Y0063337D02*
X0159079Y0064104D01*
X0160614Y0064104D01*
X0161381Y0063337D01*
X0161381Y0062569D01*
X0160614Y0061802D01*
X0161381Y0061035D01*
X0161381Y0060267D01*
X0160614Y0059500D01*
X0159079Y0059500D01*
X0158312Y0060267D01*
X0159846Y0061802D02*
X0160614Y0061802D01*
X0152173Y0061802D02*
X0149104Y0061802D01*
D15*
X0136135Y0105883D02*
X0133666Y0105883D01*
X0133049Y0106500D01*
X0133049Y0107734D01*
X0133666Y0108352D01*
X0133049Y0109566D02*
X0133049Y0112035D01*
X0133049Y0110800D02*
X0136752Y0110800D01*
X0136135Y0108352D02*
X0136752Y0107734D01*
X0136752Y0106500D01*
X0136135Y0105883D01*
D16*
X0146800Y0109000D03*
D17*
X0146800Y0201800D02*
X0146800Y0224300D01*
X0136800Y0224300D02*
X0136800Y0201800D01*
D18*
X0136800Y0200300D03*
X0146800Y0200300D03*
D19*
X0146800Y0187300D03*
X0136800Y0187300D03*
D20*
X0136800Y0176800D03*
X0146800Y0176800D03*
D21*
X0122800Y0163300D02*
X0122800Y0190300D01*
X0030800Y0190300D01*
X0030800Y0163300D01*
X0068800Y0163300D01*
X0084800Y0163300D02*
X0098800Y0163300D01*
X0104800Y0163300D02*
X0122800Y0163300D01*
D22*
X0024245Y0187150D02*
X0020041Y0187150D01*
X0024245Y0191354D01*
X0024245Y0192404D01*
X0023194Y0193455D01*
X0021092Y0193455D01*
X0020041Y0192404D01*
X0017799Y0193455D02*
X0017799Y0189252D01*
X0015697Y0187150D01*
X0013595Y0189252D01*
X0013595Y0193455D01*
X0011354Y0192404D02*
X0010303Y0193455D01*
X0008201Y0193455D01*
X0007150Y0192404D01*
X0007150Y0191354D01*
X0008201Y0190303D01*
X0010303Y0190303D01*
X0011354Y0189252D01*
X0011354Y0188201D01*
X0010303Y0187150D01*
X0008201Y0187150D01*
X0007150Y0188201D01*
D23*
X0137213Y0130894D03*
D24*
X0044600Y0061800D03*
X0024000Y0061800D03*
M02*
