G75*
%MOIN*%
%OFA0B0*%
%FSLAX25Y25*%
%IPPOS*%
%LPD*%
%AMOC8*
5,1,8,0,0,1.08239X$1,22.5*
%
%ADD10C,0.00000*%
%ADD11OC8,0.08900*%
%ADD12R,0.06699X0.10636*%
%ADD13R,0.10636X0.06699*%
%ADD14R,0.11817X0.06306*%
%ADD15R,0.07487X0.05912*%
%ADD16R,0.09061X0.02762*%
%ADD17C,0.05600*%
%ADD18OC8,0.06400*%
%ADD19R,0.04337X0.04731*%
%ADD20OC8,0.06000*%
%ADD21R,0.06699X0.09061*%
%ADD22R,0.04731X0.04337*%
%ADD23R,0.05912X0.07487*%
%ADD24R,0.08274X0.10243*%
%ADD25R,0.08274X0.13392*%
%ADD26R,0.02369X0.12605*%
D10*
X0001800Y0001800D02*
X0001800Y0196800D01*
X0161800Y0196800D01*
X0161800Y0001800D01*
X0001800Y0001800D01*
D11*
X0071800Y0016800D03*
X0091800Y0016800D03*
X0111800Y0016800D03*
X0141800Y0016800D03*
D12*
X0141800Y0029713D03*
X0141800Y0043887D03*
X0111800Y0043887D03*
X0111800Y0029713D03*
X0081800Y0029713D03*
X0081800Y0043887D03*
D13*
X0078887Y0071800D03*
X0064713Y0071800D03*
X0064713Y0101800D03*
X0078887Y0101800D03*
D14*
X0126800Y0100894D03*
X0126800Y0112706D03*
D15*
X0146800Y0113493D03*
X0146800Y0100107D03*
D16*
X0137036Y0089300D03*
X0137036Y0084300D03*
X0137036Y0079300D03*
X0137036Y0074300D03*
X0116564Y0074300D03*
X0116564Y0079300D03*
X0116564Y0084300D03*
X0116564Y0089300D03*
D17*
X0101800Y0119200D02*
X0101800Y0124400D01*
X0091800Y0124400D02*
X0091800Y0119200D01*
X0081800Y0119200D02*
X0081800Y0124400D01*
X0071800Y0124400D02*
X0071800Y0119200D01*
X0061800Y0119200D02*
X0061800Y0124400D01*
X0051800Y0124400D02*
X0051800Y0119200D01*
X0041800Y0119200D02*
X0041800Y0124400D01*
X0031800Y0124400D02*
X0031800Y0119200D01*
X0021800Y0119200D02*
X0021800Y0124400D01*
X0021800Y0149200D02*
X0021800Y0154400D01*
X0031800Y0154400D02*
X0031800Y0149200D01*
X0041800Y0149200D02*
X0041800Y0154400D01*
X0051800Y0154400D02*
X0051800Y0149200D01*
X0061800Y0149200D02*
X0061800Y0154400D01*
X0071800Y0154400D02*
X0071800Y0149200D01*
X0081800Y0149200D02*
X0081800Y0154400D01*
X0091800Y0154400D02*
X0091800Y0149200D01*
X0101800Y0149200D02*
X0101800Y0154400D01*
D18*
X0136800Y0171800D03*
X0136800Y0181800D03*
X0146800Y0181800D03*
X0146800Y0171800D03*
D19*
X0100146Y0071800D03*
X0093454Y0071800D03*
X0098454Y0056800D03*
X0105146Y0056800D03*
X0113454Y0056800D03*
X0120146Y0056800D03*
X0133454Y0056800D03*
X0140146Y0056800D03*
X0148454Y0056800D03*
X0155146Y0056800D03*
X0050146Y0081800D03*
X0043454Y0081800D03*
X0043454Y0101800D03*
X0050146Y0101800D03*
X0025146Y0101800D03*
X0018454Y0101800D03*
X0018454Y0081800D03*
X0025146Y0081800D03*
D20*
X0046800Y0171800D03*
X0046800Y0181800D03*
X0056800Y0181800D03*
X0056800Y0171800D03*
X0066800Y0171800D03*
X0066800Y0181800D03*
X0076800Y0181800D03*
X0076800Y0171800D03*
X0086800Y0171800D03*
X0086800Y0181800D03*
X0096800Y0181800D03*
X0096800Y0171800D03*
X0106800Y0171800D03*
X0106800Y0181800D03*
D21*
X0119202Y0136800D03*
X0144398Y0136800D03*
D22*
X0111800Y0110146D03*
X0111800Y0103454D03*
D23*
X0053493Y0061800D03*
X0040107Y0061800D03*
X0028493Y0061800D03*
X0015107Y0061800D03*
D24*
X0019280Y0014989D03*
X0054320Y0014989D03*
D25*
X0054320Y0038217D03*
X0019280Y0038217D03*
D26*
X0030501Y0038611D03*
X0033650Y0038611D03*
X0036800Y0038611D03*
X0039950Y0038611D03*
X0043099Y0038611D03*
M02*
