%
M48
M72
T01C0.01200
T02C0.03200
T03C0.03600
T04C0.04000
T05C0.05200
%
T01
X11800Y16800
X51800Y71800
X57800Y83000
X55400Y93800
X47000Y88600
X42200Y88600
X55300Y109800
X69400Y96600
X76600Y95000
X86800Y101800
X88600Y88600
X97000Y90200
X104600Y89000
X106800Y96800
X107000Y104200
X101000Y107000
X94600Y113400
X90600Y113400
X86800Y136800
X101800Y141800
X111800Y131800
X126800Y141800
X146800Y161800
X156800Y186800
X121800Y186800
X64200Y132200
X37000Y112600
X21800Y110200
X18200Y97400
X6800Y81800
X69300Y41800
X79400Y79000
X84300Y79300
X75800Y80600
X98600Y45400
X109300Y71800
X124300Y64300
X126800Y71800
X127400Y89000
X133800Y93800
X143400Y90600
X153400Y89800
X156600Y86600
X152600Y82600
X146800Y66800
X151800Y53000
X126800Y39300
X126800Y39300
T02
X101800Y121800
X91800Y121800
X81800Y121800
X71800Y121800
X61800Y121800
X51800Y121800
X41800Y121800
X31800Y121800
X21800Y121800
X21800Y151800
X31800Y151800
X41800Y151800
X51800Y151800
X61800Y151800
X71800Y151800
X81800Y151800
X91800Y151800
X101800Y151800
T03
X96800Y171800
X96800Y181800
X86800Y181800
X86800Y171800
X76800Y171800
X76800Y181800
X66800Y181800
X66800Y171800
X56800Y171800
X56800Y181800
X46800Y181800
X46800Y171800
X106800Y171800
X106800Y181800
T04
X136800Y181800
X136800Y171800
X146800Y171800
X146800Y181800
T05
X141800Y16800
X111800Y16800
X91800Y16800
X71800Y16800
M30
