G75*
%MOIN*%
%OFA0B0*%
%FSLAX25Y25*%
%IPPOS*%
%LPD*%
%AMOC8*
5,1,8,0,0,1.08239X$1,22.5*
%
%ADD10C,0.00000*%
%ADD11C,0.00300*%
%ADD12C,0.00600*%
%ADD13C,0.00200*%
%ADD14C,0.00500*%
%ADD15C,0.00400*%
%ADD16C,0.00800*%
%ADD17C,0.00100*%
D10*
X0001800Y0001800D02*
X0001800Y0196800D01*
X0161800Y0196800D01*
X0161800Y0001800D01*
X0001800Y0001800D01*
D11*
X0040052Y0060395D02*
X0039435Y0061012D01*
X0039435Y0061629D01*
X0040052Y0062246D01*
X0041904Y0062246D01*
X0041904Y0061012D01*
X0041287Y0060395D01*
X0040052Y0060395D01*
X0041904Y0062246D02*
X0040669Y0063481D01*
X0039435Y0064098D01*
X0043118Y0063481D02*
X0043735Y0064098D01*
X0044970Y0064098D01*
X0045587Y0063481D01*
X0045587Y0061012D01*
X0044970Y0060395D01*
X0043735Y0060395D01*
X0043118Y0061012D01*
X0043735Y0070395D02*
X0043118Y0071012D01*
X0043735Y0070395D02*
X0044970Y0070395D01*
X0045587Y0071012D01*
X0045587Y0073481D01*
X0044970Y0074098D01*
X0043735Y0074098D01*
X0043118Y0073481D01*
X0041904Y0073481D02*
X0041287Y0074098D01*
X0040052Y0074098D01*
X0039435Y0073481D01*
X0039435Y0072864D01*
X0040052Y0072246D01*
X0039435Y0071629D01*
X0039435Y0071012D01*
X0040052Y0070395D01*
X0041287Y0070395D01*
X0041904Y0071012D01*
X0040669Y0072246D02*
X0040052Y0072246D01*
X0119435Y0064098D02*
X0121904Y0064098D01*
X0121904Y0062246D01*
X0120669Y0062864D01*
X0120052Y0062864D01*
X0119435Y0062246D01*
X0119435Y0061012D01*
X0120052Y0060395D01*
X0121287Y0060395D01*
X0121904Y0061012D01*
X0123118Y0061012D02*
X0123735Y0060395D01*
X0124970Y0060395D01*
X0125587Y0061012D01*
X0125587Y0063481D01*
X0124970Y0064098D01*
X0123735Y0064098D01*
X0123118Y0063481D01*
D12*
X0113300Y0084100D02*
X0150300Y0084100D01*
X0150376Y0084102D01*
X0150452Y0084108D01*
X0150527Y0084117D01*
X0150602Y0084131D01*
X0150676Y0084148D01*
X0150749Y0084169D01*
X0150821Y0084193D01*
X0150892Y0084222D01*
X0150961Y0084253D01*
X0151028Y0084288D01*
X0151093Y0084327D01*
X0151157Y0084369D01*
X0151218Y0084414D01*
X0151277Y0084462D01*
X0151333Y0084513D01*
X0151387Y0084567D01*
X0151438Y0084623D01*
X0151486Y0084682D01*
X0151531Y0084743D01*
X0151573Y0084807D01*
X0151612Y0084872D01*
X0151647Y0084939D01*
X0151678Y0085008D01*
X0151707Y0085079D01*
X0151731Y0085151D01*
X0151752Y0085224D01*
X0151769Y0085298D01*
X0151783Y0085373D01*
X0151792Y0085448D01*
X0151798Y0085524D01*
X0151800Y0085600D01*
X0151800Y0098000D01*
X0151798Y0098076D01*
X0151792Y0098152D01*
X0151783Y0098227D01*
X0151769Y0098302D01*
X0151752Y0098376D01*
X0151731Y0098449D01*
X0151707Y0098521D01*
X0151678Y0098592D01*
X0151647Y0098661D01*
X0151612Y0098728D01*
X0151573Y0098793D01*
X0151531Y0098857D01*
X0151486Y0098918D01*
X0151438Y0098977D01*
X0151387Y0099033D01*
X0151333Y0099087D01*
X0151277Y0099138D01*
X0151218Y0099186D01*
X0151157Y0099231D01*
X0151093Y0099273D01*
X0151028Y0099312D01*
X0150961Y0099347D01*
X0150892Y0099378D01*
X0150821Y0099407D01*
X0150749Y0099431D01*
X0150676Y0099452D01*
X0150602Y0099469D01*
X0150527Y0099483D01*
X0150452Y0099492D01*
X0150376Y0099498D01*
X0150300Y0099500D01*
X0113300Y0099500D01*
X0113224Y0099498D01*
X0113148Y0099492D01*
X0113073Y0099483D01*
X0112998Y0099469D01*
X0112924Y0099452D01*
X0112851Y0099431D01*
X0112779Y0099407D01*
X0112708Y0099378D01*
X0112639Y0099347D01*
X0112572Y0099312D01*
X0112507Y0099273D01*
X0112443Y0099231D01*
X0112382Y0099186D01*
X0112323Y0099138D01*
X0112267Y0099087D01*
X0112213Y0099033D01*
X0112162Y0098977D01*
X0112114Y0098918D01*
X0112069Y0098857D01*
X0112027Y0098793D01*
X0111988Y0098728D01*
X0111953Y0098661D01*
X0111922Y0098592D01*
X0111893Y0098521D01*
X0111869Y0098449D01*
X0111848Y0098376D01*
X0111831Y0098302D01*
X0111817Y0098227D01*
X0111808Y0098152D01*
X0111802Y0098076D01*
X0111800Y0098000D01*
X0111800Y0085600D01*
X0111802Y0085524D01*
X0111808Y0085448D01*
X0111817Y0085373D01*
X0111831Y0085298D01*
X0111848Y0085224D01*
X0111869Y0085151D01*
X0111893Y0085079D01*
X0111922Y0085008D01*
X0111953Y0084939D01*
X0111988Y0084872D01*
X0112027Y0084807D01*
X0112069Y0084743D01*
X0112114Y0084682D01*
X0112162Y0084623D01*
X0112213Y0084567D01*
X0112267Y0084513D01*
X0112323Y0084462D01*
X0112382Y0084414D01*
X0112443Y0084369D01*
X0112507Y0084327D01*
X0112572Y0084288D01*
X0112639Y0084253D01*
X0112708Y0084222D01*
X0112779Y0084193D01*
X0112851Y0084169D01*
X0112924Y0084148D01*
X0112998Y0084131D01*
X0113073Y0084117D01*
X0113148Y0084108D01*
X0113224Y0084102D01*
X0113300Y0084100D01*
X0103300Y0066300D02*
X0060300Y0066300D01*
X0060240Y0066298D01*
X0060179Y0066293D01*
X0060120Y0066284D01*
X0060061Y0066271D01*
X0060002Y0066255D01*
X0059945Y0066235D01*
X0059890Y0066212D01*
X0059835Y0066185D01*
X0059783Y0066156D01*
X0059732Y0066123D01*
X0059683Y0066087D01*
X0059637Y0066049D01*
X0059593Y0066007D01*
X0059551Y0065963D01*
X0059513Y0065917D01*
X0059477Y0065868D01*
X0059444Y0065817D01*
X0059415Y0065765D01*
X0059388Y0065710D01*
X0059365Y0065655D01*
X0059345Y0065598D01*
X0059329Y0065539D01*
X0059316Y0065480D01*
X0059307Y0065421D01*
X0059302Y0065360D01*
X0059300Y0065300D01*
X0059300Y0061300D01*
X0059300Y0052300D02*
X0059300Y0048300D01*
X0059302Y0048240D01*
X0059307Y0048179D01*
X0059316Y0048120D01*
X0059329Y0048061D01*
X0059345Y0048002D01*
X0059365Y0047945D01*
X0059388Y0047890D01*
X0059415Y0047835D01*
X0059444Y0047783D01*
X0059477Y0047732D01*
X0059513Y0047683D01*
X0059551Y0047637D01*
X0059593Y0047593D01*
X0059637Y0047551D01*
X0059683Y0047513D01*
X0059732Y0047477D01*
X0059783Y0047444D01*
X0059835Y0047415D01*
X0059890Y0047388D01*
X0059945Y0047365D01*
X0060002Y0047345D01*
X0060061Y0047329D01*
X0060120Y0047316D01*
X0060179Y0047307D01*
X0060240Y0047302D01*
X0060300Y0047300D01*
X0103300Y0047300D01*
X0103360Y0047302D01*
X0103421Y0047307D01*
X0103480Y0047316D01*
X0103539Y0047329D01*
X0103598Y0047345D01*
X0103655Y0047365D01*
X0103710Y0047388D01*
X0103765Y0047415D01*
X0103817Y0047444D01*
X0103868Y0047477D01*
X0103917Y0047513D01*
X0103963Y0047551D01*
X0104007Y0047593D01*
X0104049Y0047637D01*
X0104087Y0047683D01*
X0104123Y0047732D01*
X0104156Y0047783D01*
X0104185Y0047835D01*
X0104212Y0047890D01*
X0104235Y0047945D01*
X0104255Y0048002D01*
X0104271Y0048061D01*
X0104284Y0048120D01*
X0104293Y0048179D01*
X0104298Y0048240D01*
X0104300Y0048300D01*
X0104300Y0052300D01*
X0104300Y0061300D02*
X0104300Y0065300D01*
X0104298Y0065360D01*
X0104293Y0065421D01*
X0104284Y0065480D01*
X0104271Y0065539D01*
X0104255Y0065598D01*
X0104235Y0065655D01*
X0104212Y0065710D01*
X0104185Y0065765D01*
X0104156Y0065817D01*
X0104123Y0065868D01*
X0104087Y0065917D01*
X0104049Y0065963D01*
X0104007Y0066007D01*
X0103963Y0066049D01*
X0103917Y0066087D01*
X0103868Y0066123D01*
X0103817Y0066156D01*
X0103765Y0066185D01*
X0103710Y0066212D01*
X0103655Y0066235D01*
X0103598Y0066255D01*
X0103539Y0066271D01*
X0103480Y0066284D01*
X0103421Y0066293D01*
X0103360Y0066298D01*
X0103300Y0066300D01*
X0084300Y0059300D02*
X0084300Y0056800D01*
X0084300Y0054300D01*
X0082800Y0054300D02*
X0080800Y0054300D01*
X0080800Y0059300D01*
X0082800Y0059300D01*
X0082800Y0054300D01*
X0079300Y0054300D02*
X0079300Y0056800D01*
X0079300Y0059300D01*
X0051800Y0085600D02*
X0051800Y0098000D01*
X0051798Y0098076D01*
X0051792Y0098152D01*
X0051783Y0098227D01*
X0051769Y0098302D01*
X0051752Y0098376D01*
X0051731Y0098449D01*
X0051707Y0098521D01*
X0051678Y0098592D01*
X0051647Y0098661D01*
X0051612Y0098728D01*
X0051573Y0098793D01*
X0051531Y0098857D01*
X0051486Y0098918D01*
X0051438Y0098977D01*
X0051387Y0099033D01*
X0051333Y0099087D01*
X0051277Y0099138D01*
X0051218Y0099186D01*
X0051157Y0099231D01*
X0051093Y0099273D01*
X0051028Y0099312D01*
X0050961Y0099347D01*
X0050892Y0099378D01*
X0050821Y0099407D01*
X0050749Y0099431D01*
X0050676Y0099452D01*
X0050602Y0099469D01*
X0050527Y0099483D01*
X0050452Y0099492D01*
X0050376Y0099498D01*
X0050300Y0099500D01*
X0013300Y0099500D01*
X0013224Y0099498D01*
X0013148Y0099492D01*
X0013073Y0099483D01*
X0012998Y0099469D01*
X0012924Y0099452D01*
X0012851Y0099431D01*
X0012779Y0099407D01*
X0012708Y0099378D01*
X0012639Y0099347D01*
X0012572Y0099312D01*
X0012507Y0099273D01*
X0012443Y0099231D01*
X0012382Y0099186D01*
X0012323Y0099138D01*
X0012267Y0099087D01*
X0012213Y0099033D01*
X0012162Y0098977D01*
X0012114Y0098918D01*
X0012069Y0098857D01*
X0012027Y0098793D01*
X0011988Y0098728D01*
X0011953Y0098661D01*
X0011922Y0098592D01*
X0011893Y0098521D01*
X0011869Y0098449D01*
X0011848Y0098376D01*
X0011831Y0098302D01*
X0011817Y0098227D01*
X0011808Y0098152D01*
X0011802Y0098076D01*
X0011800Y0098000D01*
X0011800Y0093800D01*
X0011800Y0089800D01*
X0011800Y0085600D01*
X0011802Y0085524D01*
X0011808Y0085448D01*
X0011817Y0085373D01*
X0011831Y0085298D01*
X0011848Y0085224D01*
X0011869Y0085151D01*
X0011893Y0085079D01*
X0011922Y0085008D01*
X0011953Y0084939D01*
X0011988Y0084872D01*
X0012027Y0084807D01*
X0012069Y0084743D01*
X0012114Y0084682D01*
X0012162Y0084623D01*
X0012213Y0084567D01*
X0012267Y0084513D01*
X0012323Y0084462D01*
X0012382Y0084414D01*
X0012443Y0084369D01*
X0012507Y0084327D01*
X0012572Y0084288D01*
X0012639Y0084253D01*
X0012708Y0084222D01*
X0012779Y0084193D01*
X0012851Y0084169D01*
X0012924Y0084148D01*
X0012998Y0084131D01*
X0013073Y0084117D01*
X0013148Y0084108D01*
X0013224Y0084102D01*
X0013300Y0084100D01*
X0050300Y0084100D01*
X0050376Y0084102D01*
X0050452Y0084108D01*
X0050527Y0084117D01*
X0050602Y0084131D01*
X0050676Y0084148D01*
X0050749Y0084169D01*
X0050821Y0084193D01*
X0050892Y0084222D01*
X0050961Y0084253D01*
X0051028Y0084288D01*
X0051093Y0084327D01*
X0051157Y0084369D01*
X0051218Y0084414D01*
X0051277Y0084462D01*
X0051333Y0084513D01*
X0051387Y0084567D01*
X0051438Y0084623D01*
X0051486Y0084682D01*
X0051531Y0084743D01*
X0051573Y0084807D01*
X0051612Y0084872D01*
X0051647Y0084939D01*
X0051678Y0085008D01*
X0051707Y0085079D01*
X0051731Y0085151D01*
X0051752Y0085224D01*
X0051769Y0085298D01*
X0051783Y0085373D01*
X0051792Y0085448D01*
X0051798Y0085524D01*
X0051800Y0085600D01*
X0011800Y0089800D02*
X0011888Y0089802D01*
X0011977Y0089808D01*
X0012065Y0089818D01*
X0012152Y0089831D01*
X0012239Y0089849D01*
X0012325Y0089870D01*
X0012410Y0089895D01*
X0012493Y0089924D01*
X0012576Y0089957D01*
X0012656Y0089993D01*
X0012735Y0090032D01*
X0012813Y0090075D01*
X0012888Y0090122D01*
X0012961Y0090172D01*
X0013032Y0090225D01*
X0013101Y0090281D01*
X0013167Y0090340D01*
X0013230Y0090402D01*
X0013290Y0090466D01*
X0013348Y0090533D01*
X0013402Y0090603D01*
X0013454Y0090675D01*
X0013502Y0090749D01*
X0013547Y0090826D01*
X0013588Y0090904D01*
X0013626Y0090984D01*
X0013660Y0091065D01*
X0013691Y0091148D01*
X0013718Y0091233D01*
X0013741Y0091318D01*
X0013760Y0091404D01*
X0013776Y0091492D01*
X0013788Y0091579D01*
X0013796Y0091667D01*
X0013800Y0091756D01*
X0013800Y0091844D01*
X0013796Y0091933D01*
X0013788Y0092021D01*
X0013776Y0092108D01*
X0013760Y0092196D01*
X0013741Y0092282D01*
X0013718Y0092367D01*
X0013691Y0092452D01*
X0013660Y0092535D01*
X0013626Y0092616D01*
X0013588Y0092696D01*
X0013547Y0092774D01*
X0013502Y0092851D01*
X0013454Y0092925D01*
X0013402Y0092997D01*
X0013348Y0093067D01*
X0013290Y0093134D01*
X0013230Y0093198D01*
X0013167Y0093260D01*
X0013101Y0093319D01*
X0013032Y0093375D01*
X0012961Y0093428D01*
X0012888Y0093478D01*
X0012813Y0093525D01*
X0012735Y0093568D01*
X0012656Y0093607D01*
X0012576Y0093643D01*
X0012493Y0093676D01*
X0012410Y0093705D01*
X0012325Y0093730D01*
X0012239Y0093751D01*
X0012152Y0093769D01*
X0012065Y0093782D01*
X0011977Y0093792D01*
X0011888Y0093798D01*
X0011800Y0093800D01*
X0151800Y0093800D02*
X0151712Y0093798D01*
X0151623Y0093792D01*
X0151535Y0093782D01*
X0151448Y0093769D01*
X0151361Y0093751D01*
X0151275Y0093730D01*
X0151190Y0093705D01*
X0151107Y0093676D01*
X0151024Y0093643D01*
X0150944Y0093607D01*
X0150865Y0093568D01*
X0150787Y0093525D01*
X0150712Y0093478D01*
X0150639Y0093428D01*
X0150568Y0093375D01*
X0150499Y0093319D01*
X0150433Y0093260D01*
X0150370Y0093198D01*
X0150310Y0093134D01*
X0150252Y0093067D01*
X0150198Y0092997D01*
X0150146Y0092925D01*
X0150098Y0092851D01*
X0150053Y0092774D01*
X0150012Y0092696D01*
X0149974Y0092616D01*
X0149940Y0092535D01*
X0149909Y0092452D01*
X0149882Y0092367D01*
X0149859Y0092282D01*
X0149840Y0092196D01*
X0149824Y0092108D01*
X0149812Y0092021D01*
X0149804Y0091933D01*
X0149800Y0091844D01*
X0149800Y0091756D01*
X0149804Y0091667D01*
X0149812Y0091579D01*
X0149824Y0091492D01*
X0149840Y0091404D01*
X0149859Y0091318D01*
X0149882Y0091233D01*
X0149909Y0091148D01*
X0149940Y0091065D01*
X0149974Y0090984D01*
X0150012Y0090904D01*
X0150053Y0090826D01*
X0150098Y0090749D01*
X0150146Y0090675D01*
X0150198Y0090603D01*
X0150252Y0090533D01*
X0150310Y0090466D01*
X0150370Y0090402D01*
X0150433Y0090340D01*
X0150499Y0090281D01*
X0150568Y0090225D01*
X0150639Y0090172D01*
X0150712Y0090122D01*
X0150787Y0090075D01*
X0150865Y0090032D01*
X0150944Y0089993D01*
X0151024Y0089957D01*
X0151107Y0089924D01*
X0151190Y0089895D01*
X0151275Y0089870D01*
X0151361Y0089849D01*
X0151448Y0089831D01*
X0151535Y0089818D01*
X0151623Y0089808D01*
X0151712Y0089802D01*
X0151800Y0089800D01*
D13*
X0151800Y0085500D02*
X0111800Y0085500D01*
X0095300Y0064800D02*
X0068300Y0064800D01*
X0068300Y0061800D02*
X0095300Y0061800D01*
X0095300Y0064800D02*
X0095495Y0064798D01*
X0095689Y0064791D01*
X0095884Y0064779D01*
X0096078Y0064762D01*
X0096271Y0064741D01*
X0096464Y0064715D01*
X0096656Y0064684D01*
X0096848Y0064649D01*
X0097038Y0064609D01*
X0097228Y0064564D01*
X0097416Y0064515D01*
X0097603Y0064461D01*
X0097789Y0064403D01*
X0097973Y0064340D01*
X0098156Y0064273D01*
X0098337Y0064201D01*
X0098516Y0064125D01*
X0098693Y0064045D01*
X0098869Y0063960D01*
X0099042Y0063871D01*
X0099213Y0063778D01*
X0099381Y0063681D01*
X0099548Y0063579D01*
X0099711Y0063474D01*
X0099872Y0063364D01*
X0100031Y0063251D01*
X0100186Y0063134D01*
X0100339Y0063013D01*
X0100489Y0062889D01*
X0100635Y0062761D01*
X0100779Y0062629D01*
X0100919Y0062494D01*
X0101056Y0062356D01*
X0101189Y0062214D01*
X0101319Y0062069D01*
X0101446Y0061921D01*
X0101569Y0061770D01*
X0101688Y0061616D01*
X0101803Y0061459D01*
X0101915Y0061300D01*
X0101914Y0052300D02*
X0101803Y0052140D01*
X0101688Y0051984D01*
X0101569Y0051830D01*
X0101446Y0051678D01*
X0101319Y0051530D01*
X0101189Y0051386D01*
X0101056Y0051244D01*
X0100919Y0051105D01*
X0100779Y0050970D01*
X0100635Y0050839D01*
X0100489Y0050711D01*
X0100339Y0050586D01*
X0100186Y0050466D01*
X0100031Y0050349D01*
X0099872Y0050235D01*
X0099711Y0050126D01*
X0099547Y0050021D01*
X0099381Y0049919D01*
X0099213Y0049822D01*
X0099042Y0049729D01*
X0098868Y0049640D01*
X0098693Y0049555D01*
X0098516Y0049475D01*
X0098337Y0049399D01*
X0098156Y0049327D01*
X0097973Y0049260D01*
X0097789Y0049197D01*
X0097603Y0049139D01*
X0097416Y0049085D01*
X0097227Y0049036D01*
X0097038Y0048991D01*
X0096847Y0048951D01*
X0096656Y0048916D01*
X0096464Y0048885D01*
X0096271Y0048859D01*
X0096077Y0048838D01*
X0095883Y0048821D01*
X0095689Y0048809D01*
X0095494Y0048802D01*
X0095300Y0048800D01*
X0068300Y0048800D01*
X0068300Y0051800D02*
X0095300Y0051800D01*
X0095433Y0051802D01*
X0095565Y0051807D01*
X0095697Y0051816D01*
X0095830Y0051828D01*
X0095961Y0051844D01*
X0096093Y0051863D01*
X0096223Y0051886D01*
X0096353Y0051912D01*
X0096483Y0051942D01*
X0096611Y0051975D01*
X0096739Y0052011D01*
X0096865Y0052051D01*
X0096991Y0052094D01*
X0097115Y0052141D01*
X0097238Y0052191D01*
X0097359Y0052244D01*
X0097479Y0052300D01*
X0097479Y0061300D02*
X0097359Y0061356D01*
X0097238Y0061409D01*
X0097115Y0061459D01*
X0096991Y0061506D01*
X0096865Y0061549D01*
X0096739Y0061589D01*
X0096611Y0061625D01*
X0096483Y0061658D01*
X0096353Y0061688D01*
X0096223Y0061714D01*
X0096093Y0061737D01*
X0095961Y0061756D01*
X0095830Y0061772D01*
X0095697Y0061784D01*
X0095565Y0061793D01*
X0095433Y0061798D01*
X0095300Y0061800D01*
X0086300Y0056800D02*
X0084300Y0056800D01*
X0079300Y0056800D02*
X0077300Y0056800D01*
X0068300Y0048800D02*
X0068105Y0048802D01*
X0067910Y0048809D01*
X0067716Y0048821D01*
X0067522Y0048838D01*
X0067329Y0048859D01*
X0067136Y0048885D01*
X0066943Y0048916D01*
X0066752Y0048951D01*
X0066561Y0048991D01*
X0066372Y0049036D01*
X0066184Y0049085D01*
X0065996Y0049139D01*
X0065811Y0049197D01*
X0065626Y0049260D01*
X0065444Y0049327D01*
X0065263Y0049399D01*
X0065084Y0049475D01*
X0064906Y0049555D01*
X0064731Y0049640D01*
X0064558Y0049729D01*
X0064387Y0049822D01*
X0064218Y0049920D01*
X0064052Y0050021D01*
X0063888Y0050126D01*
X0063727Y0050236D01*
X0063569Y0050349D01*
X0063413Y0050466D01*
X0063261Y0050587D01*
X0063111Y0050711D01*
X0062964Y0050839D01*
X0062821Y0050971D01*
X0062681Y0051106D01*
X0062544Y0051244D01*
X0062410Y0051386D01*
X0062280Y0051531D01*
X0062154Y0051679D01*
X0062031Y0051830D01*
X0061912Y0051984D01*
X0061797Y0052141D01*
X0061685Y0052300D01*
X0061686Y0061300D02*
X0061797Y0061460D01*
X0061912Y0061616D01*
X0062031Y0061770D01*
X0062154Y0061922D01*
X0062281Y0062070D01*
X0062411Y0062214D01*
X0062544Y0062356D01*
X0062681Y0062495D01*
X0062821Y0062630D01*
X0062965Y0062761D01*
X0063111Y0062889D01*
X0063261Y0063014D01*
X0063414Y0063134D01*
X0063569Y0063251D01*
X0063728Y0063365D01*
X0063889Y0063474D01*
X0064053Y0063579D01*
X0064219Y0063681D01*
X0064387Y0063778D01*
X0064558Y0063871D01*
X0064732Y0063960D01*
X0064907Y0064045D01*
X0065084Y0064125D01*
X0065263Y0064201D01*
X0065444Y0064273D01*
X0065627Y0064340D01*
X0065811Y0064403D01*
X0065997Y0064461D01*
X0066184Y0064515D01*
X0066373Y0064564D01*
X0066562Y0064609D01*
X0066753Y0064649D01*
X0066944Y0064684D01*
X0067136Y0064715D01*
X0067329Y0064741D01*
X0067523Y0064762D01*
X0067717Y0064779D01*
X0067911Y0064791D01*
X0068106Y0064798D01*
X0068300Y0064800D01*
X0068300Y0061800D02*
X0068167Y0061798D01*
X0068035Y0061793D01*
X0067903Y0061784D01*
X0067770Y0061772D01*
X0067639Y0061756D01*
X0067507Y0061737D01*
X0067377Y0061714D01*
X0067247Y0061688D01*
X0067117Y0061658D01*
X0066989Y0061625D01*
X0066861Y0061589D01*
X0066735Y0061549D01*
X0066609Y0061506D01*
X0066485Y0061459D01*
X0066362Y0061409D01*
X0066241Y0061356D01*
X0066121Y0061300D01*
X0066121Y0052300D02*
X0066241Y0052244D01*
X0066362Y0052191D01*
X0066485Y0052141D01*
X0066609Y0052094D01*
X0066735Y0052051D01*
X0066861Y0052011D01*
X0066989Y0051975D01*
X0067117Y0051942D01*
X0067247Y0051912D01*
X0067377Y0051886D01*
X0067507Y0051863D01*
X0067639Y0051844D01*
X0067770Y0051828D01*
X0067903Y0051816D01*
X0068035Y0051807D01*
X0068167Y0051802D01*
X0068300Y0051800D01*
X0051800Y0098100D02*
X0011800Y0098100D01*
D14*
X0010054Y0096947D02*
X0005550Y0096947D01*
X0005550Y0095446D02*
X0005550Y0098449D01*
X0008553Y0095446D02*
X0010054Y0096947D01*
X0009303Y0093845D02*
X0010054Y0093094D01*
X0010054Y0091593D01*
X0009303Y0090842D01*
X0006301Y0090842D01*
X0005550Y0091593D01*
X0005550Y0093094D01*
X0006301Y0093845D01*
X0005550Y0089274D02*
X0005550Y0087773D01*
X0005550Y0088523D02*
X0010054Y0088523D01*
X0010054Y0087773D02*
X0010054Y0089274D01*
X0054340Y0111050D02*
X0057342Y0111050D01*
X0054340Y0114053D01*
X0054340Y0114803D01*
X0055090Y0115554D01*
X0056592Y0115554D01*
X0057342Y0114803D01*
X0058944Y0114803D02*
X0058944Y0113302D01*
X0059694Y0112551D01*
X0061946Y0112551D01*
X0061946Y0111050D02*
X0061946Y0115554D01*
X0059694Y0115554D01*
X0058944Y0114803D01*
X0058341Y0118550D02*
X0058341Y0123054D01*
X0059842Y0121553D01*
X0061444Y0122303D02*
X0062194Y0123054D01*
X0064446Y0123054D01*
X0064446Y0118550D01*
X0064446Y0120051D02*
X0062194Y0120051D01*
X0061444Y0120802D01*
X0061444Y0122303D01*
X0059842Y0118550D02*
X0056840Y0118550D01*
X0063547Y0115554D02*
X0066550Y0115554D01*
X0065049Y0115554D02*
X0065049Y0111050D01*
X0067549Y0118550D02*
X0067549Y0123054D01*
X0069050Y0123054D02*
X0066047Y0123054D01*
X0090090Y0085554D02*
X0089340Y0084803D01*
X0089340Y0084053D01*
X0090090Y0083302D01*
X0089340Y0082551D01*
X0089340Y0081801D01*
X0090090Y0081050D01*
X0091592Y0081050D01*
X0092342Y0081801D01*
X0090841Y0083302D02*
X0090090Y0083302D01*
X0090090Y0085554D02*
X0091592Y0085554D01*
X0092342Y0084803D01*
X0093944Y0084803D02*
X0093944Y0083302D01*
X0094694Y0082551D01*
X0096946Y0082551D01*
X0096946Y0081050D02*
X0096946Y0085554D01*
X0094694Y0085554D01*
X0093944Y0084803D01*
X0098547Y0085554D02*
X0101550Y0085554D01*
X0100049Y0085554D02*
X0100049Y0081050D01*
X0101798Y0072054D02*
X0101047Y0071303D01*
X0101047Y0068301D01*
X0101798Y0067550D01*
X0103299Y0067550D01*
X0104050Y0068301D01*
X0104050Y0071303D01*
X0103299Y0072054D01*
X0101798Y0072054D01*
X0099446Y0070553D02*
X0097945Y0072054D01*
X0097945Y0067550D01*
X0099446Y0067550D02*
X0096444Y0067550D01*
X0101047Y0067550D02*
X0102549Y0069051D01*
X0090599Y0041599D02*
X0090599Y0031898D01*
X0073001Y0031898D02*
X0073001Y0041599D01*
X0153550Y0085050D02*
X0153550Y0086551D01*
X0153550Y0085801D02*
X0158054Y0085801D01*
X0158054Y0086551D02*
X0158054Y0085050D01*
X0157303Y0088119D02*
X0154301Y0088119D01*
X0153550Y0088870D01*
X0153550Y0090371D01*
X0154301Y0091122D01*
X0154301Y0092723D02*
X0153550Y0093474D01*
X0153550Y0094975D01*
X0154301Y0095726D01*
X0155051Y0095726D01*
X0155802Y0094975D01*
X0155802Y0094224D01*
X0155802Y0094975D02*
X0156553Y0095726D01*
X0157303Y0095726D01*
X0158054Y0094975D01*
X0158054Y0093474D01*
X0157303Y0092723D01*
X0157303Y0091122D02*
X0158054Y0090371D01*
X0158054Y0088870D01*
X0157303Y0088119D01*
D15*
X0091600Y0054104D02*
X0090065Y0054104D01*
X0090833Y0054104D02*
X0090833Y0049500D01*
X0091600Y0049500D02*
X0090065Y0049500D01*
X0088531Y0050267D02*
X0087763Y0049500D01*
X0086229Y0049500D01*
X0085461Y0050267D01*
X0083927Y0050267D02*
X0083159Y0049500D01*
X0081625Y0049500D01*
X0080858Y0050267D01*
X0080858Y0051802D01*
X0081625Y0052569D01*
X0082392Y0052569D01*
X0083927Y0051802D01*
X0083927Y0054104D01*
X0080858Y0054104D01*
X0085461Y0053337D02*
X0086229Y0054104D01*
X0087763Y0054104D01*
X0088531Y0053337D01*
X0088531Y0050267D01*
D16*
X0081271Y0071365D02*
X0081273Y0071414D01*
X0081279Y0071462D01*
X0081289Y0071510D01*
X0081303Y0071557D01*
X0081320Y0071603D01*
X0081341Y0071647D01*
X0081366Y0071689D01*
X0081394Y0071729D01*
X0081426Y0071767D01*
X0081460Y0071802D01*
X0081497Y0071834D01*
X0081536Y0071863D01*
X0081578Y0071889D01*
X0081622Y0071911D01*
X0081667Y0071929D01*
X0081714Y0071944D01*
X0081761Y0071955D01*
X0081810Y0071962D01*
X0081859Y0071965D01*
X0081908Y0071964D01*
X0081956Y0071959D01*
X0082005Y0071950D01*
X0082052Y0071937D01*
X0082098Y0071920D01*
X0082142Y0071900D01*
X0082185Y0071876D01*
X0082226Y0071849D01*
X0082264Y0071818D01*
X0082300Y0071785D01*
X0082332Y0071749D01*
X0082362Y0071710D01*
X0082389Y0071669D01*
X0082412Y0071625D01*
X0082431Y0071580D01*
X0082447Y0071534D01*
X0082459Y0071487D01*
X0082467Y0071438D01*
X0082471Y0071389D01*
X0082471Y0071341D01*
X0082467Y0071292D01*
X0082459Y0071243D01*
X0082447Y0071196D01*
X0082431Y0071150D01*
X0082412Y0071105D01*
X0082389Y0071061D01*
X0082362Y0071020D01*
X0082332Y0070981D01*
X0082300Y0070945D01*
X0082264Y0070912D01*
X0082226Y0070881D01*
X0082185Y0070854D01*
X0082142Y0070830D01*
X0082098Y0070810D01*
X0082052Y0070793D01*
X0082005Y0070780D01*
X0081956Y0070771D01*
X0081908Y0070766D01*
X0081859Y0070765D01*
X0081810Y0070768D01*
X0081761Y0070775D01*
X0081714Y0070786D01*
X0081667Y0070801D01*
X0081622Y0070819D01*
X0081578Y0070841D01*
X0081536Y0070867D01*
X0081497Y0070896D01*
X0081460Y0070928D01*
X0081426Y0070963D01*
X0081394Y0071001D01*
X0081366Y0071041D01*
X0081341Y0071083D01*
X0081320Y0071127D01*
X0081303Y0071173D01*
X0081289Y0071220D01*
X0081279Y0071268D01*
X0081273Y0071316D01*
X0081271Y0071365D01*
X0080812Y0073273D02*
X0082788Y0073273D01*
X0101315Y0091800D01*
X0081800Y0111315D01*
X0062285Y0091800D01*
X0080812Y0073273D01*
D17*
X0087790Y0069437D02*
X0088852Y0068376D01*
X0089206Y0068729D02*
X0088498Y0068022D01*
X0088498Y0069437D02*
X0087790Y0069437D01*
X0088478Y0070125D02*
X0089363Y0069240D01*
X0089717Y0069240D01*
X0090071Y0069594D01*
X0090071Y0069948D01*
X0089186Y0070833D01*
M02*
