G75*
%MOIN*%
%OFA0B0*%
%FSLAX25Y25*%
%IPPOS*%
%LPD*%
%AMOC8*
5,1,8,0,0,1.08239X$1,22.5*
%
%ADD10C,0.00000*%
%ADD11OC8,0.08500*%
%ADD12R,0.06299X0.10236*%
%ADD13R,0.10236X0.06299*%
%ADD14R,0.11417X0.05906*%
%ADD15R,0.07087X0.05512*%
%ADD16R,0.08661X0.02362*%
%ADD17C,0.05200*%
%ADD18OC8,0.06000*%
%ADD19R,0.03937X0.04331*%
%ADD20OC8,0.05600*%
%ADD21R,0.06299X0.08661*%
%ADD22R,0.04331X0.03937*%
%ADD23R,0.05512X0.07087*%
%ADD24R,0.07874X0.09843*%
%ADD25R,0.07874X0.12992*%
%ADD26R,0.01969X0.12205*%
%ADD27C,0.00800*%
%ADD28C,0.02400*%
%ADD29C,0.01600*%
D10*
X0001800Y0001800D02*
X0001800Y0196800D01*
X0161800Y0196800D01*
X0161800Y0001800D01*
X0001800Y0001800D01*
D11*
X0071800Y0016800D03*
X0091800Y0016800D03*
X0111800Y0016800D03*
X0141800Y0016800D03*
D12*
X0141800Y0029713D03*
X0141800Y0043887D03*
X0111800Y0043887D03*
X0111800Y0029713D03*
X0081800Y0029713D03*
X0081800Y0043887D03*
D13*
X0078887Y0071800D03*
X0064713Y0071800D03*
X0064713Y0101800D03*
X0078887Y0101800D03*
D14*
X0126800Y0100894D03*
X0126800Y0112706D03*
D15*
X0146800Y0113493D03*
X0146800Y0100107D03*
D16*
X0137036Y0089300D03*
X0137036Y0084300D03*
X0137036Y0079300D03*
X0137036Y0074300D03*
X0116564Y0074300D03*
X0116564Y0079300D03*
X0116564Y0084300D03*
X0116564Y0089300D03*
D17*
X0101800Y0119200D02*
X0101800Y0124400D01*
X0091800Y0124400D02*
X0091800Y0119200D01*
X0081800Y0119200D02*
X0081800Y0124400D01*
X0071800Y0124400D02*
X0071800Y0119200D01*
X0061800Y0119200D02*
X0061800Y0124400D01*
X0051800Y0124400D02*
X0051800Y0119200D01*
X0041800Y0119200D02*
X0041800Y0124400D01*
X0031800Y0124400D02*
X0031800Y0119200D01*
X0021800Y0119200D02*
X0021800Y0124400D01*
X0021800Y0149200D02*
X0021800Y0154400D01*
X0031800Y0154400D02*
X0031800Y0149200D01*
X0041800Y0149200D02*
X0041800Y0154400D01*
X0051800Y0154400D02*
X0051800Y0149200D01*
X0061800Y0149200D02*
X0061800Y0154400D01*
X0071800Y0154400D02*
X0071800Y0149200D01*
X0081800Y0149200D02*
X0081800Y0154400D01*
X0091800Y0154400D02*
X0091800Y0149200D01*
X0101800Y0149200D02*
X0101800Y0154400D01*
D18*
X0136800Y0171800D03*
X0136800Y0181800D03*
X0146800Y0181800D03*
X0146800Y0171800D03*
D19*
X0100146Y0071800D03*
X0093454Y0071800D03*
X0098454Y0056800D03*
X0105146Y0056800D03*
X0113454Y0056800D03*
X0120146Y0056800D03*
X0133454Y0056800D03*
X0140146Y0056800D03*
X0148454Y0056800D03*
X0155146Y0056800D03*
X0050146Y0081800D03*
X0043454Y0081800D03*
X0043454Y0101800D03*
X0050146Y0101800D03*
X0025146Y0101800D03*
X0018454Y0101800D03*
X0018454Y0081800D03*
X0025146Y0081800D03*
D20*
X0046800Y0171800D03*
X0046800Y0181800D03*
X0056800Y0181800D03*
X0056800Y0171800D03*
X0066800Y0171800D03*
X0066800Y0181800D03*
X0076800Y0181800D03*
X0076800Y0171800D03*
X0086800Y0171800D03*
X0086800Y0181800D03*
X0096800Y0181800D03*
X0096800Y0171800D03*
X0106800Y0171800D03*
X0106800Y0181800D03*
D21*
X0119202Y0136800D03*
X0144398Y0136800D03*
D22*
X0111800Y0110146D03*
X0111800Y0103454D03*
D23*
X0053493Y0061800D03*
X0040107Y0061800D03*
X0028493Y0061800D03*
X0015107Y0061800D03*
D24*
X0019280Y0014989D03*
X0054320Y0014989D03*
D25*
X0054320Y0038217D03*
X0019280Y0038217D03*
D26*
X0030501Y0038611D03*
X0033650Y0038611D03*
X0036800Y0038611D03*
X0039950Y0038611D03*
X0043099Y0038611D03*
D27*
X0037000Y0039000D02*
X0036800Y0038611D01*
X0037000Y0039000D02*
X0037000Y0053800D01*
X0039000Y0055800D01*
X0039000Y0061000D01*
X0039800Y0061800D01*
X0040107Y0061800D01*
X0040200Y0061800D01*
X0041400Y0063000D01*
X0041400Y0067800D01*
X0043800Y0070200D01*
X0043800Y0081800D01*
X0043454Y0081800D01*
X0042200Y0088600D02*
X0047000Y0088600D01*
X0050200Y0091000D02*
X0055800Y0085400D01*
X0055800Y0084600D01*
X0055400Y0084200D01*
X0055400Y0081800D01*
X0056600Y0080600D01*
X0075800Y0080600D01*
X0073800Y0079000D02*
X0074600Y0078200D01*
X0077000Y0078200D01*
X0077800Y0079000D01*
X0079400Y0079000D01*
X0073800Y0079000D02*
X0055800Y0079000D01*
X0053000Y0081800D01*
X0050146Y0081800D01*
X0057800Y0083000D02*
X0089800Y0083000D01*
X0097000Y0090200D01*
X0094600Y0091000D02*
X0094600Y0091400D01*
X0095800Y0092600D01*
X0101000Y0092600D01*
X0104600Y0089000D01*
X0107800Y0083800D02*
X0111400Y0083800D01*
X0111800Y0084200D01*
X0116200Y0084200D01*
X0116564Y0084300D01*
X0116600Y0084200D01*
X0121400Y0084200D01*
X0121800Y0084600D01*
X0123400Y0084600D01*
X0129000Y0079000D01*
X0131800Y0079000D01*
X0132200Y0079400D01*
X0137000Y0079400D01*
X0137036Y0079300D01*
X0137400Y0079400D01*
X0141800Y0079400D01*
X0142200Y0079800D01*
X0143400Y0079800D01*
X0153400Y0089800D01*
X0156600Y0086600D02*
X0152600Y0082600D01*
X0143400Y0090600D02*
X0139800Y0094200D01*
X0137000Y0094200D01*
X0134600Y0096600D01*
X0133000Y0096600D01*
X0127400Y0091000D01*
X0127400Y0089000D01*
X0123800Y0089000D02*
X0128200Y0084600D01*
X0131800Y0084600D01*
X0132200Y0084200D01*
X0137000Y0084200D01*
X0137036Y0084300D01*
X0137036Y0074300D02*
X0137000Y0074200D01*
X0137000Y0064200D01*
X0139800Y0061400D01*
X0139800Y0057000D01*
X0140146Y0056800D01*
X0140200Y0056600D01*
X0140200Y0045800D01*
X0141800Y0044200D01*
X0141800Y0043887D01*
X0140146Y0056800D02*
X0140200Y0057000D01*
X0148200Y0057000D01*
X0148454Y0056800D01*
X0151800Y0053000D02*
X0153000Y0054200D01*
X0153000Y0054600D01*
X0155000Y0056600D01*
X0155146Y0056800D01*
X0141800Y0029713D02*
X0141800Y0016800D01*
X0113400Y0045800D02*
X0113400Y0056600D01*
X0113454Y0056800D01*
X0113400Y0057000D01*
X0105400Y0057000D01*
X0105146Y0056800D01*
X0105400Y0057400D01*
X0105400Y0061400D01*
X0105800Y0061800D01*
X0105800Y0075800D01*
X0109800Y0079800D01*
X0111400Y0079800D01*
X0111800Y0079400D01*
X0116200Y0079400D01*
X0116564Y0079300D01*
X0116200Y0089000D02*
X0115000Y0090200D01*
X0115000Y0091800D01*
X0111800Y0095000D01*
X0111800Y0103400D01*
X0111800Y0103454D01*
X0111800Y0103400D02*
X0107800Y0103400D01*
X0107000Y0104200D01*
X0102200Y0104600D02*
X0107400Y0109800D01*
X0111800Y0109800D01*
X0111800Y0110146D01*
X0108200Y0115800D02*
X0117000Y0115800D01*
X0118600Y0114200D01*
X0125400Y0114200D01*
X0126600Y0113000D01*
X0126800Y0112706D01*
X0127000Y0113000D01*
X0127800Y0113800D01*
X0144600Y0113800D01*
X0146800Y0113493D01*
X0146600Y0113800D01*
X0144600Y0113800D01*
X0144600Y0136600D01*
X0144398Y0136800D01*
X0139400Y0165000D02*
X0133400Y0165000D01*
X0097000Y0128600D01*
X0097000Y0128200D01*
X0097400Y0127800D01*
X0097400Y0127400D01*
X0097800Y0127000D01*
X0097800Y0117800D01*
X0098200Y0117400D01*
X0097400Y0116600D01*
X0097400Y0115800D01*
X0097000Y0115400D01*
X0097000Y0103400D01*
X0088600Y0095000D01*
X0088600Y0088600D01*
X0089800Y0086200D02*
X0094600Y0091000D01*
X0089800Y0086200D02*
X0064200Y0086200D01*
X0056600Y0093800D01*
X0055400Y0093800D01*
X0058600Y0094200D02*
X0055800Y0097000D01*
X0055800Y0099800D01*
X0053800Y0101800D01*
X0050146Y0101800D01*
X0053400Y0107800D02*
X0045400Y0107800D01*
X0043000Y0105400D01*
X0043000Y0102600D01*
X0043454Y0101800D01*
X0043400Y0101800D01*
X0042600Y0102600D01*
X0039000Y0102600D01*
X0033800Y0107800D01*
X0020200Y0107800D01*
X0018600Y0106200D01*
X0018600Y0101800D01*
X0018454Y0101800D01*
X0018200Y0101800D01*
X0018200Y0097400D01*
X0020600Y0097800D02*
X0021800Y0099000D01*
X0021800Y0104600D01*
X0022600Y0105400D01*
X0027400Y0105400D01*
X0041800Y0091000D01*
X0050200Y0091000D01*
X0058600Y0094200D02*
X0075800Y0094200D01*
X0076600Y0095000D01*
X0076600Y0094600D01*
X0085800Y0094600D01*
X0094600Y0103400D01*
X0094600Y0113400D01*
X0090600Y0113400D02*
X0089800Y0112600D01*
X0037000Y0112600D01*
X0031800Y0119000D02*
X0031800Y0121800D01*
X0031800Y0119000D02*
X0023000Y0110200D01*
X0021800Y0110200D01*
X0025146Y0101800D02*
X0025400Y0101800D01*
X0025400Y0081800D01*
X0025146Y0081800D01*
X0025000Y0081800D01*
X0025000Y0077800D01*
X0028600Y0074200D01*
X0028600Y0061800D01*
X0028493Y0061800D01*
X0028600Y0061800D02*
X0029800Y0060600D01*
X0029800Y0055800D01*
X0033800Y0051800D01*
X0033800Y0039000D01*
X0033650Y0038611D01*
X0018600Y0081800D02*
X0018454Y0081800D01*
X0018600Y0081800D02*
X0018600Y0094200D01*
X0020600Y0096200D01*
X0020600Y0097800D01*
X0053400Y0107800D02*
X0057800Y0103400D01*
X0063000Y0103400D01*
X0064600Y0101800D01*
X0064713Y0101800D01*
X0065000Y0101800D01*
X0065000Y0101000D01*
X0069400Y0096600D01*
X0071800Y0121800D02*
X0071800Y0124600D01*
X0064200Y0132200D01*
X0098600Y0108600D02*
X0098600Y0105800D01*
X0099800Y0104600D01*
X0102200Y0104600D01*
X0101000Y0107000D02*
X0101000Y0108600D01*
X0108200Y0115800D01*
X0107800Y0117400D02*
X0117400Y0127000D01*
X0117400Y0135000D01*
X0119000Y0136600D01*
X0119202Y0136800D01*
X0107800Y0117400D02*
X0107400Y0117400D01*
X0098600Y0108600D01*
X0116600Y0089400D02*
X0116564Y0089300D01*
X0116200Y0089000D01*
X0116600Y0089400D02*
X0121400Y0089400D01*
X0121800Y0089000D01*
X0123800Y0089000D01*
X0107800Y0083800D02*
X0100200Y0076200D01*
X0100200Y0071800D01*
X0100146Y0071800D01*
X0093800Y0071800D02*
X0093800Y0061800D01*
X0083000Y0051000D01*
X0083000Y0045400D01*
X0081800Y0044200D01*
X0081800Y0043887D01*
X0098600Y0045400D02*
X0098600Y0056600D01*
X0098454Y0056800D01*
X0093800Y0071800D02*
X0093454Y0071800D01*
X0113400Y0045800D02*
X0111800Y0044200D01*
X0111800Y0043887D01*
X0111800Y0029713D02*
X0111800Y0016800D01*
X0139400Y0165000D02*
X0146200Y0171800D01*
X0146800Y0171800D01*
D28*
X0146800Y0161800D03*
X0156800Y0186800D03*
X0126800Y0141800D03*
X0111800Y0131800D03*
X0101800Y0141800D03*
X0086800Y0136800D03*
X0090600Y0113400D03*
X0094600Y0113400D03*
X0101000Y0107000D03*
X0107000Y0104200D03*
X0106800Y0096800D03*
X0104600Y0089000D03*
X0097000Y0090200D03*
X0088600Y0088600D03*
X0084300Y0079300D03*
X0079400Y0079000D03*
X0075800Y0080600D03*
X0076600Y0095000D03*
X0069400Y0096600D03*
X0057800Y0083000D03*
X0055400Y0093800D03*
X0047000Y0088600D03*
X0042200Y0088600D03*
X0051800Y0071800D03*
X0069300Y0041800D03*
X0098600Y0045400D03*
X0109300Y0071800D03*
X0124300Y0064300D03*
X0126800Y0071800D03*
X0127400Y0089000D03*
X0133800Y0093800D03*
X0143400Y0090600D03*
X0153400Y0089800D03*
X0156600Y0086600D03*
X0152600Y0082600D03*
X0146800Y0066800D03*
X0151800Y0053000D03*
X0126800Y0039300D03*
X0126800Y0039300D03*
X0086800Y0101800D03*
X0064200Y0132200D03*
X0055300Y0109800D03*
X0037000Y0112600D03*
X0021800Y0110200D03*
X0018200Y0097400D03*
X0006800Y0081800D03*
X0011800Y0016800D03*
X0121800Y0186800D03*
D29*
X0132000Y0183788D02*
X0132000Y0182000D01*
X0136600Y0182000D01*
X0136600Y0186600D01*
X0134812Y0186600D01*
X0132000Y0183788D01*
X0132242Y0184030D02*
X0110792Y0184030D01*
X0111200Y0183623D02*
X0108623Y0186200D01*
X0104977Y0186200D01*
X0102400Y0183623D01*
X0102400Y0179977D01*
X0104977Y0177400D01*
X0108623Y0177400D01*
X0111200Y0179977D01*
X0111200Y0183623D01*
X0111200Y0182432D02*
X0132000Y0182432D01*
X0132000Y0181600D02*
X0132000Y0179812D01*
X0134812Y0177000D01*
X0136600Y0177000D01*
X0136600Y0181600D01*
X0137000Y0181600D01*
X0137000Y0182000D01*
X0141600Y0182000D01*
X0141600Y0183788D01*
X0138788Y0186600D01*
X0137000Y0186600D01*
X0137000Y0182000D01*
X0136600Y0182000D01*
X0136600Y0181600D01*
X0132000Y0181600D01*
X0132000Y0180833D02*
X0111200Y0180833D01*
X0110457Y0179235D02*
X0132577Y0179235D01*
X0134176Y0177636D02*
X0108859Y0177636D01*
X0108623Y0176200D02*
X0104977Y0176200D01*
X0102400Y0173623D01*
X0102400Y0169977D01*
X0104977Y0167400D01*
X0108623Y0167400D01*
X0111200Y0169977D01*
X0111200Y0173623D01*
X0108623Y0176200D01*
X0108785Y0176038D02*
X0134532Y0176038D01*
X0134895Y0176400D02*
X0132200Y0173705D01*
X0132200Y0169895D01*
X0134895Y0167200D01*
X0138705Y0167200D01*
X0141400Y0169895D01*
X0141400Y0173705D01*
X0138705Y0176400D01*
X0134895Y0176400D01*
X0136600Y0177636D02*
X0137000Y0177636D01*
X0137000Y0177000D02*
X0138788Y0177000D01*
X0141600Y0179812D01*
X0141600Y0181600D01*
X0137000Y0181600D01*
X0137000Y0177000D01*
X0137000Y0179235D02*
X0136600Y0179235D01*
X0136600Y0180833D02*
X0137000Y0180833D01*
X0137000Y0182432D02*
X0136600Y0182432D01*
X0136600Y0184030D02*
X0137000Y0184030D01*
X0137000Y0185629D02*
X0136600Y0185629D01*
X0133841Y0185629D02*
X0109194Y0185629D01*
X0104406Y0185629D02*
X0099194Y0185629D01*
X0098623Y0186200D02*
X0094977Y0186200D01*
X0092400Y0183623D01*
X0092400Y0179977D01*
X0094977Y0177400D01*
X0098623Y0177400D01*
X0101200Y0179977D01*
X0101200Y0183623D01*
X0098623Y0186200D01*
X0100792Y0184030D02*
X0102808Y0184030D01*
X0102400Y0182432D02*
X0101200Y0182432D01*
X0101200Y0180833D02*
X0102400Y0180833D01*
X0103143Y0179235D02*
X0100457Y0179235D01*
X0098859Y0177636D02*
X0104741Y0177636D01*
X0104815Y0176038D02*
X0098785Y0176038D01*
X0098623Y0176200D02*
X0094977Y0176200D01*
X0092400Y0173623D01*
X0092400Y0169977D01*
X0094977Y0167400D01*
X0098623Y0167400D01*
X0101200Y0169977D01*
X0101200Y0173623D01*
X0098623Y0176200D01*
X0100383Y0174439D02*
X0103217Y0174439D01*
X0102400Y0172841D02*
X0101200Y0172841D01*
X0101200Y0171242D02*
X0102400Y0171242D01*
X0102734Y0169644D02*
X0100866Y0169644D01*
X0099268Y0168045D02*
X0104332Y0168045D01*
X0109268Y0168045D02*
X0134049Y0168045D01*
X0132572Y0167000D02*
X0131400Y0165828D01*
X0095000Y0129428D01*
X0095000Y0127372D01*
X0095400Y0126972D01*
X0095400Y0126684D01*
X0095361Y0126779D01*
X0094179Y0127961D01*
X0092635Y0128600D01*
X0090965Y0128600D01*
X0089421Y0127961D01*
X0088239Y0126779D01*
X0087600Y0125235D01*
X0087600Y0118365D01*
X0088239Y0116821D01*
X0089207Y0115854D01*
X0089014Y0115774D01*
X0088226Y0114986D01*
X0088066Y0114600D01*
X0038960Y0114600D01*
X0038586Y0114974D01*
X0037557Y0115400D01*
X0036443Y0115400D01*
X0035414Y0114974D01*
X0034626Y0114186D01*
X0034200Y0113157D01*
X0034200Y0112043D01*
X0034626Y0111014D01*
X0035414Y0110226D01*
X0036443Y0109800D01*
X0037557Y0109800D01*
X0038586Y0110226D01*
X0038960Y0110600D01*
X0091157Y0110600D01*
X0092186Y0111026D01*
X0092600Y0111440D01*
X0092600Y0104228D01*
X0084972Y0096600D01*
X0078960Y0096600D01*
X0078186Y0097374D01*
X0078112Y0097404D01*
X0078112Y0101025D01*
X0079661Y0101025D01*
X0079661Y0096850D01*
X0084242Y0096850D01*
X0084699Y0096973D01*
X0085110Y0097210D01*
X0085445Y0097545D01*
X0085682Y0097956D01*
X0085805Y0098413D01*
X0085805Y0101025D01*
X0079661Y0101025D01*
X0079661Y0102575D01*
X0078112Y0102575D01*
X0078112Y0106750D01*
X0073532Y0106750D01*
X0073074Y0106627D01*
X0072663Y0106390D01*
X0072328Y0106055D01*
X0072091Y0105644D01*
X0071969Y0105187D01*
X0071969Y0102575D01*
X0078112Y0102575D01*
X0078112Y0101025D01*
X0071969Y0101025D01*
X0071969Y0098413D01*
X0072091Y0097956D01*
X0072328Y0097545D01*
X0072663Y0097210D01*
X0073074Y0096973D01*
X0073532Y0096850D01*
X0074491Y0096850D01*
X0074226Y0096586D01*
X0074066Y0096200D01*
X0072200Y0096200D01*
X0072200Y0097157D01*
X0071774Y0098186D01*
X0071431Y0098528D01*
X0071431Y0105612D01*
X0070494Y0106550D01*
X0058933Y0106550D01*
X0058206Y0105823D01*
X0054228Y0109800D01*
X0044572Y0109800D01*
X0043400Y0108628D01*
X0041000Y0106228D01*
X0041000Y0105565D01*
X0040822Y0105565D01*
X0039885Y0104628D01*
X0039885Y0104600D01*
X0039828Y0104600D01*
X0034628Y0109800D01*
X0025428Y0109800D01*
X0030727Y0115098D01*
X0030965Y0115000D01*
X0032635Y0115000D01*
X0034179Y0115639D01*
X0035361Y0116821D01*
X0036000Y0118365D01*
X0036000Y0125235D01*
X0035361Y0126779D01*
X0034179Y0127961D01*
X0032635Y0128600D01*
X0030965Y0128600D01*
X0029421Y0127961D01*
X0028239Y0126779D01*
X0027600Y0125235D01*
X0027600Y0118365D01*
X0027816Y0117844D01*
X0022792Y0112820D01*
X0022357Y0113000D01*
X0021243Y0113000D01*
X0020214Y0112574D01*
X0019426Y0111786D01*
X0019000Y0110757D01*
X0019000Y0109643D01*
X0019063Y0109491D01*
X0018200Y0108628D01*
X0016600Y0107028D01*
X0016600Y0105565D01*
X0015822Y0105565D01*
X0014885Y0104628D01*
X0014885Y0098972D01*
X0015546Y0098310D01*
X0015400Y0097957D01*
X0015400Y0096843D01*
X0015826Y0095814D01*
X0016606Y0095034D01*
X0016600Y0095028D01*
X0016600Y0085565D01*
X0015822Y0085565D01*
X0014885Y0084628D01*
X0014885Y0078972D01*
X0015822Y0078035D01*
X0021085Y0078035D01*
X0021800Y0078750D01*
X0022515Y0078035D01*
X0023000Y0078035D01*
X0023000Y0076972D01*
X0024172Y0075800D01*
X0026600Y0073372D01*
X0026600Y0066943D01*
X0025074Y0066943D01*
X0024137Y0066006D01*
X0024137Y0057594D01*
X0025074Y0056657D01*
X0027800Y0056657D01*
X0027800Y0054972D01*
X0028972Y0053800D01*
X0031800Y0050972D01*
X0031800Y0046313D01*
X0028854Y0046313D01*
X0027917Y0045376D01*
X0027917Y0031846D01*
X0028854Y0030909D01*
X0041286Y0030909D01*
X0041420Y0030831D01*
X0041878Y0030709D01*
X0043099Y0030709D01*
X0043099Y0038611D01*
X0043099Y0038611D01*
X0043099Y0046513D01*
X0041878Y0046513D01*
X0041420Y0046391D01*
X0041286Y0046313D01*
X0039000Y0046313D01*
X0039000Y0052972D01*
X0039828Y0053800D01*
X0041000Y0054972D01*
X0041000Y0056657D01*
X0043526Y0056657D01*
X0044463Y0057594D01*
X0044463Y0066006D01*
X0043526Y0066943D01*
X0043400Y0066943D01*
X0043400Y0066972D01*
X0045800Y0069372D01*
X0045800Y0078035D01*
X0046085Y0078035D01*
X0046800Y0078750D01*
X0047515Y0078035D01*
X0052778Y0078035D01*
X0053357Y0078614D01*
X0053800Y0078172D01*
X0054972Y0077000D01*
X0072972Y0077000D01*
X0073287Y0076684D01*
X0073074Y0076627D01*
X0072663Y0076390D01*
X0072328Y0076055D01*
X0072091Y0075644D01*
X0071969Y0075187D01*
X0071969Y0072575D01*
X0078112Y0072575D01*
X0078112Y0071025D01*
X0079661Y0071025D01*
X0079661Y0066850D01*
X0084242Y0066850D01*
X0084699Y0066973D01*
X0085110Y0067210D01*
X0085445Y0067545D01*
X0085682Y0067956D01*
X0085805Y0068413D01*
X0085805Y0071025D01*
X0079661Y0071025D01*
X0079661Y0072575D01*
X0085805Y0072575D01*
X0085805Y0075187D01*
X0085682Y0075644D01*
X0085445Y0076055D01*
X0085110Y0076390D01*
X0084699Y0076627D01*
X0084242Y0076750D01*
X0081109Y0076750D01*
X0081774Y0077414D01*
X0082200Y0078443D01*
X0082200Y0079557D01*
X0081774Y0080586D01*
X0081360Y0081000D01*
X0090628Y0081000D01*
X0091800Y0082172D01*
X0097028Y0087400D01*
X0097557Y0087400D01*
X0098586Y0087826D01*
X0099374Y0088614D01*
X0099800Y0089643D01*
X0099800Y0090600D01*
X0100172Y0090600D01*
X0101800Y0088972D01*
X0101800Y0088443D01*
X0102226Y0087414D01*
X0103014Y0086626D01*
X0104043Y0086200D01*
X0105157Y0086200D01*
X0106186Y0086626D01*
X0106974Y0087414D01*
X0107400Y0088443D01*
X0107400Y0089557D01*
X0106974Y0090586D01*
X0106186Y0091374D01*
X0105157Y0091800D01*
X0104628Y0091800D01*
X0101828Y0094600D01*
X0094972Y0094600D01*
X0093800Y0093428D01*
X0092600Y0092228D01*
X0092600Y0091828D01*
X0090966Y0090194D01*
X0090600Y0090560D01*
X0090600Y0094172D01*
X0099000Y0102572D01*
X0099000Y0102600D01*
X0103028Y0102600D01*
X0104200Y0103772D01*
X0104200Y0103643D01*
X0104626Y0102614D01*
X0105414Y0101826D01*
X0106443Y0101400D01*
X0108035Y0101400D01*
X0108035Y0100822D01*
X0108972Y0099885D01*
X0109800Y0099885D01*
X0109800Y0094172D01*
X0111890Y0092081D01*
X0111570Y0092081D01*
X0110633Y0091144D01*
X0110633Y0087456D01*
X0111289Y0086800D01*
X0110633Y0086144D01*
X0110633Y0085861D01*
X0110572Y0085800D01*
X0106972Y0085800D01*
X0105800Y0084628D01*
X0098200Y0077028D01*
X0098200Y0075565D01*
X0097515Y0075565D01*
X0096800Y0074850D01*
X0096085Y0075565D01*
X0090822Y0075565D01*
X0089885Y0074628D01*
X0089885Y0068972D01*
X0090822Y0068035D01*
X0091800Y0068035D01*
X0091800Y0062628D01*
X0082172Y0053000D01*
X0081000Y0051828D01*
X0081000Y0050605D01*
X0077988Y0050605D01*
X0077050Y0049667D01*
X0077050Y0038106D01*
X0077988Y0037169D01*
X0085612Y0037169D01*
X0086550Y0038106D01*
X0086550Y0049667D01*
X0085612Y0050605D01*
X0085433Y0050605D01*
X0095800Y0060972D01*
X0095800Y0068035D01*
X0096085Y0068035D01*
X0096800Y0068750D01*
X0097515Y0068035D01*
X0102778Y0068035D01*
X0103715Y0068972D01*
X0103715Y0074628D01*
X0102778Y0075565D01*
X0102394Y0075565D01*
X0108628Y0081800D01*
X0111289Y0081800D01*
X0108972Y0081800D01*
X0104972Y0077800D01*
X0103800Y0076628D01*
X0103800Y0062628D01*
X0103400Y0062228D01*
X0103400Y0060565D01*
X0102515Y0060565D01*
X0101800Y0059850D01*
X0101085Y0060565D01*
X0095822Y0060565D01*
X0094885Y0059628D01*
X0094885Y0053972D01*
X0095822Y0053035D01*
X0096600Y0053035D01*
X0096600Y0047360D01*
X0096226Y0046986D01*
X0095800Y0045957D01*
X0095800Y0044843D01*
X0096226Y0043814D01*
X0097014Y0043026D01*
X0098043Y0042600D01*
X0099157Y0042600D01*
X0100186Y0043026D01*
X0100974Y0043814D01*
X0101400Y0044843D01*
X0101400Y0045957D01*
X0100974Y0046986D01*
X0100600Y0047360D01*
X0100600Y0053035D01*
X0101085Y0053035D01*
X0101800Y0053750D01*
X0102515Y0053035D01*
X0107778Y0053035D01*
X0108715Y0053972D01*
X0108715Y0055000D01*
X0109885Y0055000D01*
X0109885Y0053972D01*
X0110822Y0053035D01*
X0111400Y0053035D01*
X0111400Y0050605D01*
X0107988Y0050605D01*
X0107050Y0049667D01*
X0107050Y0038106D01*
X0107988Y0037169D01*
X0115612Y0037169D01*
X0116550Y0038106D01*
X0116550Y0049667D01*
X0115612Y0050605D01*
X0115400Y0050605D01*
X0115400Y0053035D01*
X0116085Y0053035D01*
X0116680Y0053630D01*
X0116738Y0053529D01*
X0117073Y0053194D01*
X0117483Y0052957D01*
X0117941Y0052835D01*
X0119962Y0052835D01*
X0119962Y0056616D01*
X0120331Y0056616D01*
X0120331Y0056984D01*
X0123915Y0056984D01*
X0123915Y0059202D01*
X0123792Y0059660D01*
X0123555Y0060071D01*
X0123220Y0060406D01*
X0122810Y0060643D01*
X0122352Y0060765D01*
X0120331Y0060765D01*
X0120331Y0056984D01*
X0119962Y0056984D01*
X0119962Y0060765D01*
X0117941Y0060765D01*
X0117483Y0060643D01*
X0117073Y0060406D01*
X0116738Y0060071D01*
X0116680Y0059970D01*
X0116085Y0060565D01*
X0110822Y0060565D01*
X0109885Y0059628D01*
X0109885Y0059000D01*
X0108715Y0059000D01*
X0108715Y0059628D01*
X0107778Y0060565D01*
X0107400Y0060565D01*
X0107400Y0060572D01*
X0107800Y0060972D01*
X0107800Y0074972D01*
X0110600Y0077772D01*
X0110633Y0077738D01*
X0110633Y0077456D01*
X0111153Y0076936D01*
X0111128Y0076921D01*
X0110793Y0076586D01*
X0110556Y0076176D01*
X0110433Y0075718D01*
X0110433Y0074300D01*
X0116564Y0074300D01*
X0122694Y0074300D01*
X0122694Y0075718D01*
X0122572Y0076176D01*
X0122335Y0076586D01*
X0122000Y0076921D01*
X0121974Y0076936D01*
X0122494Y0077456D01*
X0122494Y0081144D01*
X0121838Y0081800D01*
X0122494Y0082456D01*
X0122494Y0082466D01*
X0122600Y0082572D01*
X0128172Y0077000D01*
X0131562Y0077000D01*
X0131762Y0076800D01*
X0131106Y0076144D01*
X0131106Y0072456D01*
X0132043Y0071519D01*
X0135000Y0071519D01*
X0135000Y0063372D01*
X0137800Y0060572D01*
X0137800Y0060565D01*
X0137515Y0060565D01*
X0136920Y0059970D01*
X0136862Y0060071D01*
X0136527Y0060406D01*
X0136117Y0060643D01*
X0135659Y0060765D01*
X0133638Y0060765D01*
X0133638Y0056984D01*
X0133269Y0056984D01*
X0133269Y0056616D01*
X0129685Y0056616D01*
X0129685Y0054398D01*
X0129808Y0053940D01*
X0130045Y0053529D01*
X0130380Y0053194D01*
X0130790Y0052957D01*
X0131248Y0052835D01*
X0133269Y0052835D01*
X0133269Y0056616D01*
X0133638Y0056616D01*
X0133638Y0052835D01*
X0135659Y0052835D01*
X0136117Y0052957D01*
X0136527Y0053194D01*
X0136862Y0053529D01*
X0136920Y0053630D01*
X0137515Y0053035D01*
X0138200Y0053035D01*
X0138200Y0050605D01*
X0137988Y0050605D01*
X0137050Y0049667D01*
X0137050Y0038106D01*
X0137988Y0037169D01*
X0145612Y0037169D01*
X0146550Y0038106D01*
X0146550Y0049667D01*
X0145612Y0050605D01*
X0142200Y0050605D01*
X0142200Y0053035D01*
X0142778Y0053035D01*
X0143715Y0053972D01*
X0143715Y0055000D01*
X0144885Y0055000D01*
X0144885Y0053972D01*
X0145822Y0053035D01*
X0149000Y0053035D01*
X0149000Y0052443D01*
X0149426Y0051414D01*
X0150214Y0050626D01*
X0151243Y0050200D01*
X0152357Y0050200D01*
X0153386Y0050626D01*
X0154174Y0051414D01*
X0154600Y0052443D01*
X0154600Y0052972D01*
X0154663Y0053035D01*
X0157778Y0053035D01*
X0158715Y0053972D01*
X0158715Y0059628D01*
X0157778Y0060565D01*
X0152515Y0060565D01*
X0151800Y0059850D01*
X0151085Y0060565D01*
X0145822Y0060565D01*
X0144885Y0059628D01*
X0144885Y0059000D01*
X0143715Y0059000D01*
X0143715Y0059628D01*
X0142778Y0060565D01*
X0141800Y0060565D01*
X0141800Y0062228D01*
X0140628Y0063400D01*
X0139000Y0065028D01*
X0139000Y0071519D01*
X0142030Y0071519D01*
X0142967Y0072456D01*
X0142967Y0076144D01*
X0142311Y0076800D01*
X0142967Y0077456D01*
X0142967Y0077738D01*
X0143028Y0077800D01*
X0144228Y0077800D01*
X0145400Y0078972D01*
X0149952Y0083523D01*
X0149800Y0083157D01*
X0149800Y0082043D01*
X0150226Y0081014D01*
X0151014Y0080226D01*
X0152043Y0079800D01*
X0153157Y0079800D01*
X0154186Y0080226D01*
X0154974Y0081014D01*
X0155400Y0082043D01*
X0155400Y0082572D01*
X0156628Y0083800D01*
X0157157Y0083800D01*
X0158186Y0084226D01*
X0158974Y0085014D01*
X0159400Y0086043D01*
X0159400Y0087157D01*
X0158974Y0088186D01*
X0158186Y0088974D01*
X0157157Y0089400D01*
X0156200Y0089400D01*
X0156200Y0090357D01*
X0155774Y0091386D01*
X0154986Y0092174D01*
X0153957Y0092600D01*
X0152843Y0092600D01*
X0151814Y0092174D01*
X0151026Y0091386D01*
X0150600Y0090357D01*
X0150600Y0089828D01*
X0142572Y0081800D01*
X0142311Y0081800D01*
X0142311Y0081800D01*
X0142967Y0082456D01*
X0142967Y0086144D01*
X0142311Y0086800D01*
X0142967Y0087456D01*
X0142967Y0087800D01*
X0143957Y0087800D01*
X0144986Y0088226D01*
X0145774Y0089014D01*
X0146200Y0090043D01*
X0146200Y0091157D01*
X0145774Y0092186D01*
X0144986Y0092974D01*
X0143957Y0093400D01*
X0143428Y0093400D01*
X0140628Y0096200D01*
X0137828Y0096200D01*
X0135428Y0098600D01*
X0134309Y0098600D01*
X0134309Y0100218D01*
X0127476Y0100218D01*
X0127476Y0096142D01*
X0129713Y0096142D01*
X0125400Y0091828D01*
X0125400Y0090960D01*
X0125034Y0090594D01*
X0124628Y0091000D01*
X0122628Y0091000D01*
X0122494Y0091134D01*
X0122494Y0091144D01*
X0121557Y0092081D01*
X0117000Y0092081D01*
X0117000Y0092628D01*
X0115828Y0093800D01*
X0113800Y0095828D01*
X0113800Y0099885D01*
X0114628Y0099885D01*
X0115565Y0100822D01*
X0115565Y0106085D01*
X0114850Y0106800D01*
X0115565Y0107515D01*
X0115565Y0112778D01*
X0114628Y0113715D01*
X0108972Y0113715D01*
X0108035Y0112778D01*
X0108035Y0111800D01*
X0107028Y0111800D01*
X0109028Y0113800D01*
X0116172Y0113800D01*
X0116600Y0113372D01*
X0117772Y0112200D01*
X0119491Y0112200D01*
X0119491Y0109090D01*
X0120429Y0108153D01*
X0133171Y0108153D01*
X0134109Y0109090D01*
X0134109Y0111800D01*
X0141657Y0111800D01*
X0141657Y0110074D01*
X0142594Y0109137D01*
X0151006Y0109137D01*
X0151943Y0110074D01*
X0151943Y0116912D01*
X0151006Y0117849D01*
X0146600Y0117849D01*
X0146600Y0130869D01*
X0148211Y0130869D01*
X0149148Y0131807D01*
X0149148Y0141793D01*
X0148211Y0142731D01*
X0140586Y0142731D01*
X0139649Y0141793D01*
X0139649Y0131807D01*
X0140586Y0130869D01*
X0142600Y0130869D01*
X0142600Y0117849D01*
X0142594Y0117849D01*
X0141657Y0116912D01*
X0141657Y0115800D01*
X0134109Y0115800D01*
X0134109Y0116321D01*
X0133171Y0117258D01*
X0120429Y0117258D01*
X0119491Y0116321D01*
X0119491Y0116200D01*
X0119428Y0116200D01*
X0117828Y0117800D01*
X0111028Y0117800D01*
X0118228Y0125000D01*
X0119400Y0126172D01*
X0119400Y0130869D01*
X0123014Y0130869D01*
X0123951Y0131807D01*
X0123951Y0141793D01*
X0123014Y0142731D01*
X0115389Y0142731D01*
X0114452Y0141793D01*
X0114452Y0131807D01*
X0115389Y0130869D01*
X0115400Y0130869D01*
X0115400Y0127828D01*
X0106972Y0119400D01*
X0106572Y0119400D01*
X0106000Y0118828D01*
X0106000Y0125235D01*
X0105361Y0126779D01*
X0104179Y0127961D01*
X0102635Y0128600D01*
X0100965Y0128600D01*
X0099595Y0128033D01*
X0099428Y0128200D01*
X0134228Y0163000D01*
X0140228Y0163000D01*
X0144662Y0167433D01*
X0144895Y0167200D01*
X0148705Y0167200D01*
X0151400Y0169895D01*
X0151400Y0173705D01*
X0148705Y0176400D01*
X0144895Y0176400D01*
X0142200Y0173705D01*
X0142200Y0170628D01*
X0138572Y0167000D01*
X0132572Y0167000D01*
X0132018Y0166447D02*
X0003600Y0166447D01*
X0003600Y0168045D02*
X0044332Y0168045D01*
X0044977Y0167400D02*
X0048623Y0167400D01*
X0051200Y0169977D01*
X0051200Y0173623D01*
X0048623Y0176200D01*
X0044977Y0176200D01*
X0042400Y0173623D01*
X0042400Y0169977D01*
X0044977Y0167400D01*
X0042734Y0169644D02*
X0003600Y0169644D01*
X0003600Y0171242D02*
X0042400Y0171242D01*
X0042400Y0172841D02*
X0003600Y0172841D01*
X0003600Y0174439D02*
X0043217Y0174439D01*
X0044815Y0176038D02*
X0003600Y0176038D01*
X0003600Y0177636D02*
X0044741Y0177636D01*
X0044977Y0177400D02*
X0048623Y0177400D01*
X0051200Y0179977D01*
X0051200Y0183623D01*
X0048623Y0186200D01*
X0044977Y0186200D01*
X0042400Y0183623D01*
X0042400Y0179977D01*
X0044977Y0177400D01*
X0043143Y0179235D02*
X0003600Y0179235D01*
X0003600Y0180833D02*
X0042400Y0180833D01*
X0042400Y0182432D02*
X0003600Y0182432D01*
X0003600Y0184030D02*
X0042808Y0184030D01*
X0044406Y0185629D02*
X0003600Y0185629D01*
X0003600Y0187227D02*
X0160000Y0187227D01*
X0160000Y0185629D02*
X0149477Y0185629D01*
X0148705Y0186400D02*
X0144895Y0186400D01*
X0142200Y0183705D01*
X0142200Y0179895D01*
X0144895Y0177200D01*
X0148705Y0177200D01*
X0151400Y0179895D01*
X0151400Y0183705D01*
X0148705Y0186400D01*
X0151075Y0184030D02*
X0160000Y0184030D01*
X0160000Y0182432D02*
X0151400Y0182432D01*
X0151400Y0180833D02*
X0160000Y0180833D01*
X0160000Y0179235D02*
X0150740Y0179235D01*
X0149142Y0177636D02*
X0160000Y0177636D01*
X0160000Y0176038D02*
X0149068Y0176038D01*
X0150666Y0174439D02*
X0160000Y0174439D01*
X0160000Y0172841D02*
X0151400Y0172841D01*
X0151400Y0171242D02*
X0160000Y0171242D01*
X0160000Y0169644D02*
X0151149Y0169644D01*
X0149551Y0168045D02*
X0160000Y0168045D01*
X0160000Y0166447D02*
X0143675Y0166447D01*
X0142077Y0164848D02*
X0160000Y0164848D01*
X0160000Y0163250D02*
X0140478Y0163250D01*
X0139617Y0168045D02*
X0139551Y0168045D01*
X0141149Y0169644D02*
X0141215Y0169644D01*
X0141400Y0171242D02*
X0142200Y0171242D01*
X0142200Y0172841D02*
X0141400Y0172841D01*
X0140666Y0174439D02*
X0142934Y0174439D01*
X0144532Y0176038D02*
X0139068Y0176038D01*
X0139424Y0177636D02*
X0144458Y0177636D01*
X0142860Y0179235D02*
X0141023Y0179235D01*
X0141600Y0180833D02*
X0142200Y0180833D01*
X0142200Y0182432D02*
X0141600Y0182432D01*
X0141358Y0184030D02*
X0142525Y0184030D01*
X0144123Y0185629D02*
X0139759Y0185629D01*
X0132934Y0174439D02*
X0110383Y0174439D01*
X0111200Y0172841D02*
X0132200Y0172841D01*
X0132200Y0171242D02*
X0111200Y0171242D01*
X0110866Y0169644D02*
X0132451Y0169644D01*
X0130420Y0164848D02*
X0003600Y0164848D01*
X0003600Y0163250D02*
X0128821Y0163250D01*
X0127223Y0161651D02*
X0003600Y0161651D01*
X0003600Y0160053D02*
X0125624Y0160053D01*
X0124026Y0158454D02*
X0103535Y0158454D01*
X0103489Y0158478D02*
X0102830Y0158692D01*
X0102146Y0158800D01*
X0101800Y0158800D01*
X0101800Y0151800D01*
X0106200Y0151800D01*
X0106200Y0154746D01*
X0106092Y0155430D01*
X0105878Y0156089D01*
X0105563Y0156706D01*
X0105156Y0157266D01*
X0104666Y0157756D01*
X0104106Y0158163D01*
X0103489Y0158478D01*
X0101800Y0158454D02*
X0101800Y0158454D01*
X0101800Y0158800D02*
X0101454Y0158800D01*
X0100770Y0158692D01*
X0100111Y0158478D01*
X0099494Y0158163D01*
X0098934Y0157756D01*
X0098444Y0157266D01*
X0098037Y0156706D01*
X0097722Y0156089D01*
X0097508Y0155430D01*
X0097400Y0154746D01*
X0097400Y0151800D01*
X0101800Y0151800D01*
X0101800Y0151800D01*
X0101800Y0151800D01*
X0106200Y0151800D01*
X0106200Y0148854D01*
X0106092Y0148170D01*
X0105878Y0147511D01*
X0105563Y0146894D01*
X0105156Y0146334D01*
X0104666Y0145844D01*
X0104106Y0145437D01*
X0103489Y0145122D01*
X0102830Y0144908D01*
X0102146Y0144800D01*
X0101800Y0144800D01*
X0101800Y0151800D01*
X0101800Y0151800D01*
X0101800Y0151800D01*
X0101800Y0158800D01*
X0100065Y0158454D02*
X0092988Y0158454D01*
X0092635Y0158600D02*
X0090965Y0158600D01*
X0089421Y0157961D01*
X0088239Y0156779D01*
X0087600Y0155235D01*
X0087600Y0148365D01*
X0088239Y0146821D01*
X0089421Y0145639D01*
X0090965Y0145000D01*
X0092635Y0145000D01*
X0094179Y0145639D01*
X0095361Y0146821D01*
X0096000Y0148365D01*
X0096000Y0155235D01*
X0095361Y0156779D01*
X0094179Y0157961D01*
X0092635Y0158600D01*
X0095284Y0156856D02*
X0098145Y0156856D01*
X0097481Y0155257D02*
X0095991Y0155257D01*
X0096000Y0153659D02*
X0097400Y0153659D01*
X0097400Y0152060D02*
X0096000Y0152060D01*
X0097400Y0151800D02*
X0097400Y0148854D01*
X0097508Y0148170D01*
X0097722Y0147511D01*
X0098037Y0146894D01*
X0098444Y0146334D01*
X0098934Y0145844D01*
X0099494Y0145437D01*
X0100111Y0145122D01*
X0100770Y0144908D01*
X0101454Y0144800D01*
X0101800Y0144800D01*
X0101800Y0151800D01*
X0097400Y0151800D01*
X0097400Y0150462D02*
X0096000Y0150462D01*
X0096000Y0148863D02*
X0097400Y0148863D01*
X0097848Y0147265D02*
X0095544Y0147265D01*
X0094206Y0145666D02*
X0099178Y0145666D01*
X0101800Y0145666D02*
X0101800Y0145666D01*
X0101800Y0147265D02*
X0101800Y0147265D01*
X0101800Y0148863D02*
X0101800Y0148863D01*
X0101800Y0150462D02*
X0101800Y0150462D01*
X0101800Y0152060D02*
X0101800Y0152060D01*
X0101800Y0153659D02*
X0101800Y0153659D01*
X0101800Y0155257D02*
X0101800Y0155257D01*
X0101800Y0156856D02*
X0101800Y0156856D01*
X0105455Y0156856D02*
X0122427Y0156856D01*
X0120829Y0155257D02*
X0106119Y0155257D01*
X0106200Y0153659D02*
X0119230Y0153659D01*
X0117632Y0152060D02*
X0106200Y0152060D01*
X0106200Y0150462D02*
X0116033Y0150462D01*
X0114435Y0148863D02*
X0106200Y0148863D01*
X0105752Y0147265D02*
X0112836Y0147265D01*
X0111238Y0145666D02*
X0104422Y0145666D01*
X0108041Y0142469D02*
X0003600Y0142469D01*
X0003600Y0140870D02*
X0106442Y0140870D01*
X0104844Y0139272D02*
X0003600Y0139272D01*
X0003600Y0137673D02*
X0103245Y0137673D01*
X0101647Y0136075D02*
X0003600Y0136075D01*
X0003600Y0134476D02*
X0062517Y0134476D01*
X0062614Y0134574D02*
X0061826Y0133786D01*
X0061400Y0132757D01*
X0061400Y0131643D01*
X0061826Y0130614D01*
X0062614Y0129826D01*
X0063643Y0129400D01*
X0064172Y0129400D01*
X0067816Y0125756D01*
X0067600Y0125235D01*
X0067600Y0118365D01*
X0068239Y0116821D01*
X0069421Y0115639D01*
X0070965Y0115000D01*
X0072635Y0115000D01*
X0074179Y0115639D01*
X0075361Y0116821D01*
X0076000Y0118365D01*
X0076000Y0125235D01*
X0075361Y0126779D01*
X0074179Y0127961D01*
X0072635Y0128600D01*
X0070965Y0128600D01*
X0070727Y0128502D01*
X0067000Y0132228D01*
X0067000Y0132757D01*
X0066574Y0133786D01*
X0065786Y0134574D01*
X0064757Y0135000D01*
X0063643Y0135000D01*
X0062614Y0134574D01*
X0061450Y0132878D02*
X0003600Y0132878D01*
X0003600Y0131279D02*
X0061551Y0131279D01*
X0062965Y0129681D02*
X0003600Y0129681D01*
X0003600Y0128082D02*
X0019715Y0128082D01*
X0019421Y0127961D02*
X0018239Y0126779D01*
X0017600Y0125235D01*
X0017600Y0118365D01*
X0018239Y0116821D01*
X0019421Y0115639D01*
X0020965Y0115000D01*
X0022635Y0115000D01*
X0024179Y0115639D01*
X0025361Y0116821D01*
X0026000Y0118365D01*
X0026000Y0125235D01*
X0025361Y0126779D01*
X0024179Y0127961D01*
X0022635Y0128600D01*
X0020965Y0128600D01*
X0019421Y0127961D01*
X0018117Y0126484D02*
X0003600Y0126484D01*
X0003600Y0124885D02*
X0017600Y0124885D01*
X0017600Y0123287D02*
X0003600Y0123287D01*
X0003600Y0121688D02*
X0017600Y0121688D01*
X0017600Y0120090D02*
X0003600Y0120090D01*
X0003600Y0118491D02*
X0017600Y0118491D01*
X0018210Y0116893D02*
X0003600Y0116893D01*
X0003600Y0115294D02*
X0020254Y0115294D01*
X0019737Y0112097D02*
X0003600Y0112097D01*
X0003600Y0110499D02*
X0019000Y0110499D01*
X0018472Y0108900D02*
X0003600Y0108900D01*
X0003600Y0107302D02*
X0016873Y0107302D01*
X0016600Y0105703D02*
X0003600Y0105703D01*
X0003600Y0104105D02*
X0014885Y0104105D01*
X0014885Y0102506D02*
X0003600Y0102506D01*
X0003600Y0100908D02*
X0014885Y0100908D01*
X0014885Y0099309D02*
X0003600Y0099309D01*
X0003600Y0097711D02*
X0015400Y0097711D01*
X0015703Y0096112D02*
X0003600Y0096112D01*
X0003600Y0094514D02*
X0016600Y0094514D01*
X0016600Y0092915D02*
X0003600Y0092915D01*
X0003600Y0091317D02*
X0016600Y0091317D01*
X0016600Y0089718D02*
X0003600Y0089718D01*
X0003600Y0088120D02*
X0016600Y0088120D01*
X0016600Y0086521D02*
X0003600Y0086521D01*
X0003600Y0084923D02*
X0015180Y0084923D01*
X0014885Y0083324D02*
X0003600Y0083324D01*
X0003600Y0081726D02*
X0014885Y0081726D01*
X0014885Y0080127D02*
X0003600Y0080127D01*
X0003600Y0078529D02*
X0015328Y0078529D01*
X0020600Y0085565D02*
X0020600Y0093372D01*
X0021428Y0094200D01*
X0022600Y0095372D01*
X0022600Y0096972D01*
X0022628Y0097000D01*
X0023400Y0097772D01*
X0023400Y0085565D01*
X0022515Y0085565D01*
X0021800Y0084850D01*
X0021085Y0085565D01*
X0020600Y0085565D01*
X0020600Y0086521D02*
X0023400Y0086521D01*
X0023400Y0088120D02*
X0020600Y0088120D01*
X0020600Y0089718D02*
X0023400Y0089718D01*
X0023400Y0091317D02*
X0020600Y0091317D01*
X0020600Y0092915D02*
X0023400Y0092915D01*
X0023400Y0094514D02*
X0021742Y0094514D01*
X0022600Y0096112D02*
X0023400Y0096112D01*
X0023400Y0097711D02*
X0023339Y0097711D01*
X0027400Y0097711D02*
X0032261Y0097711D01*
X0030662Y0099309D02*
X0028715Y0099309D01*
X0028715Y0098972D02*
X0028715Y0101257D01*
X0039800Y0090172D01*
X0039814Y0090157D01*
X0039400Y0089157D01*
X0039400Y0088043D01*
X0039826Y0087014D01*
X0040614Y0086226D01*
X0041643Y0085800D01*
X0042757Y0085800D01*
X0043786Y0086226D01*
X0044160Y0086600D01*
X0045040Y0086600D01*
X0045414Y0086226D01*
X0046443Y0085800D01*
X0047557Y0085800D01*
X0048586Y0086226D01*
X0049374Y0087014D01*
X0049800Y0088043D01*
X0049800Y0088572D01*
X0053400Y0084972D01*
X0053400Y0084943D01*
X0052778Y0085565D01*
X0047515Y0085565D01*
X0046800Y0084850D01*
X0046085Y0085565D01*
X0040822Y0085565D01*
X0039885Y0084628D01*
X0039885Y0078972D01*
X0040822Y0078035D01*
X0041800Y0078035D01*
X0041800Y0071028D01*
X0040572Y0069800D01*
X0039400Y0068628D01*
X0039400Y0066943D01*
X0036688Y0066943D01*
X0035751Y0066006D01*
X0035751Y0057594D01*
X0036688Y0056657D01*
X0037000Y0056657D01*
X0037000Y0056628D01*
X0035000Y0054628D01*
X0035000Y0053428D01*
X0031800Y0056628D01*
X0031800Y0056657D01*
X0031912Y0056657D01*
X0032849Y0057594D01*
X0032849Y0066006D01*
X0031912Y0066943D01*
X0030600Y0066943D01*
X0030600Y0075028D01*
X0027594Y0078035D01*
X0027778Y0078035D01*
X0028715Y0078972D01*
X0028715Y0084628D01*
X0027778Y0085565D01*
X0027400Y0085565D01*
X0027400Y0098035D01*
X0027778Y0098035D01*
X0028715Y0098972D01*
X0028715Y0100908D02*
X0029064Y0100908D01*
X0031524Y0104105D02*
X0034667Y0104105D01*
X0033122Y0102506D02*
X0036265Y0102506D01*
X0037000Y0101772D02*
X0038172Y0100600D01*
X0039885Y0100600D01*
X0039885Y0098972D01*
X0040822Y0098035D01*
X0046085Y0098035D01*
X0046800Y0098750D01*
X0047515Y0098035D01*
X0052778Y0098035D01*
X0053715Y0098972D01*
X0053715Y0099057D01*
X0053800Y0098972D01*
X0053800Y0096172D01*
X0053806Y0096166D01*
X0053026Y0095386D01*
X0052600Y0094357D01*
X0052600Y0093243D01*
X0053026Y0092214D01*
X0053814Y0091426D01*
X0054843Y0091000D01*
X0055957Y0091000D01*
X0056392Y0091180D01*
X0062200Y0085372D01*
X0062572Y0085000D01*
X0059760Y0085000D01*
X0059386Y0085374D01*
X0058357Y0085800D01*
X0057800Y0085800D01*
X0057800Y0086228D01*
X0056628Y0087400D01*
X0051028Y0093000D01*
X0042628Y0093000D01*
X0029828Y0105800D01*
X0032972Y0105800D01*
X0037000Y0101772D01*
X0037864Y0100908D02*
X0034721Y0100908D01*
X0036319Y0099309D02*
X0039885Y0099309D01*
X0039516Y0096112D02*
X0053752Y0096112D01*
X0053800Y0097711D02*
X0037918Y0097711D01*
X0035458Y0094514D02*
X0027400Y0094514D01*
X0027400Y0096112D02*
X0033859Y0096112D01*
X0037056Y0092915D02*
X0027400Y0092915D01*
X0027400Y0091317D02*
X0038655Y0091317D01*
X0039632Y0089718D02*
X0027400Y0089718D01*
X0027400Y0088120D02*
X0039400Y0088120D01*
X0040319Y0086521D02*
X0027400Y0086521D01*
X0028420Y0084923D02*
X0040180Y0084923D01*
X0039885Y0083324D02*
X0028715Y0083324D01*
X0028715Y0081726D02*
X0039885Y0081726D01*
X0039885Y0080127D02*
X0028715Y0080127D01*
X0028272Y0078529D02*
X0040328Y0078529D01*
X0041800Y0076930D02*
X0028698Y0076930D01*
X0030297Y0075332D02*
X0041800Y0075332D01*
X0041800Y0073733D02*
X0030600Y0073733D01*
X0030600Y0072134D02*
X0041800Y0072134D01*
X0041308Y0070536D02*
X0030600Y0070536D01*
X0030600Y0068937D02*
X0039709Y0068937D01*
X0039400Y0067339D02*
X0030600Y0067339D01*
X0032849Y0065740D02*
X0035751Y0065740D01*
X0035751Y0064142D02*
X0032849Y0064142D01*
X0032849Y0062543D02*
X0035751Y0062543D01*
X0035751Y0060945D02*
X0032849Y0060945D01*
X0032849Y0059346D02*
X0035751Y0059346D01*
X0035751Y0057748D02*
X0032849Y0057748D01*
X0032279Y0056149D02*
X0036521Y0056149D01*
X0035000Y0054551D02*
X0033878Y0054551D01*
X0031418Y0051354D02*
X0003600Y0051354D01*
X0003600Y0052952D02*
X0029819Y0052952D01*
X0028221Y0054551D02*
X0003600Y0054551D01*
X0003600Y0056149D02*
X0027800Y0056149D01*
X0024137Y0057748D02*
X0019590Y0057748D01*
X0019540Y0057562D02*
X0019663Y0058020D01*
X0019663Y0061222D01*
X0015685Y0061222D01*
X0015685Y0056457D01*
X0018100Y0056457D01*
X0018558Y0056579D01*
X0018968Y0056816D01*
X0019303Y0057151D01*
X0019540Y0057562D01*
X0019663Y0059346D02*
X0024137Y0059346D01*
X0024137Y0060945D02*
X0019663Y0060945D01*
X0019663Y0062378D02*
X0019663Y0065580D01*
X0019540Y0066038D01*
X0019303Y0066449D01*
X0018968Y0066784D01*
X0018558Y0067021D01*
X0018100Y0067143D01*
X0015685Y0067143D01*
X0015685Y0062378D01*
X0014529Y0062378D01*
X0014529Y0061222D01*
X0010551Y0061222D01*
X0010551Y0058020D01*
X0010674Y0057562D01*
X0010911Y0057151D01*
X0011246Y0056816D01*
X0011656Y0056579D01*
X0012114Y0056457D01*
X0014529Y0056457D01*
X0014529Y0061222D01*
X0015685Y0061222D01*
X0015685Y0062378D01*
X0019663Y0062378D01*
X0019663Y0062543D02*
X0024137Y0062543D01*
X0024137Y0064142D02*
X0019663Y0064142D01*
X0019620Y0065740D02*
X0024137Y0065740D01*
X0026600Y0067339D02*
X0003600Y0067339D01*
X0003600Y0068937D02*
X0026600Y0068937D01*
X0026600Y0070536D02*
X0003600Y0070536D01*
X0003600Y0072134D02*
X0026600Y0072134D01*
X0026239Y0073733D02*
X0003600Y0073733D01*
X0003600Y0075332D02*
X0024640Y0075332D01*
X0023042Y0076930D02*
X0003600Y0076930D01*
X0011246Y0066784D02*
X0010911Y0066449D01*
X0010674Y0066038D01*
X0010551Y0065580D01*
X0010551Y0062378D01*
X0014529Y0062378D01*
X0014529Y0067143D01*
X0012114Y0067143D01*
X0011656Y0067021D01*
X0011246Y0066784D01*
X0010594Y0065740D02*
X0003600Y0065740D01*
X0003600Y0064142D02*
X0010551Y0064142D01*
X0010551Y0062543D02*
X0003600Y0062543D01*
X0003600Y0060945D02*
X0010551Y0060945D01*
X0010551Y0059346D02*
X0003600Y0059346D01*
X0003600Y0057748D02*
X0010624Y0057748D01*
X0014529Y0057748D02*
X0015685Y0057748D01*
X0015685Y0059346D02*
X0014529Y0059346D01*
X0014529Y0060945D02*
X0015685Y0060945D01*
X0015685Y0062543D02*
X0014529Y0062543D01*
X0014529Y0064142D02*
X0015685Y0064142D01*
X0015685Y0065740D02*
X0014529Y0065740D01*
X0021579Y0078529D02*
X0022021Y0078529D01*
X0021872Y0084923D02*
X0021728Y0084923D01*
X0029925Y0105703D02*
X0033068Y0105703D01*
X0035528Y0108900D02*
X0043672Y0108900D01*
X0042073Y0107302D02*
X0037127Y0107302D01*
X0038725Y0105703D02*
X0041000Y0105703D01*
X0038859Y0110499D02*
X0092600Y0110499D01*
X0092600Y0111440D02*
X0092600Y0111440D01*
X0092600Y0108900D02*
X0055128Y0108900D01*
X0056727Y0107302D02*
X0092600Y0107302D01*
X0092600Y0105703D02*
X0085648Y0105703D01*
X0085682Y0105644D02*
X0085445Y0106055D01*
X0085110Y0106390D01*
X0084699Y0106627D01*
X0084242Y0106750D01*
X0079661Y0106750D01*
X0079661Y0102575D01*
X0085805Y0102575D01*
X0085805Y0105187D01*
X0085682Y0105644D01*
X0085805Y0104105D02*
X0092476Y0104105D01*
X0090878Y0102506D02*
X0079661Y0102506D01*
X0078112Y0102506D02*
X0071431Y0102506D01*
X0071431Y0100908D02*
X0071969Y0100908D01*
X0071969Y0099309D02*
X0071431Y0099309D01*
X0071971Y0097711D02*
X0072233Y0097711D01*
X0071969Y0104105D02*
X0071431Y0104105D01*
X0071341Y0105703D02*
X0072125Y0105703D01*
X0078112Y0105703D02*
X0079661Y0105703D01*
X0079661Y0104105D02*
X0078112Y0104105D01*
X0078112Y0100908D02*
X0079661Y0100908D01*
X0079661Y0099309D02*
X0078112Y0099309D01*
X0078112Y0097711D02*
X0079661Y0097711D01*
X0078123Y0092600D02*
X0077157Y0092200D01*
X0061028Y0092200D01*
X0065028Y0088200D01*
X0085800Y0088200D01*
X0085800Y0089157D01*
X0086226Y0090186D01*
X0086600Y0090560D01*
X0086600Y0092600D01*
X0078123Y0092600D01*
X0085541Y0097711D02*
X0086082Y0097711D01*
X0085805Y0099309D02*
X0087681Y0099309D01*
X0089279Y0100908D02*
X0085805Y0100908D01*
X0090942Y0094514D02*
X0094885Y0094514D01*
X0093800Y0093428D02*
X0093800Y0093428D01*
X0093287Y0092915D02*
X0090600Y0092915D01*
X0090600Y0091317D02*
X0092088Y0091317D01*
X0092541Y0096112D02*
X0109800Y0096112D01*
X0109800Y0094514D02*
X0101915Y0094514D01*
X0103513Y0092915D02*
X0111056Y0092915D01*
X0110806Y0091317D02*
X0106243Y0091317D01*
X0107333Y0089718D02*
X0110633Y0089718D01*
X0110633Y0088120D02*
X0107266Y0088120D01*
X0105932Y0086521D02*
X0111010Y0086521D01*
X0111289Y0081800D02*
X0111289Y0081800D01*
X0108897Y0081726D02*
X0108554Y0081726D01*
X0107299Y0080127D02*
X0106955Y0080127D01*
X0105700Y0078529D02*
X0105357Y0078529D01*
X0104102Y0076930D02*
X0103758Y0076930D01*
X0103800Y0075332D02*
X0103012Y0075332D01*
X0103715Y0073733D02*
X0103800Y0073733D01*
X0103800Y0072134D02*
X0103715Y0072134D01*
X0103715Y0070536D02*
X0103800Y0070536D01*
X0103800Y0068937D02*
X0103681Y0068937D01*
X0103800Y0067339D02*
X0095800Y0067339D01*
X0095800Y0065740D02*
X0103800Y0065740D01*
X0103800Y0064142D02*
X0095800Y0064142D01*
X0095800Y0062543D02*
X0103715Y0062543D01*
X0103400Y0060945D02*
X0095773Y0060945D01*
X0094885Y0059346D02*
X0094175Y0059346D01*
X0094885Y0057748D02*
X0092576Y0057748D01*
X0090978Y0056149D02*
X0094885Y0056149D01*
X0094885Y0054551D02*
X0089379Y0054551D01*
X0087781Y0052952D02*
X0096600Y0052952D01*
X0096600Y0051354D02*
X0086182Y0051354D01*
X0086462Y0049755D02*
X0096600Y0049755D01*
X0096600Y0048157D02*
X0086550Y0048157D01*
X0086550Y0046558D02*
X0096049Y0046558D01*
X0095800Y0044960D02*
X0086550Y0044960D01*
X0086550Y0043361D02*
X0096679Y0043361D01*
X0100521Y0043361D02*
X0107050Y0043361D01*
X0107050Y0041763D02*
X0086550Y0041763D01*
X0086550Y0040164D02*
X0107050Y0040164D01*
X0107050Y0038566D02*
X0086550Y0038566D01*
X0085644Y0036509D02*
X0085187Y0036631D01*
X0082575Y0036631D01*
X0082575Y0030488D01*
X0086750Y0030488D01*
X0086750Y0035068D01*
X0086627Y0035526D01*
X0086390Y0035937D01*
X0086055Y0036272D01*
X0085644Y0036509D01*
X0086669Y0035369D02*
X0107050Y0035369D01*
X0107050Y0035494D02*
X0107050Y0023933D01*
X0107988Y0022995D01*
X0109800Y0022995D01*
X0109800Y0022650D01*
X0109377Y0022650D01*
X0105950Y0019223D01*
X0105950Y0014377D01*
X0109377Y0010950D01*
X0114223Y0010950D01*
X0117650Y0014377D01*
X0117650Y0019223D01*
X0114223Y0022650D01*
X0113800Y0022650D01*
X0113800Y0022995D01*
X0115612Y0022995D01*
X0116550Y0023933D01*
X0116550Y0035494D01*
X0115612Y0036431D01*
X0107988Y0036431D01*
X0107050Y0035494D01*
X0107050Y0033770D02*
X0086750Y0033770D01*
X0086750Y0032172D02*
X0107050Y0032172D01*
X0107050Y0030573D02*
X0086750Y0030573D01*
X0086750Y0028939D02*
X0082575Y0028939D01*
X0082575Y0030488D01*
X0081025Y0030488D01*
X0081025Y0028939D01*
X0076850Y0028939D01*
X0076850Y0024358D01*
X0076973Y0023900D01*
X0077210Y0023490D01*
X0077545Y0023155D01*
X0077956Y0022918D01*
X0078413Y0022795D01*
X0081025Y0022795D01*
X0081025Y0028938D01*
X0082575Y0028938D01*
X0082575Y0022795D01*
X0085187Y0022795D01*
X0085644Y0022918D01*
X0086055Y0023155D01*
X0086390Y0023490D01*
X0086627Y0023900D01*
X0086750Y0024358D01*
X0086750Y0028939D01*
X0086750Y0027376D02*
X0107050Y0027376D01*
X0107050Y0025778D02*
X0086750Y0025778D01*
X0086702Y0024179D02*
X0107050Y0024179D01*
X0107709Y0020982D02*
X0096174Y0020982D01*
X0097772Y0019384D02*
X0106110Y0019384D01*
X0105950Y0017785D02*
X0097850Y0017785D01*
X0097850Y0017300D02*
X0097850Y0019306D01*
X0094306Y0022850D01*
X0092300Y0022850D01*
X0092300Y0017300D01*
X0097850Y0017300D01*
X0097850Y0016300D02*
X0092300Y0016300D01*
X0092300Y0017300D01*
X0091300Y0017300D01*
X0091300Y0022850D01*
X0089294Y0022850D01*
X0085750Y0019306D01*
X0085750Y0017300D01*
X0091300Y0017300D01*
X0091300Y0016300D01*
X0092300Y0016300D01*
X0092300Y0010750D01*
X0094306Y0010750D01*
X0097850Y0014294D01*
X0097850Y0016300D01*
X0097850Y0016187D02*
X0105950Y0016187D01*
X0105950Y0014588D02*
X0097850Y0014588D01*
X0096546Y0012990D02*
X0107337Y0012990D01*
X0108936Y0011391D02*
X0094947Y0011391D01*
X0092300Y0011391D02*
X0091300Y0011391D01*
X0091300Y0010750D02*
X0091300Y0016300D01*
X0085750Y0016300D01*
X0085750Y0014294D01*
X0089294Y0010750D01*
X0091300Y0010750D01*
X0091300Y0012990D02*
X0092300Y0012990D01*
X0092300Y0014588D02*
X0091300Y0014588D01*
X0091300Y0016187D02*
X0092300Y0016187D01*
X0092300Y0017785D02*
X0091300Y0017785D01*
X0091300Y0019384D02*
X0092300Y0019384D01*
X0092300Y0020982D02*
X0091300Y0020982D01*
X0091300Y0022581D02*
X0092300Y0022581D01*
X0094575Y0022581D02*
X0109308Y0022581D01*
X0114292Y0022581D02*
X0139308Y0022581D01*
X0139377Y0022650D02*
X0135950Y0019223D01*
X0135950Y0014377D01*
X0139377Y0010950D01*
X0144223Y0010950D01*
X0147650Y0014377D01*
X0147650Y0019223D01*
X0144223Y0022650D01*
X0143800Y0022650D01*
X0143800Y0022995D01*
X0145612Y0022995D01*
X0146550Y0023933D01*
X0146550Y0035494D01*
X0145612Y0036431D01*
X0137988Y0036431D01*
X0137050Y0035494D01*
X0137050Y0023933D01*
X0137988Y0022995D01*
X0139800Y0022995D01*
X0139800Y0022650D01*
X0139377Y0022650D01*
X0137709Y0020982D02*
X0115891Y0020982D01*
X0117490Y0019384D02*
X0136110Y0019384D01*
X0135950Y0017785D02*
X0117650Y0017785D01*
X0117650Y0016187D02*
X0135950Y0016187D01*
X0135950Y0014588D02*
X0117650Y0014588D01*
X0116263Y0012990D02*
X0137337Y0012990D01*
X0138936Y0011391D02*
X0114664Y0011391D01*
X0116550Y0024179D02*
X0137050Y0024179D01*
X0137050Y0025778D02*
X0116550Y0025778D01*
X0116550Y0027376D02*
X0137050Y0027376D01*
X0137050Y0028975D02*
X0116550Y0028975D01*
X0116550Y0030573D02*
X0137050Y0030573D01*
X0137050Y0032172D02*
X0116550Y0032172D01*
X0116550Y0033770D02*
X0137050Y0033770D01*
X0137050Y0035369D02*
X0116550Y0035369D01*
X0116550Y0038566D02*
X0137050Y0038566D01*
X0137050Y0040164D02*
X0116550Y0040164D01*
X0116550Y0041763D02*
X0137050Y0041763D01*
X0137050Y0043361D02*
X0116550Y0043361D01*
X0116550Y0044960D02*
X0137050Y0044960D01*
X0137050Y0046558D02*
X0116550Y0046558D01*
X0116550Y0048157D02*
X0137050Y0048157D01*
X0137138Y0049755D02*
X0116462Y0049755D01*
X0115400Y0051354D02*
X0138200Y0051354D01*
X0138200Y0052952D02*
X0136098Y0052952D01*
X0133638Y0052952D02*
X0133269Y0052952D01*
X0133269Y0054551D02*
X0133638Y0054551D01*
X0133638Y0056149D02*
X0133269Y0056149D01*
X0133269Y0056984D02*
X0129685Y0056984D01*
X0129685Y0059202D01*
X0129808Y0059660D01*
X0130045Y0060071D01*
X0130380Y0060406D01*
X0130790Y0060643D01*
X0131248Y0060765D01*
X0133269Y0060765D01*
X0133269Y0056984D01*
X0133269Y0057748D02*
X0133638Y0057748D01*
X0133638Y0059346D02*
X0133269Y0059346D01*
X0129724Y0059346D02*
X0123876Y0059346D01*
X0123915Y0057748D02*
X0129685Y0057748D01*
X0129685Y0056149D02*
X0123915Y0056149D01*
X0123915Y0056616D02*
X0120331Y0056616D01*
X0120331Y0052835D01*
X0122352Y0052835D01*
X0122810Y0052957D01*
X0123220Y0053194D01*
X0123555Y0053529D01*
X0123792Y0053940D01*
X0123915Y0054398D01*
X0123915Y0056616D01*
X0123915Y0054551D02*
X0129685Y0054551D01*
X0130809Y0052952D02*
X0122791Y0052952D01*
X0120331Y0052952D02*
X0119962Y0052952D01*
X0119962Y0054551D02*
X0120331Y0054551D01*
X0120331Y0056149D02*
X0119962Y0056149D01*
X0119962Y0057748D02*
X0120331Y0057748D01*
X0120331Y0059346D02*
X0119962Y0059346D01*
X0117502Y0052952D02*
X0115400Y0052952D01*
X0111400Y0052952D02*
X0100600Y0052952D01*
X0100600Y0051354D02*
X0111400Y0051354D01*
X0109885Y0054551D02*
X0108715Y0054551D01*
X0108715Y0059346D02*
X0109885Y0059346D01*
X0107773Y0060945D02*
X0137427Y0060945D01*
X0135828Y0062543D02*
X0107800Y0062543D01*
X0107800Y0064142D02*
X0135000Y0064142D01*
X0135000Y0065740D02*
X0107800Y0065740D01*
X0107800Y0067339D02*
X0135000Y0067339D01*
X0135000Y0068937D02*
X0107800Y0068937D01*
X0107800Y0070536D02*
X0135000Y0070536D01*
X0131427Y0072134D02*
X0122405Y0072134D01*
X0122335Y0072014D02*
X0122572Y0072424D01*
X0122694Y0072882D01*
X0122694Y0074300D01*
X0116564Y0074300D01*
X0116564Y0074300D01*
X0116564Y0071319D01*
X0121131Y0071319D01*
X0121589Y0071442D01*
X0122000Y0071679D01*
X0122335Y0072014D01*
X0122694Y0073733D02*
X0131106Y0073733D01*
X0131106Y0075332D02*
X0122694Y0075332D01*
X0121985Y0076930D02*
X0131632Y0076930D01*
X0130972Y0081000D02*
X0129828Y0081000D01*
X0128228Y0082600D01*
X0129028Y0082600D01*
X0130972Y0082600D01*
X0131106Y0082466D01*
X0131106Y0082456D01*
X0131762Y0081800D01*
X0131106Y0081144D01*
X0131106Y0081134D01*
X0130972Y0081000D01*
X0131687Y0081726D02*
X0129103Y0081726D01*
X0126643Y0078529D02*
X0122494Y0078529D01*
X0122494Y0080127D02*
X0125045Y0080127D01*
X0123446Y0081726D02*
X0121913Y0081726D01*
X0122038Y0086600D02*
X0121838Y0086800D01*
X0122038Y0087000D01*
X0122972Y0087000D01*
X0123372Y0086600D01*
X0122038Y0086600D01*
X0122322Y0091317D02*
X0125400Y0091317D01*
X0126487Y0092915D02*
X0116713Y0092915D01*
X0115115Y0094514D02*
X0128085Y0094514D01*
X0129684Y0096112D02*
X0113800Y0096112D01*
X0113800Y0097711D02*
X0119291Y0097711D01*
X0119291Y0097705D02*
X0119414Y0097247D01*
X0119651Y0096837D01*
X0119986Y0096501D01*
X0120397Y0096264D01*
X0120854Y0096142D01*
X0126124Y0096142D01*
X0126124Y0100218D01*
X0127476Y0100218D01*
X0127476Y0101571D01*
X0126124Y0101571D01*
X0126124Y0105647D01*
X0120854Y0105647D01*
X0120397Y0105525D01*
X0119986Y0105288D01*
X0119651Y0104952D01*
X0119414Y0104542D01*
X0119291Y0104084D01*
X0119291Y0101571D01*
X0126124Y0101571D01*
X0126124Y0100218D01*
X0119291Y0100218D01*
X0119291Y0097705D01*
X0119291Y0099309D02*
X0113800Y0099309D01*
X0115565Y0100908D02*
X0126124Y0100908D01*
X0127476Y0100908D02*
X0141457Y0100908D01*
X0141457Y0100685D02*
X0146222Y0100685D01*
X0146222Y0099529D01*
X0147378Y0099529D01*
X0147378Y0095551D01*
X0150580Y0095551D01*
X0151038Y0095674D01*
X0151449Y0095911D01*
X0151784Y0096246D01*
X0152021Y0096656D01*
X0152143Y0097114D01*
X0152143Y0099529D01*
X0147378Y0099529D01*
X0147378Y0100685D01*
X0152143Y0100685D01*
X0152143Y0103100D01*
X0152021Y0103558D01*
X0151784Y0103968D01*
X0151449Y0104303D01*
X0151038Y0104540D01*
X0150580Y0104663D01*
X0147378Y0104663D01*
X0147378Y0100685D01*
X0146222Y0100685D01*
X0146222Y0104663D01*
X0143020Y0104663D01*
X0142562Y0104540D01*
X0142151Y0104303D01*
X0141816Y0103968D01*
X0141579Y0103558D01*
X0141457Y0103100D01*
X0141457Y0100685D01*
X0141457Y0099529D02*
X0141457Y0097114D01*
X0141579Y0096656D01*
X0141816Y0096246D01*
X0142151Y0095911D01*
X0142562Y0095674D01*
X0143020Y0095551D01*
X0146222Y0095551D01*
X0146222Y0099529D01*
X0141457Y0099529D01*
X0141457Y0099309D02*
X0134309Y0099309D01*
X0134309Y0101571D02*
X0134309Y0104084D01*
X0134186Y0104542D01*
X0133949Y0104952D01*
X0133614Y0105288D01*
X0133203Y0105525D01*
X0132746Y0105647D01*
X0127476Y0105647D01*
X0127476Y0101571D01*
X0134309Y0101571D01*
X0134309Y0102506D02*
X0141457Y0102506D01*
X0141953Y0104105D02*
X0134303Y0104105D01*
X0136318Y0097711D02*
X0141457Y0097711D01*
X0141950Y0096112D02*
X0140716Y0096112D01*
X0142315Y0094514D02*
X0160000Y0094514D01*
X0160000Y0096112D02*
X0151650Y0096112D01*
X0152143Y0097711D02*
X0160000Y0097711D01*
X0160000Y0099309D02*
X0152143Y0099309D01*
X0152143Y0100908D02*
X0160000Y0100908D01*
X0160000Y0102506D02*
X0152143Y0102506D01*
X0151647Y0104105D02*
X0160000Y0104105D01*
X0160000Y0105703D02*
X0115565Y0105703D01*
X0115565Y0104105D02*
X0119297Y0104105D01*
X0119291Y0102506D02*
X0115565Y0102506D01*
X0115352Y0107302D02*
X0160000Y0107302D01*
X0160000Y0108900D02*
X0133919Y0108900D01*
X0134109Y0110499D02*
X0141657Y0110499D01*
X0141657Y0116893D02*
X0133537Y0116893D01*
X0142600Y0118491D02*
X0111720Y0118491D01*
X0113318Y0120090D02*
X0142600Y0120090D01*
X0142600Y0121688D02*
X0114917Y0121688D01*
X0116515Y0123287D02*
X0142600Y0123287D01*
X0142600Y0124885D02*
X0118114Y0124885D01*
X0119400Y0126484D02*
X0142600Y0126484D01*
X0142600Y0128082D02*
X0119400Y0128082D01*
X0119400Y0129681D02*
X0142600Y0129681D01*
X0140176Y0131279D02*
X0123424Y0131279D01*
X0123951Y0132878D02*
X0139649Y0132878D01*
X0139649Y0134476D02*
X0123951Y0134476D01*
X0123951Y0136075D02*
X0139649Y0136075D01*
X0139649Y0137673D02*
X0123951Y0137673D01*
X0123951Y0139272D02*
X0139649Y0139272D01*
X0139649Y0140870D02*
X0123951Y0140870D01*
X0123276Y0142469D02*
X0140324Y0142469D01*
X0148472Y0142469D02*
X0160000Y0142469D01*
X0160000Y0140870D02*
X0149148Y0140870D01*
X0149148Y0139272D02*
X0160000Y0139272D01*
X0160000Y0137673D02*
X0149148Y0137673D01*
X0149148Y0136075D02*
X0160000Y0136075D01*
X0160000Y0134476D02*
X0149148Y0134476D01*
X0149148Y0132878D02*
X0160000Y0132878D01*
X0160000Y0131279D02*
X0148621Y0131279D01*
X0146600Y0129681D02*
X0160000Y0129681D01*
X0160000Y0128082D02*
X0146600Y0128082D01*
X0146600Y0126484D02*
X0160000Y0126484D01*
X0160000Y0124885D02*
X0146600Y0124885D01*
X0146600Y0123287D02*
X0160000Y0123287D01*
X0160000Y0121688D02*
X0146600Y0121688D01*
X0146600Y0120090D02*
X0160000Y0120090D01*
X0160000Y0118491D02*
X0146600Y0118491D01*
X0151943Y0116893D02*
X0160000Y0116893D01*
X0160000Y0115294D02*
X0151943Y0115294D01*
X0151943Y0113696D02*
X0160000Y0113696D01*
X0160000Y0112097D02*
X0151943Y0112097D01*
X0151943Y0110499D02*
X0160000Y0110499D01*
X0147378Y0104105D02*
X0146222Y0104105D01*
X0146222Y0102506D02*
X0147378Y0102506D01*
X0147378Y0100908D02*
X0146222Y0100908D01*
X0146222Y0099309D02*
X0147378Y0099309D01*
X0147378Y0097711D02*
X0146222Y0097711D01*
X0146222Y0096112D02*
X0147378Y0096112D01*
X0145045Y0092915D02*
X0160000Y0092915D01*
X0160000Y0091317D02*
X0155802Y0091317D01*
X0156200Y0089718D02*
X0160000Y0089718D01*
X0160000Y0088120D02*
X0159001Y0088120D01*
X0159400Y0086521D02*
X0160000Y0086521D01*
X0160000Y0084923D02*
X0158882Y0084923D01*
X0160000Y0083324D02*
X0156152Y0083324D01*
X0155268Y0081726D02*
X0160000Y0081726D01*
X0160000Y0080127D02*
X0153947Y0080127D01*
X0151253Y0080127D02*
X0146555Y0080127D01*
X0144957Y0078529D02*
X0160000Y0078529D01*
X0160000Y0076930D02*
X0142441Y0076930D01*
X0142967Y0075332D02*
X0160000Y0075332D01*
X0160000Y0073733D02*
X0142967Y0073733D01*
X0142645Y0072134D02*
X0160000Y0072134D01*
X0160000Y0070536D02*
X0139000Y0070536D01*
X0139000Y0068937D02*
X0160000Y0068937D01*
X0160000Y0067339D02*
X0139000Y0067339D01*
X0139000Y0065740D02*
X0160000Y0065740D01*
X0160000Y0064142D02*
X0139886Y0064142D01*
X0141485Y0062543D02*
X0160000Y0062543D01*
X0160000Y0060945D02*
X0141800Y0060945D01*
X0143715Y0059346D02*
X0144885Y0059346D01*
X0144885Y0054551D02*
X0143715Y0054551D01*
X0142200Y0052952D02*
X0149000Y0052952D01*
X0149486Y0051354D02*
X0142200Y0051354D01*
X0146462Y0049755D02*
X0160000Y0049755D01*
X0160000Y0048157D02*
X0146550Y0048157D01*
X0146550Y0046558D02*
X0160000Y0046558D01*
X0160000Y0044960D02*
X0146550Y0044960D01*
X0146550Y0043361D02*
X0160000Y0043361D01*
X0160000Y0041763D02*
X0146550Y0041763D01*
X0146550Y0040164D02*
X0160000Y0040164D01*
X0160000Y0038566D02*
X0146550Y0038566D01*
X0146550Y0035369D02*
X0160000Y0035369D01*
X0160000Y0036967D02*
X0067400Y0036967D01*
X0067400Y0035369D02*
X0076931Y0035369D01*
X0076973Y0035526D02*
X0076850Y0035068D01*
X0076850Y0030488D01*
X0081025Y0030488D01*
X0081025Y0036631D01*
X0078413Y0036631D01*
X0077956Y0036509D01*
X0077545Y0036272D01*
X0077210Y0035937D01*
X0076973Y0035526D01*
X0076850Y0033770D02*
X0067400Y0033770D01*
X0067400Y0032172D02*
X0076850Y0032172D01*
X0076850Y0030573D02*
X0068421Y0030573D01*
X0067400Y0031594D02*
X0067400Y0067050D01*
X0070494Y0067050D01*
X0071431Y0067988D01*
X0071431Y0075612D01*
X0070494Y0076550D01*
X0058933Y0076550D01*
X0057995Y0075612D01*
X0057995Y0067988D01*
X0058933Y0067050D01*
X0062600Y0067050D01*
X0062600Y0030123D01*
X0062965Y0029241D01*
X0069400Y0022806D01*
X0069400Y0022650D01*
X0069377Y0022650D01*
X0065950Y0019223D01*
X0065950Y0014377D01*
X0069377Y0010950D01*
X0074223Y0010950D01*
X0077650Y0014377D01*
X0077650Y0019223D01*
X0074223Y0022650D01*
X0074200Y0022650D01*
X0074200Y0024277D01*
X0073835Y0025159D01*
X0073159Y0025835D01*
X0067400Y0031594D01*
X0065000Y0030600D02*
X0071800Y0023800D01*
X0071800Y0016800D01*
X0075891Y0020982D02*
X0087426Y0020982D01*
X0085828Y0019384D02*
X0077490Y0019384D01*
X0077650Y0017785D02*
X0085750Y0017785D01*
X0085750Y0016187D02*
X0077650Y0016187D01*
X0077650Y0014588D02*
X0085750Y0014588D01*
X0087054Y0012990D02*
X0076263Y0012990D01*
X0074664Y0011391D02*
X0088653Y0011391D01*
X0089025Y0022581D02*
X0074292Y0022581D01*
X0074200Y0024179D02*
X0076898Y0024179D01*
X0076850Y0025778D02*
X0073216Y0025778D01*
X0071618Y0027376D02*
X0076850Y0027376D01*
X0081025Y0027376D02*
X0082575Y0027376D01*
X0082575Y0025778D02*
X0081025Y0025778D01*
X0081025Y0024179D02*
X0082575Y0024179D01*
X0082575Y0028975D02*
X0107050Y0028975D01*
X0107050Y0044960D02*
X0101400Y0044960D01*
X0101151Y0046558D02*
X0107050Y0046558D01*
X0107050Y0048157D02*
X0100600Y0048157D01*
X0100600Y0049755D02*
X0107138Y0049755D01*
X0091715Y0062543D02*
X0067400Y0062543D01*
X0067400Y0060945D02*
X0090116Y0060945D01*
X0088518Y0059346D02*
X0067400Y0059346D01*
X0067400Y0057748D02*
X0086919Y0057748D01*
X0085321Y0056149D02*
X0067400Y0056149D01*
X0067400Y0054551D02*
X0083722Y0054551D01*
X0082124Y0052952D02*
X0067400Y0052952D01*
X0067400Y0051354D02*
X0081000Y0051354D01*
X0077138Y0049755D02*
X0067400Y0049755D01*
X0067400Y0048157D02*
X0077050Y0048157D01*
X0077050Y0046558D02*
X0067400Y0046558D01*
X0067400Y0044960D02*
X0077050Y0044960D01*
X0077050Y0043361D02*
X0067400Y0043361D01*
X0067400Y0041763D02*
X0077050Y0041763D01*
X0077050Y0040164D02*
X0067400Y0040164D01*
X0067400Y0038566D02*
X0077050Y0038566D01*
X0081025Y0035369D02*
X0082575Y0035369D01*
X0082575Y0033770D02*
X0081025Y0033770D01*
X0081025Y0032172D02*
X0082575Y0032172D01*
X0082575Y0030573D02*
X0081025Y0030573D01*
X0081025Y0028975D02*
X0070019Y0028975D01*
X0066428Y0025778D02*
X0003600Y0025778D01*
X0003600Y0027376D02*
X0064830Y0027376D01*
X0063231Y0028975D02*
X0003600Y0028975D01*
X0003600Y0030573D02*
X0014229Y0030573D01*
X0014681Y0030121D02*
X0023880Y0030121D01*
X0024817Y0031059D01*
X0024817Y0045376D01*
X0023880Y0046313D01*
X0014681Y0046313D01*
X0013743Y0045376D01*
X0013743Y0031059D01*
X0014681Y0030121D01*
X0013743Y0032172D02*
X0003600Y0032172D01*
X0003600Y0033770D02*
X0013743Y0033770D01*
X0013743Y0035369D02*
X0003600Y0035369D01*
X0003600Y0036967D02*
X0013743Y0036967D01*
X0013743Y0038566D02*
X0003600Y0038566D01*
X0003600Y0040164D02*
X0013743Y0040164D01*
X0013743Y0041763D02*
X0003600Y0041763D01*
X0003600Y0043361D02*
X0013743Y0043361D01*
X0013743Y0044960D02*
X0003600Y0044960D01*
X0003600Y0046558D02*
X0031800Y0046558D01*
X0031800Y0048157D02*
X0003600Y0048157D01*
X0003600Y0049755D02*
X0031800Y0049755D01*
X0027917Y0044960D02*
X0024817Y0044960D01*
X0024817Y0043361D02*
X0027917Y0043361D01*
X0027917Y0041763D02*
X0024817Y0041763D01*
X0024817Y0040164D02*
X0027917Y0040164D01*
X0027917Y0038566D02*
X0024817Y0038566D01*
X0024817Y0036967D02*
X0027917Y0036967D01*
X0027917Y0035369D02*
X0024817Y0035369D01*
X0024817Y0033770D02*
X0027917Y0033770D01*
X0027917Y0032172D02*
X0024817Y0032172D01*
X0024332Y0030573D02*
X0049268Y0030573D01*
X0049720Y0030121D02*
X0048783Y0031059D01*
X0048783Y0045376D01*
X0049720Y0046313D01*
X0058919Y0046313D01*
X0059857Y0045376D01*
X0059857Y0031059D01*
X0058919Y0030121D01*
X0049720Y0030121D01*
X0048783Y0032172D02*
X0045857Y0032172D01*
X0045883Y0032272D02*
X0045761Y0031814D01*
X0045524Y0031403D01*
X0045189Y0031068D01*
X0044778Y0030831D01*
X0044320Y0030709D01*
X0043099Y0030709D01*
X0043099Y0038611D01*
X0043099Y0038611D01*
X0043099Y0046513D01*
X0044320Y0046513D01*
X0044778Y0046391D01*
X0045189Y0046154D01*
X0045524Y0045819D01*
X0045761Y0045408D01*
X0045883Y0044950D01*
X0045883Y0038611D01*
X0043099Y0038611D01*
X0043099Y0038611D01*
X0045883Y0038611D01*
X0045883Y0032272D01*
X0045883Y0033770D02*
X0048783Y0033770D01*
X0048783Y0035369D02*
X0045883Y0035369D01*
X0045883Y0036967D02*
X0048783Y0036967D01*
X0048783Y0038566D02*
X0045883Y0038566D01*
X0045883Y0040164D02*
X0048783Y0040164D01*
X0048783Y0041763D02*
X0045883Y0041763D01*
X0045883Y0043361D02*
X0048783Y0043361D01*
X0048783Y0044960D02*
X0045881Y0044960D01*
X0043099Y0044960D02*
X0043099Y0044960D01*
X0043099Y0043361D02*
X0043099Y0043361D01*
X0043099Y0041763D02*
X0043099Y0041763D01*
X0043099Y0040164D02*
X0043099Y0040164D01*
X0043099Y0038566D02*
X0043099Y0038566D01*
X0043099Y0036967D02*
X0043099Y0036967D01*
X0043099Y0035369D02*
X0043099Y0035369D01*
X0043099Y0033770D02*
X0043099Y0033770D01*
X0043099Y0032172D02*
X0043099Y0032172D01*
X0049720Y0021510D02*
X0048783Y0020573D01*
X0048783Y0009405D01*
X0049720Y0008468D01*
X0058919Y0008468D01*
X0059857Y0009405D01*
X0059857Y0020573D01*
X0058919Y0021510D01*
X0049720Y0021510D01*
X0049192Y0020982D02*
X0024408Y0020982D01*
X0024817Y0020573D02*
X0023880Y0021510D01*
X0014681Y0021510D01*
X0013743Y0020573D01*
X0013743Y0009405D01*
X0014681Y0008468D01*
X0023880Y0008468D01*
X0024817Y0009405D01*
X0024817Y0020573D01*
X0024817Y0019384D02*
X0048783Y0019384D01*
X0048783Y0017785D02*
X0024817Y0017785D01*
X0024817Y0016187D02*
X0048783Y0016187D01*
X0048783Y0014588D02*
X0024817Y0014588D01*
X0024817Y0012990D02*
X0048783Y0012990D01*
X0048783Y0011391D02*
X0024817Y0011391D01*
X0024817Y0009793D02*
X0048783Y0009793D01*
X0059448Y0020982D02*
X0067709Y0020982D01*
X0066110Y0019384D02*
X0059857Y0019384D01*
X0059857Y0017785D02*
X0065950Y0017785D01*
X0065950Y0016187D02*
X0059857Y0016187D01*
X0059857Y0014588D02*
X0065950Y0014588D01*
X0067337Y0012990D02*
X0059857Y0012990D01*
X0059857Y0011391D02*
X0068936Y0011391D01*
X0069308Y0022581D02*
X0003600Y0022581D01*
X0003600Y0024179D02*
X0068027Y0024179D01*
X0065000Y0030600D02*
X0065000Y0071800D01*
X0064713Y0071800D01*
X0062600Y0065740D02*
X0058006Y0065740D01*
X0058049Y0065580D02*
X0057926Y0066038D01*
X0057689Y0066449D01*
X0057354Y0066784D01*
X0056944Y0067021D01*
X0056486Y0067143D01*
X0054071Y0067143D01*
X0054071Y0062378D01*
X0058049Y0062378D01*
X0058049Y0065580D01*
X0058049Y0064142D02*
X0062600Y0064142D01*
X0062600Y0062543D02*
X0058049Y0062543D01*
X0058049Y0061222D02*
X0054071Y0061222D01*
X0054071Y0062378D01*
X0052915Y0062378D01*
X0052915Y0067143D01*
X0050500Y0067143D01*
X0050042Y0067021D01*
X0049632Y0066784D01*
X0049297Y0066449D01*
X0049060Y0066038D01*
X0048937Y0065580D01*
X0048937Y0062378D01*
X0052915Y0062378D01*
X0052915Y0061222D01*
X0054071Y0061222D01*
X0054071Y0056457D01*
X0056486Y0056457D01*
X0056944Y0056579D01*
X0057354Y0056816D01*
X0057689Y0057151D01*
X0057926Y0057562D01*
X0058049Y0058020D01*
X0058049Y0061222D01*
X0058049Y0060945D02*
X0062600Y0060945D01*
X0062600Y0059346D02*
X0058049Y0059346D01*
X0057976Y0057748D02*
X0062600Y0057748D01*
X0062600Y0056149D02*
X0041000Y0056149D01*
X0040579Y0054551D02*
X0062600Y0054551D01*
X0062600Y0052952D02*
X0039000Y0052952D01*
X0039000Y0051354D02*
X0062600Y0051354D01*
X0062600Y0049755D02*
X0039000Y0049755D01*
X0039000Y0048157D02*
X0062600Y0048157D01*
X0062600Y0046558D02*
X0039000Y0046558D01*
X0044463Y0057748D02*
X0049010Y0057748D01*
X0049060Y0057562D02*
X0049297Y0057151D01*
X0049632Y0056816D01*
X0050042Y0056579D01*
X0050500Y0056457D01*
X0052915Y0056457D01*
X0052915Y0061222D01*
X0048937Y0061222D01*
X0048937Y0058020D01*
X0049060Y0057562D01*
X0048937Y0059346D02*
X0044463Y0059346D01*
X0044463Y0060945D02*
X0048937Y0060945D01*
X0048937Y0062543D02*
X0044463Y0062543D01*
X0044463Y0064142D02*
X0048937Y0064142D01*
X0048980Y0065740D02*
X0044463Y0065740D01*
X0043767Y0067339D02*
X0058644Y0067339D01*
X0057995Y0068937D02*
X0045366Y0068937D01*
X0045800Y0070536D02*
X0057995Y0070536D01*
X0057995Y0072134D02*
X0045800Y0072134D01*
X0045800Y0073733D02*
X0057995Y0073733D01*
X0057995Y0075332D02*
X0045800Y0075332D01*
X0045800Y0076930D02*
X0073042Y0076930D01*
X0072007Y0075332D02*
X0071431Y0075332D01*
X0071431Y0073733D02*
X0071969Y0073733D01*
X0071431Y0072134D02*
X0078112Y0072134D01*
X0078112Y0071025D02*
X0071969Y0071025D01*
X0071969Y0068413D01*
X0072091Y0067956D01*
X0072328Y0067545D01*
X0072663Y0067210D01*
X0073074Y0066973D01*
X0073532Y0066850D01*
X0078112Y0066850D01*
X0078112Y0071025D01*
X0078112Y0070536D02*
X0079661Y0070536D01*
X0079661Y0072134D02*
X0089885Y0072134D01*
X0089885Y0070536D02*
X0085805Y0070536D01*
X0085805Y0068937D02*
X0089919Y0068937D01*
X0091800Y0067339D02*
X0085239Y0067339D01*
X0079661Y0067339D02*
X0078112Y0067339D01*
X0078112Y0068937D02*
X0079661Y0068937D01*
X0085805Y0073733D02*
X0089885Y0073733D01*
X0090588Y0075332D02*
X0085766Y0075332D01*
X0081290Y0076930D02*
X0098200Y0076930D01*
X0097281Y0075332D02*
X0096319Y0075332D01*
X0099700Y0078529D02*
X0082200Y0078529D01*
X0081964Y0080127D02*
X0101299Y0080127D01*
X0102897Y0081726D02*
X0091354Y0081726D01*
X0092952Y0083324D02*
X0104496Y0083324D01*
X0105800Y0084628D02*
X0105800Y0084628D01*
X0106094Y0084923D02*
X0094551Y0084923D01*
X0096150Y0086521D02*
X0103268Y0086521D01*
X0101934Y0088120D02*
X0098879Y0088120D01*
X0099800Y0089718D02*
X0101053Y0089718D01*
X0095738Y0099309D02*
X0109800Y0099309D01*
X0109800Y0097711D02*
X0094139Y0097711D01*
X0097336Y0100908D02*
X0108035Y0100908D01*
X0104734Y0102506D02*
X0098935Y0102506D01*
X0104200Y0103772D02*
X0104200Y0103772D01*
X0107428Y0107000D02*
X0108035Y0107606D01*
X0108035Y0107515D01*
X0108750Y0106800D01*
X0108542Y0106592D01*
X0107557Y0107000D01*
X0107428Y0107000D01*
X0107730Y0107302D02*
X0108248Y0107302D01*
X0108035Y0112097D02*
X0107326Y0112097D01*
X0108924Y0113696D02*
X0108953Y0113696D01*
X0107661Y0120090D02*
X0106000Y0120090D01*
X0106000Y0121688D02*
X0109260Y0121688D01*
X0110858Y0123287D02*
X0106000Y0123287D01*
X0106000Y0124885D02*
X0112457Y0124885D01*
X0114055Y0126484D02*
X0105483Y0126484D01*
X0103885Y0128082D02*
X0115400Y0128082D01*
X0115400Y0129681D02*
X0100909Y0129681D01*
X0099715Y0128082D02*
X0099546Y0128082D01*
X0102508Y0131279D02*
X0114979Y0131279D01*
X0114452Y0132878D02*
X0104106Y0132878D01*
X0105705Y0134476D02*
X0114452Y0134476D01*
X0114452Y0136075D02*
X0107303Y0136075D01*
X0108902Y0137673D02*
X0114452Y0137673D01*
X0114452Y0139272D02*
X0110500Y0139272D01*
X0112099Y0140870D02*
X0114452Y0140870D01*
X0115128Y0142469D02*
X0113697Y0142469D01*
X0115296Y0144068D02*
X0160000Y0144068D01*
X0160000Y0145666D02*
X0116894Y0145666D01*
X0118493Y0147265D02*
X0160000Y0147265D01*
X0160000Y0148863D02*
X0120091Y0148863D01*
X0121690Y0150462D02*
X0160000Y0150462D01*
X0160000Y0152060D02*
X0123288Y0152060D01*
X0124887Y0153659D02*
X0160000Y0153659D01*
X0160000Y0155257D02*
X0126486Y0155257D01*
X0128084Y0156856D02*
X0160000Y0156856D01*
X0160000Y0158454D02*
X0129683Y0158454D01*
X0131281Y0160053D02*
X0160000Y0160053D01*
X0160000Y0161651D02*
X0132880Y0161651D01*
X0109639Y0144068D02*
X0003600Y0144068D01*
X0003600Y0145666D02*
X0019394Y0145666D01*
X0019421Y0145639D02*
X0020965Y0145000D01*
X0022635Y0145000D01*
X0024179Y0145639D01*
X0025361Y0146821D01*
X0026000Y0148365D01*
X0026000Y0155235D01*
X0025361Y0156779D01*
X0024179Y0157961D01*
X0022635Y0158600D01*
X0020965Y0158600D01*
X0019421Y0157961D01*
X0018239Y0156779D01*
X0017600Y0155235D01*
X0017600Y0148365D01*
X0018239Y0146821D01*
X0019421Y0145639D01*
X0018056Y0147265D02*
X0003600Y0147265D01*
X0003600Y0148863D02*
X0017600Y0148863D01*
X0017600Y0150462D02*
X0003600Y0150462D01*
X0003600Y0152060D02*
X0017600Y0152060D01*
X0017600Y0153659D02*
X0003600Y0153659D01*
X0003600Y0155257D02*
X0017609Y0155257D01*
X0018316Y0156856D02*
X0003600Y0156856D01*
X0003600Y0158454D02*
X0020612Y0158454D01*
X0022988Y0158454D02*
X0030612Y0158454D01*
X0030965Y0158600D02*
X0029421Y0157961D01*
X0028239Y0156779D01*
X0027600Y0155235D01*
X0027600Y0148365D01*
X0028239Y0146821D01*
X0029421Y0145639D01*
X0030965Y0145000D01*
X0032635Y0145000D01*
X0034179Y0145639D01*
X0035361Y0146821D01*
X0036000Y0148365D01*
X0036000Y0155235D01*
X0035361Y0156779D01*
X0034179Y0157961D01*
X0032635Y0158600D01*
X0030965Y0158600D01*
X0032988Y0158454D02*
X0040612Y0158454D01*
X0040965Y0158600D02*
X0039421Y0157961D01*
X0038239Y0156779D01*
X0037600Y0155235D01*
X0037600Y0148365D01*
X0038239Y0146821D01*
X0039421Y0145639D01*
X0040965Y0145000D01*
X0042635Y0145000D01*
X0044179Y0145639D01*
X0045361Y0146821D01*
X0046000Y0148365D01*
X0046000Y0155235D01*
X0045361Y0156779D01*
X0044179Y0157961D01*
X0042635Y0158600D01*
X0040965Y0158600D01*
X0042988Y0158454D02*
X0050612Y0158454D01*
X0050965Y0158600D02*
X0049421Y0157961D01*
X0048239Y0156779D01*
X0047600Y0155235D01*
X0047600Y0148365D01*
X0048239Y0146821D01*
X0049421Y0145639D01*
X0050965Y0145000D01*
X0052635Y0145000D01*
X0054179Y0145639D01*
X0055361Y0146821D01*
X0056000Y0148365D01*
X0056000Y0155235D01*
X0055361Y0156779D01*
X0054179Y0157961D01*
X0052635Y0158600D01*
X0050965Y0158600D01*
X0048316Y0156856D02*
X0045284Y0156856D01*
X0045991Y0155257D02*
X0047609Y0155257D01*
X0047600Y0153659D02*
X0046000Y0153659D01*
X0046000Y0152060D02*
X0047600Y0152060D01*
X0047600Y0150462D02*
X0046000Y0150462D01*
X0046000Y0148863D02*
X0047600Y0148863D01*
X0048056Y0147265D02*
X0045544Y0147265D01*
X0044206Y0145666D02*
X0049394Y0145666D01*
X0054206Y0145666D02*
X0059394Y0145666D01*
X0059421Y0145639D02*
X0060965Y0145000D01*
X0062635Y0145000D01*
X0064179Y0145639D01*
X0065361Y0146821D01*
X0066000Y0148365D01*
X0066000Y0155235D01*
X0065361Y0156779D01*
X0064179Y0157961D01*
X0062635Y0158600D01*
X0060965Y0158600D01*
X0059421Y0157961D01*
X0058239Y0156779D01*
X0057600Y0155235D01*
X0057600Y0148365D01*
X0058239Y0146821D01*
X0059421Y0145639D01*
X0058056Y0147265D02*
X0055544Y0147265D01*
X0056000Y0148863D02*
X0057600Y0148863D01*
X0057600Y0150462D02*
X0056000Y0150462D01*
X0056000Y0152060D02*
X0057600Y0152060D01*
X0057600Y0153659D02*
X0056000Y0153659D01*
X0055991Y0155257D02*
X0057609Y0155257D01*
X0058316Y0156856D02*
X0055284Y0156856D01*
X0052988Y0158454D02*
X0060612Y0158454D01*
X0062988Y0158454D02*
X0070612Y0158454D01*
X0070965Y0158600D02*
X0069421Y0157961D01*
X0068239Y0156779D01*
X0067600Y0155235D01*
X0067600Y0148365D01*
X0068239Y0146821D01*
X0069421Y0145639D01*
X0070965Y0145000D01*
X0072635Y0145000D01*
X0074179Y0145639D01*
X0075361Y0146821D01*
X0076000Y0148365D01*
X0076000Y0155235D01*
X0075361Y0156779D01*
X0074179Y0157961D01*
X0072635Y0158600D01*
X0070965Y0158600D01*
X0068316Y0156856D02*
X0065284Y0156856D01*
X0065991Y0155257D02*
X0067609Y0155257D01*
X0067600Y0153659D02*
X0066000Y0153659D01*
X0066000Y0152060D02*
X0067600Y0152060D01*
X0067600Y0150462D02*
X0066000Y0150462D01*
X0066000Y0148863D02*
X0067600Y0148863D01*
X0068056Y0147265D02*
X0065544Y0147265D01*
X0064206Y0145666D02*
X0069394Y0145666D01*
X0074206Y0145666D02*
X0079394Y0145666D01*
X0079421Y0145639D02*
X0080965Y0145000D01*
X0082635Y0145000D01*
X0084179Y0145639D01*
X0085361Y0146821D01*
X0086000Y0148365D01*
X0086000Y0155235D01*
X0085361Y0156779D01*
X0084179Y0157961D01*
X0082635Y0158600D01*
X0080965Y0158600D01*
X0079421Y0157961D01*
X0078239Y0156779D01*
X0077600Y0155235D01*
X0077600Y0148365D01*
X0078239Y0146821D01*
X0079421Y0145639D01*
X0078056Y0147265D02*
X0075544Y0147265D01*
X0076000Y0148863D02*
X0077600Y0148863D01*
X0077600Y0150462D02*
X0076000Y0150462D01*
X0076000Y0152060D02*
X0077600Y0152060D01*
X0077600Y0153659D02*
X0076000Y0153659D01*
X0075991Y0155257D02*
X0077609Y0155257D01*
X0078316Y0156856D02*
X0075284Y0156856D01*
X0072988Y0158454D02*
X0080612Y0158454D01*
X0082988Y0158454D02*
X0090612Y0158454D01*
X0088316Y0156856D02*
X0085284Y0156856D01*
X0085991Y0155257D02*
X0087609Y0155257D01*
X0087600Y0153659D02*
X0086000Y0153659D01*
X0086000Y0152060D02*
X0087600Y0152060D01*
X0087600Y0150462D02*
X0086000Y0150462D01*
X0086000Y0148863D02*
X0087600Y0148863D01*
X0088056Y0147265D02*
X0085544Y0147265D01*
X0084206Y0145666D02*
X0089394Y0145666D01*
X0100048Y0134476D02*
X0065883Y0134476D01*
X0066950Y0132878D02*
X0098450Y0132878D01*
X0096851Y0131279D02*
X0067949Y0131279D01*
X0069548Y0129681D02*
X0095252Y0129681D01*
X0095000Y0128082D02*
X0093885Y0128082D01*
X0095479Y0126492D02*
X0095800Y0126172D01*
X0095800Y0125718D01*
X0095479Y0126492D01*
X0095483Y0126484D02*
X0095488Y0126484D01*
X0089715Y0128082D02*
X0083885Y0128082D01*
X0084179Y0127961D02*
X0082635Y0128600D01*
X0080965Y0128600D01*
X0079421Y0127961D01*
X0078239Y0126779D01*
X0077600Y0125235D01*
X0077600Y0118365D01*
X0078239Y0116821D01*
X0079421Y0115639D01*
X0080965Y0115000D01*
X0082635Y0115000D01*
X0084179Y0115639D01*
X0085361Y0116821D01*
X0086000Y0118365D01*
X0086000Y0125235D01*
X0085361Y0126779D01*
X0084179Y0127961D01*
X0085483Y0126484D02*
X0088117Y0126484D01*
X0087600Y0124885D02*
X0086000Y0124885D01*
X0086000Y0123287D02*
X0087600Y0123287D01*
X0087600Y0121688D02*
X0086000Y0121688D01*
X0086000Y0120090D02*
X0087600Y0120090D01*
X0087600Y0118491D02*
X0086000Y0118491D01*
X0085390Y0116893D02*
X0088210Y0116893D01*
X0088535Y0115294D02*
X0083346Y0115294D01*
X0080254Y0115294D02*
X0073346Y0115294D01*
X0075390Y0116893D02*
X0078210Y0116893D01*
X0077600Y0118491D02*
X0076000Y0118491D01*
X0076000Y0120090D02*
X0077600Y0120090D01*
X0077600Y0121688D02*
X0076000Y0121688D01*
X0076000Y0123287D02*
X0077600Y0123287D01*
X0077600Y0124885D02*
X0076000Y0124885D01*
X0075483Y0126484D02*
X0078117Y0126484D01*
X0079715Y0128082D02*
X0073885Y0128082D01*
X0067088Y0126484D02*
X0065483Y0126484D01*
X0065361Y0126779D02*
X0064179Y0127961D01*
X0062635Y0128600D01*
X0060965Y0128600D01*
X0059421Y0127961D01*
X0058239Y0126779D01*
X0057600Y0125235D01*
X0057600Y0118365D01*
X0058239Y0116821D01*
X0059421Y0115639D01*
X0060965Y0115000D01*
X0062635Y0115000D01*
X0064179Y0115639D01*
X0065361Y0116821D01*
X0066000Y0118365D01*
X0066000Y0125235D01*
X0065361Y0126779D01*
X0065489Y0128082D02*
X0063885Y0128082D01*
X0066000Y0124885D02*
X0067600Y0124885D01*
X0067600Y0123287D02*
X0066000Y0123287D01*
X0066000Y0121688D02*
X0067600Y0121688D01*
X0067600Y0120090D02*
X0066000Y0120090D01*
X0066000Y0118491D02*
X0067600Y0118491D01*
X0068210Y0116893D02*
X0065390Y0116893D01*
X0063346Y0115294D02*
X0070254Y0115294D01*
X0060254Y0115294D02*
X0053346Y0115294D01*
X0052635Y0115000D02*
X0054179Y0115639D01*
X0055361Y0116821D01*
X0056000Y0118365D01*
X0056000Y0125235D01*
X0055361Y0126779D01*
X0054179Y0127961D01*
X0052635Y0128600D01*
X0050965Y0128600D01*
X0049421Y0127961D01*
X0048239Y0126779D01*
X0047600Y0125235D01*
X0047600Y0118365D01*
X0048239Y0116821D01*
X0049421Y0115639D01*
X0050965Y0115000D01*
X0052635Y0115000D01*
X0050254Y0115294D02*
X0043346Y0115294D01*
X0042635Y0115000D02*
X0044179Y0115639D01*
X0045361Y0116821D01*
X0046000Y0118365D01*
X0046000Y0125235D01*
X0045361Y0126779D01*
X0044179Y0127961D01*
X0042635Y0128600D01*
X0040965Y0128600D01*
X0039421Y0127961D01*
X0038239Y0126779D01*
X0037600Y0125235D01*
X0037600Y0118365D01*
X0038239Y0116821D01*
X0039421Y0115639D01*
X0040965Y0115000D01*
X0042635Y0115000D01*
X0040254Y0115294D02*
X0037812Y0115294D01*
X0036188Y0115294D02*
X0033346Y0115294D01*
X0034423Y0113696D02*
X0029324Y0113696D01*
X0027726Y0112097D02*
X0034200Y0112097D01*
X0035141Y0110499D02*
X0026127Y0110499D01*
X0023667Y0113696D02*
X0003600Y0113696D01*
X0023346Y0115294D02*
X0025266Y0115294D01*
X0025390Y0116893D02*
X0026864Y0116893D01*
X0027600Y0118491D02*
X0026000Y0118491D01*
X0026000Y0120090D02*
X0027600Y0120090D01*
X0027600Y0121688D02*
X0026000Y0121688D01*
X0026000Y0123287D02*
X0027600Y0123287D01*
X0027600Y0124885D02*
X0026000Y0124885D01*
X0025483Y0126484D02*
X0028117Y0126484D01*
X0029715Y0128082D02*
X0023885Y0128082D01*
X0033885Y0128082D02*
X0039715Y0128082D01*
X0038117Y0126484D02*
X0035483Y0126484D01*
X0036000Y0124885D02*
X0037600Y0124885D01*
X0037600Y0123287D02*
X0036000Y0123287D01*
X0036000Y0121688D02*
X0037600Y0121688D01*
X0037600Y0120090D02*
X0036000Y0120090D01*
X0036000Y0118491D02*
X0037600Y0118491D01*
X0038210Y0116893D02*
X0035390Y0116893D01*
X0043885Y0128082D02*
X0049715Y0128082D01*
X0048117Y0126484D02*
X0045483Y0126484D01*
X0046000Y0124885D02*
X0047600Y0124885D01*
X0047600Y0123287D02*
X0046000Y0123287D01*
X0046000Y0121688D02*
X0047600Y0121688D01*
X0047600Y0120090D02*
X0046000Y0120090D01*
X0046000Y0118491D02*
X0047600Y0118491D01*
X0048210Y0116893D02*
X0045390Y0116893D01*
X0046228Y0105800D02*
X0052572Y0105800D01*
X0054572Y0103800D01*
X0053715Y0103800D01*
X0053715Y0104628D01*
X0052778Y0105565D01*
X0047515Y0105565D01*
X0046800Y0104850D01*
X0046085Y0105565D01*
X0045994Y0105565D01*
X0046228Y0105800D01*
X0046132Y0105703D02*
X0052668Y0105703D01*
X0053715Y0104105D02*
X0054267Y0104105D01*
X0057028Y0101400D02*
X0057995Y0101400D01*
X0057995Y0097988D01*
X0058933Y0097050D01*
X0066121Y0097050D01*
X0066600Y0096572D01*
X0066600Y0096200D01*
X0059428Y0096200D01*
X0057800Y0097828D01*
X0057800Y0100628D01*
X0057028Y0101400D01*
X0057521Y0100908D02*
X0057995Y0100908D01*
X0057995Y0099309D02*
X0057800Y0099309D01*
X0057918Y0097711D02*
X0058272Y0097711D01*
X0061912Y0091317D02*
X0086600Y0091317D01*
X0086032Y0089718D02*
X0063510Y0089718D01*
X0061050Y0086521D02*
X0057507Y0086521D01*
X0055909Y0088120D02*
X0059452Y0088120D01*
X0057853Y0089718D02*
X0054310Y0089718D01*
X0054079Y0091317D02*
X0052712Y0091317D01*
X0052736Y0092915D02*
X0051113Y0092915D01*
X0052665Y0094514D02*
X0041115Y0094514D01*
X0044081Y0086521D02*
X0045119Y0086521D01*
X0046728Y0084923D02*
X0046872Y0084923D01*
X0048881Y0086521D02*
X0051850Y0086521D01*
X0050252Y0088120D02*
X0049800Y0088120D01*
X0047021Y0078529D02*
X0046579Y0078529D01*
X0053272Y0078529D02*
X0053443Y0078529D01*
X0052915Y0065740D02*
X0054071Y0065740D01*
X0054071Y0064142D02*
X0052915Y0064142D01*
X0052915Y0062543D02*
X0054071Y0062543D01*
X0054071Y0060945D02*
X0052915Y0060945D01*
X0052915Y0059346D02*
X0054071Y0059346D01*
X0054071Y0057748D02*
X0052915Y0057748D01*
X0059857Y0044960D02*
X0062600Y0044960D01*
X0062600Y0043361D02*
X0059857Y0043361D01*
X0059857Y0041763D02*
X0062600Y0041763D01*
X0062600Y0040164D02*
X0059857Y0040164D01*
X0059857Y0038566D02*
X0062600Y0038566D01*
X0062600Y0036967D02*
X0059857Y0036967D01*
X0059857Y0035369D02*
X0062600Y0035369D01*
X0062600Y0033770D02*
X0059857Y0033770D01*
X0059857Y0032172D02*
X0062600Y0032172D01*
X0062600Y0030573D02*
X0059371Y0030573D01*
X0059857Y0009793D02*
X0160000Y0009793D01*
X0160000Y0011391D02*
X0144664Y0011391D01*
X0146263Y0012990D02*
X0160000Y0012990D01*
X0160000Y0014588D02*
X0147650Y0014588D01*
X0147650Y0016187D02*
X0160000Y0016187D01*
X0160000Y0017785D02*
X0147650Y0017785D01*
X0147490Y0019384D02*
X0160000Y0019384D01*
X0160000Y0020982D02*
X0145891Y0020982D01*
X0144292Y0022581D02*
X0160000Y0022581D01*
X0160000Y0024179D02*
X0146550Y0024179D01*
X0146550Y0025778D02*
X0160000Y0025778D01*
X0160000Y0027376D02*
X0146550Y0027376D01*
X0146550Y0028975D02*
X0160000Y0028975D01*
X0160000Y0030573D02*
X0146550Y0030573D01*
X0146550Y0032172D02*
X0160000Y0032172D01*
X0160000Y0033770D02*
X0146550Y0033770D01*
X0154114Y0051354D02*
X0160000Y0051354D01*
X0160000Y0052952D02*
X0154600Y0052952D01*
X0158715Y0054551D02*
X0160000Y0054551D01*
X0160000Y0056149D02*
X0158715Y0056149D01*
X0158715Y0057748D02*
X0160000Y0057748D01*
X0160000Y0059346D02*
X0158715Y0059346D01*
X0149931Y0081726D02*
X0148154Y0081726D01*
X0149752Y0083324D02*
X0149869Y0083324D01*
X0151677Y0085248D02*
X0153428Y0087000D01*
X0153800Y0087000D01*
X0153800Y0086628D01*
X0152572Y0085400D01*
X0152043Y0085400D01*
X0151677Y0085248D01*
X0152950Y0086521D02*
X0153693Y0086521D01*
X0150490Y0089718D02*
X0146065Y0089718D01*
X0146134Y0091317D02*
X0150998Y0091317D01*
X0148891Y0088120D02*
X0144729Y0088120D01*
X0142590Y0086521D02*
X0147293Y0086521D01*
X0145694Y0084923D02*
X0142967Y0084923D01*
X0142967Y0083324D02*
X0144096Y0083324D01*
X0139090Y0092081D02*
X0138913Y0092081D01*
X0138794Y0092200D01*
X0138972Y0092200D01*
X0139090Y0092081D01*
X0137000Y0090600D02*
X0133800Y0093800D01*
X0131801Y0091839D02*
X0131434Y0092206D01*
X0129786Y0090557D01*
X0130200Y0089557D01*
X0130200Y0088443D01*
X0129774Y0087414D01*
X0128994Y0086634D01*
X0129028Y0086600D01*
X0131562Y0086600D01*
X0131762Y0086800D01*
X0131106Y0087456D01*
X0131106Y0091144D01*
X0131801Y0091839D01*
X0131278Y0091317D02*
X0130545Y0091317D01*
X0130133Y0089718D02*
X0131106Y0089718D01*
X0131106Y0088120D02*
X0130066Y0088120D01*
X0137000Y0089400D02*
X0137036Y0089300D01*
X0137000Y0089400D02*
X0137000Y0090600D01*
X0127476Y0097711D02*
X0126124Y0097711D01*
X0126124Y0099309D02*
X0127476Y0099309D01*
X0127476Y0102506D02*
X0126124Y0102506D01*
X0126124Y0104105D02*
X0127476Y0104105D01*
X0119681Y0108900D02*
X0115565Y0108900D01*
X0115565Y0110499D02*
X0119491Y0110499D01*
X0119491Y0112097D02*
X0115565Y0112097D01*
X0116276Y0113696D02*
X0114647Y0113696D01*
X0118736Y0116893D02*
X0120063Y0116893D01*
X0102172Y0115000D02*
X0099000Y0111828D01*
X0099000Y0114572D01*
X0099400Y0114972D01*
X0099400Y0115660D01*
X0099421Y0115639D01*
X0100965Y0115000D01*
X0102172Y0115000D01*
X0100867Y0113696D02*
X0099000Y0113696D01*
X0099000Y0112097D02*
X0099269Y0112097D01*
X0099400Y0115294D02*
X0100254Y0115294D01*
X0095400Y0116628D02*
X0095000Y0116228D01*
X0095000Y0116200D01*
X0094740Y0116200D01*
X0095361Y0116821D01*
X0095400Y0116916D01*
X0095400Y0116628D01*
X0095390Y0116893D02*
X0095400Y0116893D01*
X0095762Y0117791D02*
X0095800Y0117828D01*
X0095800Y0117882D01*
X0095762Y0117791D01*
X0109758Y0076930D02*
X0111143Y0076930D01*
X0110433Y0075332D02*
X0108160Y0075332D01*
X0107800Y0073733D02*
X0110433Y0073733D01*
X0110433Y0074300D02*
X0110433Y0072882D01*
X0110556Y0072424D01*
X0110793Y0072014D01*
X0111128Y0071679D01*
X0111538Y0071442D01*
X0111996Y0071319D01*
X0116564Y0071319D01*
X0116564Y0074300D01*
X0116564Y0074300D01*
X0110433Y0074300D01*
X0110723Y0072134D02*
X0107800Y0072134D01*
X0116564Y0072134D02*
X0116564Y0072134D01*
X0116564Y0073733D02*
X0116564Y0073733D01*
X0116564Y0074300D02*
X0116564Y0074300D01*
X0091800Y0065740D02*
X0067400Y0065740D01*
X0067400Y0064142D02*
X0091800Y0064142D01*
X0072534Y0067339D02*
X0070783Y0067339D01*
X0071431Y0068937D02*
X0071969Y0068937D01*
X0071969Y0070536D02*
X0071431Y0070536D01*
X0058210Y0116893D02*
X0055390Y0116893D01*
X0056000Y0118491D02*
X0057600Y0118491D01*
X0057600Y0120090D02*
X0056000Y0120090D01*
X0056000Y0121688D02*
X0057600Y0121688D01*
X0057600Y0123287D02*
X0056000Y0123287D01*
X0056000Y0124885D02*
X0057600Y0124885D01*
X0058117Y0126484D02*
X0055483Y0126484D01*
X0053885Y0128082D02*
X0059715Y0128082D01*
X0039394Y0145666D02*
X0034206Y0145666D01*
X0035544Y0147265D02*
X0038056Y0147265D01*
X0037600Y0148863D02*
X0036000Y0148863D01*
X0036000Y0150462D02*
X0037600Y0150462D01*
X0037600Y0152060D02*
X0036000Y0152060D01*
X0036000Y0153659D02*
X0037600Y0153659D01*
X0037609Y0155257D02*
X0035991Y0155257D01*
X0035284Y0156856D02*
X0038316Y0156856D01*
X0028316Y0156856D02*
X0025284Y0156856D01*
X0025991Y0155257D02*
X0027609Y0155257D01*
X0027600Y0153659D02*
X0026000Y0153659D01*
X0026000Y0152060D02*
X0027600Y0152060D01*
X0027600Y0150462D02*
X0026000Y0150462D01*
X0026000Y0148863D02*
X0027600Y0148863D01*
X0028056Y0147265D02*
X0025544Y0147265D01*
X0024206Y0145666D02*
X0029394Y0145666D01*
X0049268Y0168045D02*
X0054332Y0168045D01*
X0054977Y0167400D02*
X0058623Y0167400D01*
X0061200Y0169977D01*
X0061200Y0173623D01*
X0058623Y0176200D01*
X0054977Y0176200D01*
X0052400Y0173623D01*
X0052400Y0169977D01*
X0054977Y0167400D01*
X0052734Y0169644D02*
X0050866Y0169644D01*
X0051200Y0171242D02*
X0052400Y0171242D01*
X0052400Y0172841D02*
X0051200Y0172841D01*
X0050383Y0174439D02*
X0053217Y0174439D01*
X0054815Y0176038D02*
X0048785Y0176038D01*
X0048859Y0177636D02*
X0054741Y0177636D01*
X0054977Y0177400D02*
X0058623Y0177400D01*
X0061200Y0179977D01*
X0061200Y0183623D01*
X0058623Y0186200D01*
X0054977Y0186200D01*
X0052400Y0183623D01*
X0052400Y0179977D01*
X0054977Y0177400D01*
X0053143Y0179235D02*
X0050457Y0179235D01*
X0051200Y0180833D02*
X0052400Y0180833D01*
X0052400Y0182432D02*
X0051200Y0182432D01*
X0050792Y0184030D02*
X0052808Y0184030D01*
X0054406Y0185629D02*
X0049194Y0185629D01*
X0059194Y0185629D02*
X0064406Y0185629D01*
X0064977Y0186200D02*
X0062400Y0183623D01*
X0062400Y0179977D01*
X0064977Y0177400D01*
X0068623Y0177400D01*
X0071200Y0179977D01*
X0071200Y0183623D01*
X0068623Y0186200D01*
X0064977Y0186200D01*
X0062808Y0184030D02*
X0060792Y0184030D01*
X0061200Y0182432D02*
X0062400Y0182432D01*
X0062400Y0180833D02*
X0061200Y0180833D01*
X0060457Y0179235D02*
X0063143Y0179235D01*
X0064741Y0177636D02*
X0058859Y0177636D01*
X0058785Y0176038D02*
X0064815Y0176038D01*
X0064977Y0176200D02*
X0062400Y0173623D01*
X0062400Y0169977D01*
X0064977Y0167400D01*
X0068623Y0167400D01*
X0071200Y0169977D01*
X0071200Y0173623D01*
X0068623Y0176200D01*
X0064977Y0176200D01*
X0063217Y0174439D02*
X0060383Y0174439D01*
X0061200Y0172841D02*
X0062400Y0172841D01*
X0062400Y0171242D02*
X0061200Y0171242D01*
X0060866Y0169644D02*
X0062734Y0169644D01*
X0064332Y0168045D02*
X0059268Y0168045D01*
X0069268Y0168045D02*
X0074332Y0168045D01*
X0074977Y0167400D02*
X0078623Y0167400D01*
X0081200Y0169977D01*
X0081200Y0173623D01*
X0078623Y0176200D01*
X0074977Y0176200D01*
X0072400Y0173623D01*
X0072400Y0169977D01*
X0074977Y0167400D01*
X0072734Y0169644D02*
X0070866Y0169644D01*
X0071200Y0171242D02*
X0072400Y0171242D01*
X0072400Y0172841D02*
X0071200Y0172841D01*
X0070383Y0174439D02*
X0073217Y0174439D01*
X0074815Y0176038D02*
X0068785Y0176038D01*
X0068859Y0177636D02*
X0074741Y0177636D01*
X0074977Y0177400D02*
X0078623Y0177400D01*
X0081200Y0179977D01*
X0081200Y0183623D01*
X0078623Y0186200D01*
X0074977Y0186200D01*
X0072400Y0183623D01*
X0072400Y0179977D01*
X0074977Y0177400D01*
X0073143Y0179235D02*
X0070457Y0179235D01*
X0071200Y0180833D02*
X0072400Y0180833D01*
X0072400Y0182432D02*
X0071200Y0182432D01*
X0070792Y0184030D02*
X0072808Y0184030D01*
X0074406Y0185629D02*
X0069194Y0185629D01*
X0079194Y0185629D02*
X0084406Y0185629D01*
X0084977Y0186200D02*
X0082400Y0183623D01*
X0082400Y0179977D01*
X0084977Y0177400D01*
X0088623Y0177400D01*
X0091200Y0179977D01*
X0091200Y0183623D01*
X0088623Y0186200D01*
X0084977Y0186200D01*
X0082808Y0184030D02*
X0080792Y0184030D01*
X0081200Y0182432D02*
X0082400Y0182432D01*
X0082400Y0180833D02*
X0081200Y0180833D01*
X0080457Y0179235D02*
X0083143Y0179235D01*
X0084741Y0177636D02*
X0078859Y0177636D01*
X0078785Y0176038D02*
X0084815Y0176038D01*
X0084977Y0176200D02*
X0082400Y0173623D01*
X0082400Y0169977D01*
X0084977Y0167400D01*
X0088623Y0167400D01*
X0091200Y0169977D01*
X0091200Y0173623D01*
X0088623Y0176200D01*
X0084977Y0176200D01*
X0083217Y0174439D02*
X0080383Y0174439D01*
X0081200Y0172841D02*
X0082400Y0172841D01*
X0082400Y0171242D02*
X0081200Y0171242D01*
X0080866Y0169644D02*
X0082734Y0169644D01*
X0084332Y0168045D02*
X0079268Y0168045D01*
X0089268Y0168045D02*
X0094332Y0168045D01*
X0092734Y0169644D02*
X0090866Y0169644D01*
X0091200Y0171242D02*
X0092400Y0171242D01*
X0092400Y0172841D02*
X0091200Y0172841D01*
X0090383Y0174439D02*
X0093217Y0174439D01*
X0094815Y0176038D02*
X0088785Y0176038D01*
X0088859Y0177636D02*
X0094741Y0177636D01*
X0093143Y0179235D02*
X0090457Y0179235D01*
X0091200Y0180833D02*
X0092400Y0180833D01*
X0092400Y0182432D02*
X0091200Y0182432D01*
X0090792Y0184030D02*
X0092808Y0184030D01*
X0094406Y0185629D02*
X0089194Y0185629D01*
X0160000Y0188826D02*
X0003600Y0188826D01*
X0003600Y0190424D02*
X0160000Y0190424D01*
X0160000Y0192023D02*
X0003600Y0192023D01*
X0003600Y0193621D02*
X0160000Y0193621D01*
X0160000Y0195000D02*
X0003600Y0195000D01*
X0003600Y0003600D01*
X0160000Y0003600D01*
X0160000Y0195000D01*
X0160000Y0008194D02*
X0003600Y0008194D01*
X0003600Y0006596D02*
X0160000Y0006596D01*
X0160000Y0004997D02*
X0003600Y0004997D01*
X0003600Y0009793D02*
X0013743Y0009793D01*
X0013743Y0011391D02*
X0003600Y0011391D01*
X0003600Y0012990D02*
X0013743Y0012990D01*
X0013743Y0014588D02*
X0003600Y0014588D01*
X0003600Y0016187D02*
X0013743Y0016187D01*
X0013743Y0017785D02*
X0003600Y0017785D01*
X0003600Y0019384D02*
X0013743Y0019384D01*
X0014152Y0020982D02*
X0003600Y0020982D01*
M02*
