G75*
%MOIN*%
%OFA0B0*%
%FSLAX25Y25*%
%IPPOS*%
%LPD*%
%AMOC8*
5,1,8,0,0,1.08239X$1,22.5*
%
%ADD10C,0.00000*%
%ADD11R,0.05118X0.06299*%
%ADD12R,0.02600X0.08000*%
%ADD13R,0.03150X0.05512*%
%ADD14R,0.07087X0.08661*%
%ADD15R,0.20000X0.07000*%
%ADD16R,0.05000X0.02200*%
%ADD17R,0.02200X0.05000*%
D10*
X0001800Y0001800D02*
X0001800Y0196800D01*
X0161800Y0196800D01*
X0161800Y0001800D01*
X0001800Y0001800D01*
D11*
X0037863Y0056800D03*
X0037863Y0066800D03*
X0045737Y0066800D03*
X0045737Y0056800D03*
X0117863Y0056800D03*
X0125737Y0056800D03*
D12*
X0124300Y0079700D03*
X0119300Y0079700D03*
X0114300Y0079700D03*
X0129300Y0079700D03*
X0134300Y0079700D03*
X0139300Y0079700D03*
X0144300Y0079700D03*
X0149300Y0079700D03*
X0149300Y0103900D03*
X0144300Y0103900D03*
X0139300Y0103900D03*
X0134300Y0103900D03*
X0129300Y0103900D03*
X0124300Y0103900D03*
X0119300Y0103900D03*
X0114300Y0103900D03*
X0049300Y0103900D03*
X0044300Y0103900D03*
X0039300Y0103900D03*
X0034300Y0103900D03*
X0029300Y0103900D03*
X0024300Y0103900D03*
X0019300Y0103900D03*
X0014300Y0103900D03*
X0014300Y0079700D03*
X0019300Y0079700D03*
X0024300Y0079700D03*
X0029300Y0079700D03*
X0034300Y0079700D03*
X0039300Y0079700D03*
X0044300Y0079700D03*
X0049300Y0079700D03*
D13*
X0075894Y0029005D03*
X0081800Y0029005D03*
X0087706Y0029005D03*
D14*
X0081800Y0041131D03*
D15*
X0100800Y0056800D03*
X0062800Y0056800D03*
D16*
G36*
X0077963Y0075271D02*
X0074429Y0071737D01*
X0072873Y0073293D01*
X0076407Y0076827D01*
X0077963Y0075271D01*
G37*
G36*
X0080190Y0073044D02*
X0076656Y0069510D01*
X0075100Y0071066D01*
X0078634Y0074600D01*
X0080190Y0073044D01*
G37*
G36*
X0075736Y0077498D02*
X0072202Y0073964D01*
X0070646Y0075520D01*
X0074180Y0079054D01*
X0075736Y0077498D01*
G37*
G36*
X0073508Y0079725D02*
X0069974Y0076191D01*
X0068418Y0077747D01*
X0071952Y0081281D01*
X0073508Y0079725D01*
G37*
G36*
X0071281Y0081952D02*
X0067747Y0078418D01*
X0066191Y0079974D01*
X0069725Y0083508D01*
X0071281Y0081952D01*
G37*
G36*
X0069054Y0084180D02*
X0065520Y0080646D01*
X0063964Y0082202D01*
X0067498Y0085736D01*
X0069054Y0084180D01*
G37*
G36*
X0066827Y0086407D02*
X0063293Y0082873D01*
X0061737Y0084429D01*
X0065271Y0087963D01*
X0066827Y0086407D01*
G37*
G36*
X0064600Y0088634D02*
X0061066Y0085100D01*
X0059510Y0086656D01*
X0063044Y0090190D01*
X0064600Y0088634D01*
G37*
G36*
X0088500Y0112534D02*
X0084966Y0109000D01*
X0083410Y0110556D01*
X0086944Y0114090D01*
X0088500Y0112534D01*
G37*
G36*
X0090727Y0110307D02*
X0087193Y0106773D01*
X0085637Y0108329D01*
X0089171Y0111863D01*
X0090727Y0110307D01*
G37*
G36*
X0092954Y0108080D02*
X0089420Y0104546D01*
X0087864Y0106102D01*
X0091398Y0109636D01*
X0092954Y0108080D01*
G37*
G36*
X0095182Y0105853D02*
X0091648Y0102319D01*
X0090092Y0103875D01*
X0093626Y0107409D01*
X0095182Y0105853D01*
G37*
G36*
X0097409Y0103626D02*
X0093875Y0100092D01*
X0092319Y0101648D01*
X0095853Y0105182D01*
X0097409Y0103626D01*
G37*
G36*
X0099636Y0101398D02*
X0096102Y0097864D01*
X0094546Y0099420D01*
X0098080Y0102954D01*
X0099636Y0101398D01*
G37*
G36*
X0101863Y0099171D02*
X0098329Y0095637D01*
X0096773Y0097193D01*
X0100307Y0100727D01*
X0101863Y0099171D01*
G37*
G36*
X0104090Y0096944D02*
X0100556Y0093410D01*
X0099000Y0094966D01*
X0102534Y0098500D01*
X0104090Y0096944D01*
G37*
D17*
G36*
X0104090Y0086656D02*
X0102534Y0085100D01*
X0099000Y0088634D01*
X0100556Y0090190D01*
X0104090Y0086656D01*
G37*
G36*
X0101863Y0084429D02*
X0100307Y0082873D01*
X0096773Y0086407D01*
X0098329Y0087963D01*
X0101863Y0084429D01*
G37*
G36*
X0099636Y0082202D02*
X0098080Y0080646D01*
X0094546Y0084180D01*
X0096102Y0085736D01*
X0099636Y0082202D01*
G37*
G36*
X0097409Y0079974D02*
X0095853Y0078418D01*
X0092319Y0081952D01*
X0093875Y0083508D01*
X0097409Y0079974D01*
G37*
G36*
X0095182Y0077747D02*
X0093626Y0076191D01*
X0090092Y0079725D01*
X0091648Y0081281D01*
X0095182Y0077747D01*
G37*
G36*
X0092954Y0075520D02*
X0091398Y0073964D01*
X0087864Y0077498D01*
X0089420Y0079054D01*
X0092954Y0075520D01*
G37*
G36*
X0090727Y0073293D02*
X0089171Y0071737D01*
X0085637Y0075271D01*
X0087193Y0076827D01*
X0090727Y0073293D01*
G37*
G36*
X0088500Y0071066D02*
X0086944Y0069510D01*
X0083410Y0073044D01*
X0084966Y0074600D01*
X0088500Y0071066D01*
G37*
G36*
X0069054Y0099420D02*
X0067498Y0097864D01*
X0063964Y0101398D01*
X0065520Y0102954D01*
X0069054Y0099420D01*
G37*
G36*
X0071281Y0101648D02*
X0069725Y0100092D01*
X0066191Y0103626D01*
X0067747Y0105182D01*
X0071281Y0101648D01*
G37*
G36*
X0073508Y0103875D02*
X0071952Y0102319D01*
X0068418Y0105853D01*
X0069974Y0107409D01*
X0073508Y0103875D01*
G37*
G36*
X0075736Y0106102D02*
X0074180Y0104546D01*
X0070646Y0108080D01*
X0072202Y0109636D01*
X0075736Y0106102D01*
G37*
G36*
X0077963Y0108329D02*
X0076407Y0106773D01*
X0072873Y0110307D01*
X0074429Y0111863D01*
X0077963Y0108329D01*
G37*
G36*
X0080190Y0110556D02*
X0078634Y0109000D01*
X0075100Y0112534D01*
X0076656Y0114090D01*
X0080190Y0110556D01*
G37*
G36*
X0066827Y0097193D02*
X0065271Y0095637D01*
X0061737Y0099171D01*
X0063293Y0100727D01*
X0066827Y0097193D01*
G37*
G36*
X0064600Y0094966D02*
X0063044Y0093410D01*
X0059510Y0096944D01*
X0061066Y0098500D01*
X0064600Y0094966D01*
G37*
M02*
