G75*
%MOIN*%
%OFA0B0*%
%FSLAX25Y25*%
%IPPOS*%
%LPD*%
%AMOC8*
5,1,8,0,0,1.08239X$1,22.5*
%
%ADD10C,0.00000*%
%ADD11OC8,0.08500*%
%ADD12R,0.05118X0.06299*%
%ADD13R,0.02600X0.08000*%
%ADD14C,0.05200*%
%ADD15R,0.03937X0.05906*%
%ADD16R,0.03937X0.07874*%
%ADD17C,0.08661*%
%ADD18OC8,0.06000*%
%ADD19R,0.20000X0.07000*%
%ADD20OC8,0.05600*%
%ADD21R,0.05000X0.02200*%
%ADD22R,0.02200X0.05000*%
%ADD23C,0.05000*%
%ADD24C,0.00800*%
%ADD25C,0.02400*%
%ADD26C,0.01600*%
D10*
X0001800Y0001800D02*
X0001800Y0196800D01*
X0161800Y0196800D01*
X0161800Y0001800D01*
X0001800Y0001800D01*
D11*
X0071800Y0016800D03*
X0091800Y0016800D03*
X0111800Y0016800D03*
X0141800Y0016800D03*
D12*
X0125737Y0056800D03*
X0117863Y0056800D03*
X0045737Y0056800D03*
X0045737Y0066800D03*
X0037863Y0066800D03*
X0037863Y0056800D03*
D13*
X0039300Y0079700D03*
X0034300Y0079700D03*
X0029300Y0079700D03*
X0024300Y0079700D03*
X0019300Y0079700D03*
X0014300Y0079700D03*
X0014300Y0103900D03*
X0019300Y0103900D03*
X0024300Y0103900D03*
X0029300Y0103900D03*
X0034300Y0103900D03*
X0039300Y0103900D03*
X0044300Y0103900D03*
X0049300Y0103900D03*
X0049300Y0079700D03*
X0044300Y0079700D03*
X0114300Y0079700D03*
X0119300Y0079700D03*
X0124300Y0079700D03*
X0129300Y0079700D03*
X0134300Y0079700D03*
X0139300Y0079700D03*
X0144300Y0079700D03*
X0149300Y0079700D03*
X0149300Y0103900D03*
X0144300Y0103900D03*
X0139300Y0103900D03*
X0134300Y0103900D03*
X0129300Y0103900D03*
X0124300Y0103900D03*
X0119300Y0103900D03*
X0114300Y0103900D03*
D14*
X0101800Y0119200D02*
X0101800Y0124400D01*
X0091800Y0124400D02*
X0091800Y0119200D01*
X0081800Y0119200D02*
X0081800Y0124400D01*
X0071800Y0124400D02*
X0071800Y0119200D01*
X0061800Y0119200D02*
X0061800Y0124400D01*
X0051800Y0124400D02*
X0051800Y0119200D01*
X0041800Y0119200D02*
X0041800Y0124400D01*
X0031800Y0124400D02*
X0031800Y0119200D01*
X0021800Y0119200D02*
X0021800Y0124400D01*
X0021800Y0149200D02*
X0021800Y0154400D01*
X0031800Y0154400D02*
X0031800Y0149200D01*
X0041800Y0149200D02*
X0041800Y0154400D01*
X0051800Y0154400D02*
X0051800Y0149200D01*
X0061800Y0149200D02*
X0061800Y0154400D01*
X0071800Y0154400D02*
X0071800Y0149200D01*
X0081800Y0149200D02*
X0081800Y0154400D01*
X0091800Y0154400D02*
X0091800Y0149200D01*
X0101800Y0149200D02*
X0101800Y0154400D01*
D15*
X0087702Y0029001D03*
X0075898Y0029001D03*
D16*
X0081800Y0030001D03*
D17*
X0081800Y0043454D02*
X0081800Y0043454D01*
X0081800Y0037548D01*
X0081800Y0037548D01*
X0081800Y0043454D01*
D18*
X0136800Y0171800D03*
X0136800Y0181800D03*
X0146800Y0181800D03*
X0146800Y0171800D03*
D19*
X0100800Y0056800D03*
X0062800Y0056800D03*
D20*
X0066800Y0171800D03*
X0066800Y0181800D03*
X0056800Y0181800D03*
X0056800Y0171800D03*
X0046800Y0171800D03*
X0046800Y0181800D03*
X0076800Y0181800D03*
X0076800Y0171800D03*
X0086800Y0171800D03*
X0086800Y0181800D03*
X0096800Y0181800D03*
X0096800Y0171800D03*
X0106800Y0171800D03*
X0106800Y0181800D03*
D21*
G36*
X0088500Y0112534D02*
X0084966Y0109000D01*
X0083410Y0110556D01*
X0086944Y0114090D01*
X0088500Y0112534D01*
G37*
G36*
X0090727Y0110307D02*
X0087193Y0106773D01*
X0085637Y0108329D01*
X0089171Y0111863D01*
X0090727Y0110307D01*
G37*
G36*
X0092954Y0108080D02*
X0089420Y0104546D01*
X0087864Y0106102D01*
X0091398Y0109636D01*
X0092954Y0108080D01*
G37*
G36*
X0095182Y0105853D02*
X0091648Y0102319D01*
X0090092Y0103875D01*
X0093626Y0107409D01*
X0095182Y0105853D01*
G37*
G36*
X0097409Y0103626D02*
X0093875Y0100092D01*
X0092319Y0101648D01*
X0095853Y0105182D01*
X0097409Y0103626D01*
G37*
G36*
X0099636Y0101398D02*
X0096102Y0097864D01*
X0094546Y0099420D01*
X0098080Y0102954D01*
X0099636Y0101398D01*
G37*
G36*
X0101863Y0099171D02*
X0098329Y0095637D01*
X0096773Y0097193D01*
X0100307Y0100727D01*
X0101863Y0099171D01*
G37*
G36*
X0104090Y0096944D02*
X0100556Y0093410D01*
X0099000Y0094966D01*
X0102534Y0098500D01*
X0104090Y0096944D01*
G37*
G36*
X0080190Y0073044D02*
X0076656Y0069510D01*
X0075100Y0071066D01*
X0078634Y0074600D01*
X0080190Y0073044D01*
G37*
G36*
X0077963Y0075271D02*
X0074429Y0071737D01*
X0072873Y0073293D01*
X0076407Y0076827D01*
X0077963Y0075271D01*
G37*
G36*
X0075736Y0077498D02*
X0072202Y0073964D01*
X0070646Y0075520D01*
X0074180Y0079054D01*
X0075736Y0077498D01*
G37*
G36*
X0073508Y0079725D02*
X0069974Y0076191D01*
X0068418Y0077747D01*
X0071952Y0081281D01*
X0073508Y0079725D01*
G37*
G36*
X0071281Y0081952D02*
X0067747Y0078418D01*
X0066191Y0079974D01*
X0069725Y0083508D01*
X0071281Y0081952D01*
G37*
G36*
X0069054Y0084180D02*
X0065520Y0080646D01*
X0063964Y0082202D01*
X0067498Y0085736D01*
X0069054Y0084180D01*
G37*
G36*
X0066827Y0086407D02*
X0063293Y0082873D01*
X0061737Y0084429D01*
X0065271Y0087963D01*
X0066827Y0086407D01*
G37*
G36*
X0064600Y0088634D02*
X0061066Y0085100D01*
X0059510Y0086656D01*
X0063044Y0090190D01*
X0064600Y0088634D01*
G37*
D22*
G36*
X0064600Y0094966D02*
X0063044Y0093410D01*
X0059510Y0096944D01*
X0061066Y0098500D01*
X0064600Y0094966D01*
G37*
G36*
X0066827Y0097193D02*
X0065271Y0095637D01*
X0061737Y0099171D01*
X0063293Y0100727D01*
X0066827Y0097193D01*
G37*
G36*
X0069054Y0099420D02*
X0067498Y0097864D01*
X0063964Y0101398D01*
X0065520Y0102954D01*
X0069054Y0099420D01*
G37*
G36*
X0071281Y0101648D02*
X0069725Y0100092D01*
X0066191Y0103626D01*
X0067747Y0105182D01*
X0071281Y0101648D01*
G37*
G36*
X0073508Y0103875D02*
X0071952Y0102319D01*
X0068418Y0105853D01*
X0069974Y0107409D01*
X0073508Y0103875D01*
G37*
G36*
X0075736Y0106102D02*
X0074180Y0104546D01*
X0070646Y0108080D01*
X0072202Y0109636D01*
X0075736Y0106102D01*
G37*
G36*
X0077963Y0108329D02*
X0076407Y0106773D01*
X0072873Y0110307D01*
X0074429Y0111863D01*
X0077963Y0108329D01*
G37*
G36*
X0080190Y0110556D02*
X0078634Y0109000D01*
X0075100Y0112534D01*
X0076656Y0114090D01*
X0080190Y0110556D01*
G37*
G36*
X0101863Y0084429D02*
X0100307Y0082873D01*
X0096773Y0086407D01*
X0098329Y0087963D01*
X0101863Y0084429D01*
G37*
G36*
X0104090Y0086656D02*
X0102534Y0085100D01*
X0099000Y0088634D01*
X0100556Y0090190D01*
X0104090Y0086656D01*
G37*
G36*
X0099636Y0082202D02*
X0098080Y0080646D01*
X0094546Y0084180D01*
X0096102Y0085736D01*
X0099636Y0082202D01*
G37*
G36*
X0097409Y0079974D02*
X0095853Y0078418D01*
X0092319Y0081952D01*
X0093875Y0083508D01*
X0097409Y0079974D01*
G37*
G36*
X0095182Y0077747D02*
X0093626Y0076191D01*
X0090092Y0079725D01*
X0091648Y0081281D01*
X0095182Y0077747D01*
G37*
G36*
X0092954Y0075520D02*
X0091398Y0073964D01*
X0087864Y0077498D01*
X0089420Y0079054D01*
X0092954Y0075520D01*
G37*
G36*
X0090727Y0073293D02*
X0089171Y0071737D01*
X0085637Y0075271D01*
X0087193Y0076827D01*
X0090727Y0073293D01*
G37*
G36*
X0088500Y0071066D02*
X0086944Y0069510D01*
X0083410Y0073044D01*
X0084966Y0074600D01*
X0088500Y0071066D01*
G37*
D23*
X0099300Y0076800D03*
X0066800Y0114300D03*
X0064300Y0106800D03*
D24*
X0066800Y0106800D01*
X0071800Y0111800D01*
X0072936Y0111800D01*
X0075418Y0109318D01*
X0077645Y0111545D02*
X0074890Y0114300D01*
X0066800Y0114300D01*
X0061800Y0121800D02*
X0059200Y0119200D01*
X0059200Y0104400D01*
X0044600Y0089800D01*
X0044600Y0079800D01*
X0044300Y0079700D01*
X0049000Y0079400D02*
X0049000Y0077400D01*
X0045800Y0074200D01*
X0022600Y0074200D01*
X0019400Y0077400D01*
X0019400Y0079400D01*
X0019300Y0079700D01*
X0014600Y0079400D02*
X0014600Y0077400D01*
X0019400Y0072600D01*
X0039800Y0072600D01*
X0045400Y0067000D01*
X0045737Y0066800D01*
X0045400Y0066600D01*
X0041800Y0063000D01*
X0041800Y0053000D01*
X0043000Y0051800D01*
X0081400Y0051800D01*
X0087800Y0045400D01*
X0098600Y0045400D01*
X0121800Y0045400D01*
X0125600Y0049200D01*
X0121800Y0053000D01*
X0121800Y0060600D01*
X0120600Y0061800D01*
X0080100Y0061800D01*
X0077600Y0064300D01*
X0074300Y0064300D01*
X0064600Y0074000D01*
X0064600Y0079800D01*
X0067400Y0077000D01*
X0069000Y0077000D01*
X0070600Y0078600D01*
X0070963Y0078736D01*
X0069400Y0077000D01*
X0064600Y0079800D02*
X0064600Y0080200D01*
X0066200Y0081800D01*
X0066200Y0083000D01*
X0066509Y0083191D01*
X0064200Y0084200D02*
X0062600Y0082600D01*
X0062600Y0071000D01*
X0071800Y0061800D01*
X0075200Y0061800D01*
X0080000Y0057000D01*
X0100600Y0057000D01*
X0100800Y0056800D01*
X0101000Y0057000D01*
X0117800Y0057000D01*
X0117863Y0056800D01*
X0125600Y0049200D02*
X0129400Y0053000D01*
X0151800Y0053000D01*
X0151000Y0074200D02*
X0142600Y0074200D01*
X0141800Y0075000D01*
X0141800Y0084200D01*
X0141000Y0085000D01*
X0112600Y0085000D01*
X0106800Y0079200D01*
X0106800Y0076800D01*
X0102600Y0072600D01*
X0091000Y0072600D01*
X0089400Y0074200D01*
X0088200Y0074200D01*
X0088182Y0074282D01*
X0086200Y0072200D02*
X0085955Y0072055D01*
X0086200Y0072200D02*
X0079400Y0079000D01*
X0077000Y0078200D02*
X0077000Y0075800D01*
X0075800Y0074600D01*
X0075418Y0074282D01*
X0077645Y0072055D02*
X0077800Y0071800D01*
X0082600Y0071800D01*
X0086200Y0068200D01*
X0129800Y0068200D01*
X0139000Y0077400D01*
X0139000Y0079400D01*
X0139300Y0079700D01*
X0144200Y0079800D02*
X0144300Y0079700D01*
X0144200Y0079800D02*
X0144200Y0084200D01*
X0137000Y0091400D01*
X0100600Y0091400D01*
X0099400Y0092600D01*
X0066600Y0092600D01*
X0063400Y0095800D01*
X0062200Y0095800D01*
X0062055Y0095955D01*
X0063400Y0098200D02*
X0061800Y0099800D01*
X0060600Y0099800D01*
X0055400Y0094600D01*
X0055400Y0093800D01*
X0049800Y0091400D02*
X0047000Y0088600D01*
X0049800Y0091400D02*
X0063800Y0091400D01*
X0064200Y0091000D01*
X0092600Y0091000D01*
X0097800Y0085800D01*
X0099000Y0085800D01*
X0099318Y0085418D01*
X0100200Y0087800D02*
X0097800Y0090200D01*
X0097000Y0090200D01*
X0100200Y0087800D02*
X0101400Y0087800D01*
X0101545Y0087645D01*
X0104600Y0089000D02*
X0127400Y0089000D01*
X0135800Y0095400D02*
X0131800Y0099400D01*
X0131800Y0129800D01*
X0097000Y0164600D01*
X0097000Y0171800D01*
X0096800Y0171800D01*
X0092600Y0171800D02*
X0092600Y0161400D01*
X0097800Y0156200D01*
X0097800Y0116200D01*
X0107000Y0107000D01*
X0107000Y0104200D01*
X0103400Y0108200D02*
X0103400Y0099000D01*
X0101800Y0097400D01*
X0101800Y0096200D01*
X0101545Y0095955D01*
X0099000Y0097800D02*
X0099318Y0098182D01*
X0099000Y0097800D02*
X0096200Y0095000D01*
X0076600Y0095000D01*
X0074600Y0096600D02*
X0069400Y0096600D01*
X0064282Y0098182D02*
X0064200Y0098200D01*
X0063400Y0098200D01*
X0057800Y0105400D02*
X0057800Y0125800D01*
X0060200Y0128200D01*
X0073400Y0128200D01*
X0077800Y0123800D01*
X0077800Y0117800D01*
X0080200Y0115400D01*
X0085400Y0115400D01*
X0091800Y0121800D01*
X0095800Y0114600D02*
X0094600Y0113400D01*
X0095800Y0114600D02*
X0095800Y0155800D01*
X0087000Y0164600D01*
X0087000Y0171800D01*
X0086800Y0171800D01*
X0087000Y0177400D02*
X0092600Y0171800D01*
X0087000Y0177400D02*
X0087000Y0181800D01*
X0086800Y0181800D01*
X0081000Y0177800D02*
X0077000Y0181800D01*
X0076800Y0181800D01*
X0081000Y0177800D02*
X0081000Y0168200D01*
X0091800Y0157400D01*
X0091800Y0151800D01*
X0081800Y0151800D02*
X0081800Y0165000D01*
X0077000Y0169800D01*
X0077000Y0171800D01*
X0076800Y0171800D01*
X0071800Y0177000D02*
X0067000Y0181800D01*
X0066800Y0181800D01*
X0071800Y0177000D02*
X0071800Y0151800D01*
X0061800Y0151800D02*
X0061800Y0167000D01*
X0066600Y0171800D01*
X0066800Y0171800D01*
X0061000Y0170200D02*
X0061000Y0177800D01*
X0057000Y0181800D01*
X0056800Y0181800D01*
X0051000Y0177800D02*
X0047000Y0181800D01*
X0046800Y0181800D01*
X0046600Y0187400D02*
X0011800Y0152600D01*
X0011800Y0097400D01*
X0018200Y0097400D01*
X0019300Y0103900D02*
X0019400Y0104200D01*
X0019400Y0107800D01*
X0021800Y0110200D01*
X0024200Y0104200D02*
X0024300Y0103900D01*
X0024200Y0104200D02*
X0024200Y0119400D01*
X0021800Y0121800D01*
X0014600Y0122600D02*
X0024200Y0132200D01*
X0064200Y0132200D01*
X0074200Y0129800D02*
X0081800Y0122200D01*
X0081800Y0121800D01*
X0074200Y0129800D02*
X0051800Y0129800D01*
X0047800Y0125800D01*
X0047800Y0119800D01*
X0034600Y0106600D01*
X0034600Y0104200D01*
X0034300Y0103900D01*
X0031800Y0108600D02*
X0031800Y0089400D01*
X0024600Y0082200D01*
X0024600Y0079800D01*
X0024300Y0079700D01*
X0029300Y0079700D02*
X0029400Y0079800D01*
X0029400Y0081800D01*
X0036200Y0088600D01*
X0042200Y0088600D01*
X0042600Y0098600D02*
X0051000Y0098600D01*
X0057800Y0105400D01*
X0044600Y0114200D02*
X0051800Y0121400D01*
X0051800Y0121800D01*
X0044600Y0114200D02*
X0044600Y0104200D01*
X0044300Y0103900D01*
X0039400Y0101800D02*
X0042600Y0098600D01*
X0039400Y0101800D02*
X0039400Y0103800D01*
X0039300Y0103900D01*
X0031800Y0108600D02*
X0035800Y0112600D01*
X0037000Y0112600D01*
X0029400Y0109400D02*
X0041800Y0121800D01*
X0029400Y0109400D02*
X0029400Y0104200D01*
X0029300Y0103900D01*
X0014600Y0104200D02*
X0014600Y0122600D01*
X0014600Y0104200D02*
X0014300Y0103900D01*
X0011800Y0097400D02*
X0011800Y0082200D01*
X0014300Y0079700D01*
X0014600Y0079400D01*
X0045800Y0057000D02*
X0045737Y0056800D01*
X0045800Y0057000D02*
X0058200Y0057000D01*
X0060200Y0059000D01*
X0062800Y0056800D01*
X0060200Y0059400D01*
X0060200Y0084600D01*
X0061800Y0086200D01*
X0061800Y0087400D01*
X0062055Y0087645D01*
X0064200Y0085400D02*
X0064282Y0085418D01*
X0064200Y0085400D02*
X0064200Y0084200D01*
X0057800Y0083000D02*
X0052600Y0083000D01*
X0049300Y0079700D01*
X0049000Y0079400D01*
X0075800Y0079400D02*
X0077000Y0078200D01*
X0075800Y0079400D02*
X0075800Y0080600D01*
X0074600Y0096600D02*
X0087000Y0109000D01*
X0087800Y0109000D01*
X0088182Y0109318D01*
X0090600Y0113400D02*
X0093000Y0111000D01*
X0100600Y0111000D01*
X0103400Y0108200D01*
X0101000Y0107000D02*
X0101000Y0105400D01*
X0097400Y0101800D01*
X0097400Y0100600D01*
X0097091Y0100409D01*
X0088600Y0088600D02*
X0088600Y0079400D01*
X0090200Y0077800D01*
X0090200Y0076600D01*
X0090409Y0076509D01*
X0092637Y0078736D02*
X0094573Y0076800D01*
X0099300Y0076800D01*
X0098600Y0045400D02*
X0098600Y0040200D01*
X0087800Y0029400D01*
X0087702Y0029001D01*
X0135800Y0095400D02*
X0147800Y0095400D01*
X0153400Y0089800D01*
X0156600Y0086600D02*
X0156600Y0172200D01*
X0147000Y0181800D01*
X0146800Y0181800D01*
X0136800Y0171800D02*
X0125000Y0171800D01*
X0109400Y0187400D01*
X0046600Y0187400D01*
X0051000Y0177800D02*
X0051000Y0170200D01*
X0032600Y0151800D01*
X0031800Y0151800D01*
X0023800Y0151800D02*
X0043800Y0171800D01*
X0046800Y0171800D01*
X0051800Y0161000D02*
X0061000Y0170200D01*
X0056800Y0171800D02*
X0056600Y0171800D01*
X0041800Y0157000D01*
X0041800Y0151800D01*
X0051800Y0151800D02*
X0051800Y0161000D01*
X0023800Y0151800D02*
X0021800Y0151800D01*
X0096800Y0181800D02*
X0097000Y0181800D01*
X0101000Y0185800D01*
X0108600Y0185800D01*
X0149000Y0145400D01*
X0149000Y0104200D01*
X0149300Y0103900D01*
X0144300Y0103900D02*
X0144200Y0104200D01*
X0144200Y0144600D01*
X0107000Y0181800D01*
X0106800Y0181800D01*
X0106800Y0171800D02*
X0107000Y0171800D01*
X0139000Y0139800D01*
X0139000Y0104200D01*
X0139300Y0103900D01*
X0143400Y0090600D02*
X0143400Y0087800D01*
X0149000Y0082200D01*
X0149000Y0079800D01*
X0149300Y0079700D01*
X0152600Y0082600D02*
X0152600Y0075800D01*
X0151000Y0074200D01*
D25*
X0146800Y0066800D03*
X0151800Y0053000D03*
X0152600Y0082600D03*
X0156600Y0086600D03*
X0153400Y0089800D03*
X0143400Y0090600D03*
X0133800Y0093800D03*
X0127400Y0089000D03*
X0126800Y0071800D03*
X0124300Y0064300D03*
X0109300Y0071800D03*
X0104600Y0089000D03*
X0106800Y0096800D03*
X0107000Y0104200D03*
X0101000Y0107000D03*
X0094600Y0113400D03*
X0090600Y0113400D03*
X0086800Y0101800D03*
X0088600Y0088600D03*
X0097000Y0090200D03*
X0084300Y0079300D03*
X0079400Y0079000D03*
X0075800Y0080600D03*
X0076600Y0095000D03*
X0069400Y0096600D03*
X0057800Y0083000D03*
X0055400Y0093800D03*
X0047000Y0088600D03*
X0042200Y0088600D03*
X0051800Y0071800D03*
X0069300Y0041800D03*
X0098600Y0045400D03*
X0126800Y0039300D03*
X0126800Y0039300D03*
X0111800Y0131800D03*
X0101800Y0141800D03*
X0086800Y0136800D03*
X0064200Y0132200D03*
X0055300Y0109800D03*
X0037000Y0112600D03*
X0021800Y0110200D03*
X0018200Y0097400D03*
X0006800Y0081800D03*
X0011800Y0016800D03*
X0126800Y0141800D03*
X0146800Y0161800D03*
X0156800Y0186800D03*
X0121800Y0186800D03*
D26*
X0117197Y0182432D02*
X0132000Y0182432D01*
X0132000Y0182000D02*
X0136600Y0182000D01*
X0136600Y0186600D01*
X0134812Y0186600D01*
X0132000Y0183788D01*
X0132000Y0182000D01*
X0132000Y0181600D02*
X0132000Y0179812D01*
X0134812Y0177000D01*
X0136600Y0177000D01*
X0136600Y0181600D01*
X0137000Y0181600D01*
X0137000Y0182000D01*
X0141600Y0182000D01*
X0141600Y0183788D01*
X0138788Y0186600D01*
X0137000Y0186600D01*
X0137000Y0182000D01*
X0136600Y0182000D01*
X0136600Y0181600D01*
X0132000Y0181600D01*
X0132000Y0180833D02*
X0118795Y0180833D01*
X0120394Y0179235D02*
X0132577Y0179235D01*
X0134176Y0177636D02*
X0121992Y0177636D01*
X0123591Y0176038D02*
X0134532Y0176038D01*
X0134895Y0176400D02*
X0132295Y0173800D01*
X0125828Y0173800D01*
X0111400Y0188228D01*
X0110228Y0189400D01*
X0045772Y0189400D01*
X0010972Y0154600D01*
X0009800Y0153428D01*
X0009800Y0081372D01*
X0011400Y0079772D01*
X0011400Y0075037D01*
X0012337Y0074100D01*
X0015072Y0074100D01*
X0018572Y0070600D01*
X0033615Y0070600D01*
X0033504Y0070187D01*
X0033504Y0067280D01*
X0037383Y0067280D01*
X0037383Y0066320D01*
X0038343Y0066320D01*
X0038343Y0061850D01*
X0039800Y0061850D01*
X0039800Y0061750D01*
X0038343Y0061750D01*
X0038343Y0057280D01*
X0037383Y0057280D01*
X0037383Y0061750D01*
X0035067Y0061750D01*
X0034609Y0061627D01*
X0034199Y0061390D01*
X0033864Y0061055D01*
X0033627Y0060644D01*
X0033504Y0060187D01*
X0033504Y0057280D01*
X0037383Y0057280D01*
X0037383Y0056320D01*
X0033504Y0056320D01*
X0033504Y0053413D01*
X0033627Y0052956D01*
X0033864Y0052545D01*
X0034199Y0052210D01*
X0034609Y0051973D01*
X0035067Y0051850D01*
X0037383Y0051850D01*
X0037383Y0056320D01*
X0038343Y0056320D01*
X0038343Y0051850D01*
X0040121Y0051850D01*
X0040972Y0051000D01*
X0042172Y0049800D01*
X0080572Y0049800D01*
X0080860Y0049512D01*
X0080364Y0049433D01*
X0079447Y0049135D01*
X0078587Y0048697D01*
X0077806Y0048130D01*
X0077124Y0047447D01*
X0076557Y0046667D01*
X0076118Y0045807D01*
X0075820Y0044889D01*
X0075669Y0043936D01*
X0075669Y0041301D01*
X0081000Y0041301D01*
X0081000Y0039701D01*
X0075669Y0039701D01*
X0075669Y0037066D01*
X0075820Y0036112D01*
X0076118Y0035195D01*
X0076557Y0034335D01*
X0077124Y0033554D01*
X0077124Y0033554D01*
X0073267Y0033554D01*
X0072330Y0032616D01*
X0072330Y0025385D01*
X0073267Y0024448D01*
X0073400Y0024448D01*
X0073400Y0022650D01*
X0069377Y0022650D01*
X0065950Y0019223D01*
X0065950Y0014377D01*
X0069377Y0010950D01*
X0074223Y0010950D01*
X0077650Y0014377D01*
X0077650Y0019223D01*
X0077534Y0019340D01*
X0077835Y0019641D01*
X0078200Y0020523D01*
X0078200Y0021800D01*
X0088244Y0021800D01*
X0085750Y0019306D01*
X0085750Y0017300D01*
X0091300Y0017300D01*
X0091300Y0016300D01*
X0092300Y0016300D01*
X0092300Y0017300D01*
X0097850Y0017300D01*
X0097850Y0019306D01*
X0095356Y0021800D01*
X0108527Y0021800D01*
X0105950Y0019223D01*
X0105950Y0014377D01*
X0109377Y0010950D01*
X0114223Y0010950D01*
X0117650Y0014377D01*
X0117650Y0019223D01*
X0115073Y0021800D01*
X0127477Y0021800D01*
X0128359Y0022165D01*
X0129035Y0022841D01*
X0157435Y0051241D01*
X0157800Y0052123D01*
X0157800Y0084066D01*
X0158186Y0084226D01*
X0158974Y0085014D01*
X0159400Y0086043D01*
X0159400Y0087157D01*
X0158974Y0088186D01*
X0158600Y0088560D01*
X0158600Y0173028D01*
X0151400Y0180228D01*
X0151400Y0183705D01*
X0148705Y0186400D01*
X0144895Y0186400D01*
X0142200Y0183705D01*
X0142200Y0179895D01*
X0144895Y0177200D01*
X0148705Y0177200D01*
X0148738Y0177233D01*
X0154600Y0171372D01*
X0154600Y0092334D01*
X0153957Y0092600D01*
X0153428Y0092600D01*
X0148628Y0097400D01*
X0136628Y0097400D01*
X0135728Y0098300D01*
X0136263Y0098300D01*
X0136800Y0098837D01*
X0137337Y0098300D01*
X0141263Y0098300D01*
X0141800Y0098837D01*
X0142337Y0098300D01*
X0146263Y0098300D01*
X0146800Y0098837D01*
X0147337Y0098300D01*
X0151263Y0098300D01*
X0152200Y0099237D01*
X0152200Y0108563D01*
X0151263Y0109500D01*
X0151000Y0109500D01*
X0151000Y0146228D01*
X0127428Y0169800D01*
X0132295Y0169800D01*
X0134895Y0167200D01*
X0138705Y0167200D01*
X0141400Y0169895D01*
X0141400Y0173705D01*
X0138705Y0176400D01*
X0134895Y0176400D01*
X0136600Y0177636D02*
X0137000Y0177636D01*
X0137000Y0177000D02*
X0138788Y0177000D01*
X0141600Y0179812D01*
X0141600Y0181600D01*
X0137000Y0181600D01*
X0137000Y0177000D01*
X0137000Y0179235D02*
X0136600Y0179235D01*
X0136600Y0180833D02*
X0137000Y0180833D01*
X0137000Y0182432D02*
X0136600Y0182432D01*
X0136600Y0184030D02*
X0137000Y0184030D01*
X0137000Y0185629D02*
X0136600Y0185629D01*
X0133841Y0185629D02*
X0114000Y0185629D01*
X0115598Y0184030D02*
X0132242Y0184030D01*
X0139759Y0185629D02*
X0144123Y0185629D01*
X0142525Y0184030D02*
X0141358Y0184030D01*
X0141600Y0182432D02*
X0142200Y0182432D01*
X0142200Y0180833D02*
X0141600Y0180833D01*
X0141023Y0179235D02*
X0142860Y0179235D01*
X0144458Y0177636D02*
X0139424Y0177636D01*
X0139068Y0176038D02*
X0144532Y0176038D01*
X0144895Y0176400D02*
X0142200Y0173705D01*
X0142200Y0169895D01*
X0144895Y0167200D01*
X0148705Y0167200D01*
X0151400Y0169895D01*
X0151400Y0173705D01*
X0148705Y0176400D01*
X0144895Y0176400D01*
X0142934Y0174439D02*
X0140666Y0174439D01*
X0141400Y0172841D02*
X0142200Y0172841D01*
X0142200Y0171242D02*
X0141400Y0171242D01*
X0141149Y0169644D02*
X0142451Y0169644D01*
X0144049Y0168045D02*
X0139551Y0168045D01*
X0134049Y0168045D02*
X0129183Y0168045D01*
X0127585Y0169644D02*
X0132451Y0169644D01*
X0130782Y0166447D02*
X0154600Y0166447D01*
X0154600Y0168045D02*
X0149551Y0168045D01*
X0151149Y0169644D02*
X0154600Y0169644D01*
X0154600Y0171242D02*
X0151400Y0171242D01*
X0151400Y0172841D02*
X0153131Y0172841D01*
X0151532Y0174439D02*
X0150666Y0174439D01*
X0149934Y0176038D02*
X0149068Y0176038D01*
X0152394Y0179235D02*
X0160000Y0179235D01*
X0160000Y0180833D02*
X0151400Y0180833D01*
X0151400Y0182432D02*
X0160000Y0182432D01*
X0160000Y0184030D02*
X0151075Y0184030D01*
X0149477Y0185629D02*
X0160000Y0185629D01*
X0160000Y0187227D02*
X0112401Y0187227D01*
X0110803Y0188826D02*
X0160000Y0188826D01*
X0160000Y0190424D02*
X0003600Y0190424D01*
X0003600Y0188826D02*
X0045197Y0188826D01*
X0043599Y0187227D02*
X0003600Y0187227D01*
X0003600Y0185629D02*
X0042000Y0185629D01*
X0040402Y0184030D02*
X0003600Y0184030D01*
X0003600Y0182432D02*
X0038803Y0182432D01*
X0037205Y0180833D02*
X0003600Y0180833D01*
X0003600Y0179235D02*
X0035606Y0179235D01*
X0034008Y0177636D02*
X0003600Y0177636D01*
X0003600Y0176038D02*
X0032409Y0176038D01*
X0030811Y0174439D02*
X0003600Y0174439D01*
X0003600Y0172841D02*
X0029212Y0172841D01*
X0027614Y0171242D02*
X0003600Y0171242D01*
X0003600Y0169644D02*
X0026015Y0169644D01*
X0024417Y0168045D02*
X0003600Y0168045D01*
X0003600Y0166447D02*
X0022818Y0166447D01*
X0021220Y0164848D02*
X0003600Y0164848D01*
X0003600Y0163250D02*
X0019621Y0163250D01*
X0018023Y0161651D02*
X0003600Y0161651D01*
X0003600Y0160053D02*
X0016424Y0160053D01*
X0014826Y0158454D02*
X0003600Y0158454D01*
X0003600Y0156856D02*
X0013227Y0156856D01*
X0011629Y0155257D02*
X0003600Y0155257D01*
X0003600Y0153659D02*
X0010030Y0153659D01*
X0009800Y0152060D02*
X0003600Y0152060D01*
X0003600Y0150462D02*
X0009800Y0150462D01*
X0009800Y0148863D02*
X0003600Y0148863D01*
X0003600Y0147265D02*
X0009800Y0147265D01*
X0009800Y0145666D02*
X0003600Y0145666D01*
X0003600Y0144068D02*
X0009800Y0144068D01*
X0009800Y0142469D02*
X0003600Y0142469D01*
X0003600Y0140870D02*
X0009800Y0140870D01*
X0009800Y0139272D02*
X0003600Y0139272D01*
X0003600Y0137673D02*
X0009800Y0137673D01*
X0009800Y0136075D02*
X0003600Y0136075D01*
X0003600Y0134476D02*
X0009800Y0134476D01*
X0009800Y0132878D02*
X0003600Y0132878D01*
X0003600Y0131279D02*
X0009800Y0131279D01*
X0009800Y0129681D02*
X0003600Y0129681D01*
X0003600Y0128082D02*
X0009800Y0128082D01*
X0009800Y0126484D02*
X0003600Y0126484D01*
X0003600Y0124885D02*
X0009800Y0124885D01*
X0009800Y0123287D02*
X0003600Y0123287D01*
X0003600Y0121688D02*
X0009800Y0121688D01*
X0009800Y0120090D02*
X0003600Y0120090D01*
X0003600Y0118491D02*
X0009800Y0118491D01*
X0009800Y0116893D02*
X0003600Y0116893D01*
X0003600Y0115294D02*
X0009800Y0115294D01*
X0009800Y0113696D02*
X0003600Y0113696D01*
X0003600Y0112097D02*
X0009800Y0112097D01*
X0009800Y0110499D02*
X0003600Y0110499D01*
X0003600Y0108900D02*
X0009800Y0108900D01*
X0009800Y0107302D02*
X0003600Y0107302D01*
X0003600Y0105703D02*
X0009800Y0105703D01*
X0009800Y0104105D02*
X0003600Y0104105D01*
X0003600Y0102506D02*
X0009800Y0102506D01*
X0009800Y0100908D02*
X0003600Y0100908D01*
X0003600Y0099309D02*
X0009800Y0099309D01*
X0009800Y0097711D02*
X0003600Y0097711D01*
X0003600Y0096112D02*
X0009800Y0096112D01*
X0009800Y0094514D02*
X0003600Y0094514D01*
X0003600Y0092915D02*
X0009800Y0092915D01*
X0009800Y0091317D02*
X0003600Y0091317D01*
X0003600Y0089718D02*
X0009800Y0089718D01*
X0009800Y0088120D02*
X0003600Y0088120D01*
X0003600Y0086521D02*
X0009800Y0086521D01*
X0009800Y0084923D02*
X0003600Y0084923D01*
X0003600Y0083324D02*
X0009800Y0083324D01*
X0009800Y0081726D02*
X0003600Y0081726D01*
X0003600Y0080127D02*
X0011045Y0080127D01*
X0011400Y0078529D02*
X0003600Y0078529D01*
X0003600Y0076930D02*
X0011400Y0076930D01*
X0011400Y0075332D02*
X0003600Y0075332D01*
X0003600Y0073733D02*
X0015439Y0073733D01*
X0017037Y0072134D02*
X0003600Y0072134D01*
X0003600Y0070536D02*
X0033598Y0070536D01*
X0033504Y0068937D02*
X0003600Y0068937D01*
X0003600Y0067339D02*
X0033504Y0067339D01*
X0033504Y0066320D02*
X0033504Y0063413D01*
X0033627Y0062956D01*
X0033864Y0062545D01*
X0034199Y0062210D01*
X0034609Y0061973D01*
X0035067Y0061850D01*
X0037383Y0061850D01*
X0037383Y0066320D01*
X0033504Y0066320D01*
X0033504Y0065740D02*
X0003600Y0065740D01*
X0003600Y0064142D02*
X0033504Y0064142D01*
X0033865Y0062543D02*
X0003600Y0062543D01*
X0003600Y0060945D02*
X0033800Y0060945D01*
X0033504Y0059346D02*
X0003600Y0059346D01*
X0003600Y0057748D02*
X0033504Y0057748D01*
X0033504Y0056149D02*
X0003600Y0056149D01*
X0003600Y0054551D02*
X0033504Y0054551D01*
X0033628Y0052952D02*
X0003600Y0052952D01*
X0003600Y0051354D02*
X0040618Y0051354D01*
X0038343Y0052952D02*
X0037383Y0052952D01*
X0037383Y0054551D02*
X0038343Y0054551D01*
X0038343Y0056149D02*
X0037383Y0056149D01*
X0037383Y0057748D02*
X0038343Y0057748D01*
X0038343Y0059346D02*
X0037383Y0059346D01*
X0037383Y0060945D02*
X0038343Y0060945D01*
X0038343Y0062543D02*
X0037383Y0062543D01*
X0037383Y0064142D02*
X0038343Y0064142D01*
X0038343Y0065740D02*
X0037383Y0065740D01*
X0043800Y0062050D02*
X0048959Y0062050D01*
X0049896Y0062988D01*
X0049896Y0070612D01*
X0048959Y0071550D01*
X0043679Y0071550D01*
X0043028Y0072200D01*
X0046628Y0072200D01*
X0048528Y0074100D01*
X0051263Y0074100D01*
X0052200Y0075037D01*
X0052200Y0079772D01*
X0053428Y0081000D01*
X0055840Y0081000D01*
X0056214Y0080626D01*
X0057243Y0080200D01*
X0058200Y0080200D01*
X0058200Y0061900D01*
X0052137Y0061900D01*
X0051200Y0060963D01*
X0051200Y0059000D01*
X0049896Y0059000D01*
X0049896Y0060612D01*
X0048959Y0061550D01*
X0043800Y0061550D01*
X0043800Y0062050D01*
X0049452Y0062543D02*
X0058200Y0062543D01*
X0058200Y0064142D02*
X0049896Y0064142D01*
X0049896Y0065740D02*
X0058200Y0065740D01*
X0058200Y0067339D02*
X0049896Y0067339D01*
X0049896Y0068937D02*
X0058200Y0068937D01*
X0058200Y0070536D02*
X0049896Y0070536D01*
X0048161Y0073733D02*
X0058200Y0073733D01*
X0058200Y0072134D02*
X0043094Y0072134D01*
X0052200Y0075332D02*
X0058200Y0075332D01*
X0058200Y0076930D02*
X0052200Y0076930D01*
X0052200Y0078529D02*
X0058200Y0078529D01*
X0058200Y0080127D02*
X0052555Y0080127D01*
X0051667Y0084896D02*
X0051263Y0085300D01*
X0047337Y0085300D01*
X0046800Y0084763D01*
X0046600Y0084963D01*
X0046600Y0085800D01*
X0047557Y0085800D01*
X0048586Y0086226D01*
X0049374Y0087014D01*
X0049800Y0088043D01*
X0049800Y0088572D01*
X0050628Y0089400D01*
X0059992Y0089400D01*
X0057909Y0087318D01*
X0057909Y0085992D01*
X0058102Y0085800D01*
X0057243Y0085800D01*
X0056214Y0085374D01*
X0055840Y0085000D01*
X0051772Y0085000D01*
X0051667Y0084896D01*
X0051640Y0084923D02*
X0051694Y0084923D01*
X0049800Y0088120D02*
X0058712Y0088120D01*
X0057909Y0086521D02*
X0048881Y0086521D01*
X0046960Y0084923D02*
X0046640Y0084923D01*
X0042600Y0085300D02*
X0042600Y0085800D01*
X0041643Y0085800D01*
X0040614Y0086226D01*
X0040240Y0086600D01*
X0037028Y0086600D01*
X0035728Y0085300D01*
X0036263Y0085300D01*
X0036800Y0084763D01*
X0037337Y0085300D01*
X0041263Y0085300D01*
X0041800Y0084763D01*
X0042337Y0085300D01*
X0042600Y0085300D01*
X0041960Y0084923D02*
X0041640Y0084923D01*
X0040319Y0086521D02*
X0036950Y0086521D01*
X0036960Y0084923D02*
X0036640Y0084923D01*
X0033800Y0089028D02*
X0033800Y0090228D01*
X0033800Y0098300D01*
X0036263Y0098300D01*
X0036800Y0098837D01*
X0037337Y0098300D01*
X0040072Y0098300D01*
X0040600Y0097772D01*
X0041772Y0096600D01*
X0048572Y0096600D01*
X0043192Y0091220D01*
X0042757Y0091400D01*
X0041643Y0091400D01*
X0040614Y0090974D01*
X0040240Y0090600D01*
X0035372Y0090600D01*
X0033800Y0089028D01*
X0033800Y0089718D02*
X0034490Y0089718D01*
X0033800Y0091317D02*
X0041442Y0091317D01*
X0042958Y0091317D02*
X0043288Y0091317D01*
X0044887Y0092915D02*
X0033800Y0092915D01*
X0033800Y0094514D02*
X0046485Y0094514D01*
X0048084Y0096112D02*
X0033800Y0096112D01*
X0033800Y0097711D02*
X0040661Y0097711D01*
X0049300Y0103900D02*
X0049300Y0109700D01*
X0049300Y0103900D01*
X0049300Y0103900D01*
X0052400Y0103900D01*
X0052400Y0108137D01*
X0052277Y0108595D01*
X0052040Y0109005D01*
X0051705Y0109340D01*
X0051295Y0109577D01*
X0050837Y0109700D01*
X0049300Y0109700D01*
X0047763Y0109700D01*
X0047305Y0109577D01*
X0046895Y0109340D01*
X0046659Y0109104D01*
X0046600Y0109163D01*
X0046600Y0113372D01*
X0049144Y0115916D01*
X0049421Y0115639D01*
X0050965Y0115000D01*
X0052635Y0115000D01*
X0054179Y0115639D01*
X0055361Y0116821D01*
X0055800Y0117882D01*
X0055800Y0106228D01*
X0052400Y0102828D01*
X0052400Y0103900D01*
X0049300Y0103900D01*
X0049300Y0103900D01*
X0049300Y0104105D02*
X0049300Y0104105D01*
X0049300Y0105703D02*
X0049300Y0105703D01*
X0049300Y0107302D02*
X0049300Y0107302D01*
X0049300Y0108900D02*
X0049300Y0108900D01*
X0046600Y0110499D02*
X0055800Y0110499D01*
X0055800Y0112097D02*
X0046600Y0112097D01*
X0046924Y0113696D02*
X0055800Y0113696D01*
X0055800Y0115294D02*
X0053346Y0115294D01*
X0055390Y0116893D02*
X0055800Y0116893D01*
X0050254Y0115294D02*
X0048523Y0115294D01*
X0052101Y0108900D02*
X0055800Y0108900D01*
X0055800Y0107302D02*
X0052400Y0107302D01*
X0052400Y0105703D02*
X0055275Y0105703D01*
X0053676Y0104105D02*
X0052400Y0104105D01*
X0055339Y0097711D02*
X0055682Y0097711D01*
X0054572Y0096600D02*
X0054380Y0096408D01*
X0053814Y0096174D01*
X0053026Y0095386D01*
X0052600Y0094357D01*
X0052600Y0093400D01*
X0051028Y0093400D01*
X0060028Y0102400D01*
X0061200Y0103572D01*
X0061200Y0104102D01*
X0061978Y0103324D01*
X0063143Y0102841D01*
X0062364Y0102062D01*
X0062102Y0101800D01*
X0059772Y0101800D01*
X0054572Y0096600D01*
X0053752Y0096112D02*
X0053741Y0096112D01*
X0052665Y0094514D02*
X0052142Y0094514D01*
X0056938Y0099309D02*
X0057281Y0099309D01*
X0058536Y0100908D02*
X0058879Y0100908D01*
X0060135Y0102506D02*
X0062808Y0102506D01*
X0062364Y0102062D02*
X0062364Y0102062D01*
X0061200Y0109498D02*
X0061200Y0115000D01*
X0062635Y0115000D01*
X0062700Y0115027D01*
X0062700Y0113484D01*
X0063324Y0111978D01*
X0064402Y0110900D01*
X0063484Y0110900D01*
X0061978Y0110276D01*
X0061200Y0109498D01*
X0061200Y0110499D02*
X0062516Y0110499D01*
X0063275Y0112097D02*
X0061200Y0112097D01*
X0061200Y0113696D02*
X0062700Y0113696D01*
X0066000Y0118400D02*
X0066000Y0125235D01*
X0065600Y0126200D01*
X0068000Y0126200D01*
X0067600Y0125235D01*
X0067600Y0118400D01*
X0066000Y0118400D01*
X0066000Y0118491D02*
X0067600Y0118491D01*
X0067600Y0120090D02*
X0066000Y0120090D01*
X0066000Y0121688D02*
X0067600Y0121688D01*
X0067600Y0123287D02*
X0066000Y0123287D01*
X0066000Y0124885D02*
X0067600Y0124885D01*
X0067000Y0131800D02*
X0067000Y0132757D01*
X0066574Y0133786D01*
X0065786Y0134574D01*
X0064757Y0135000D01*
X0063643Y0135000D01*
X0062614Y0134574D01*
X0062240Y0134200D01*
X0023372Y0134200D01*
X0022200Y0133028D01*
X0013800Y0124628D01*
X0013800Y0151772D01*
X0017838Y0155809D01*
X0017600Y0155235D01*
X0017600Y0148365D01*
X0018239Y0146821D01*
X0019421Y0145639D01*
X0020965Y0145000D01*
X0022635Y0145000D01*
X0024179Y0145639D01*
X0025361Y0146821D01*
X0026000Y0148365D01*
X0026000Y0151172D01*
X0027600Y0152772D01*
X0027600Y0148365D01*
X0028239Y0146821D01*
X0029421Y0145639D01*
X0030965Y0145000D01*
X0032635Y0145000D01*
X0034179Y0145639D01*
X0035361Y0146821D01*
X0036000Y0148365D01*
X0036000Y0152372D01*
X0037600Y0153972D01*
X0037600Y0148365D01*
X0038239Y0146821D01*
X0039421Y0145639D01*
X0040965Y0145000D01*
X0042635Y0145000D01*
X0044179Y0145639D01*
X0045361Y0146821D01*
X0046000Y0148365D01*
X0046000Y0155235D01*
X0045361Y0156779D01*
X0044884Y0157256D01*
X0055028Y0167400D01*
X0055372Y0167400D01*
X0049800Y0161828D01*
X0049800Y0158118D01*
X0049421Y0157961D01*
X0048239Y0156779D01*
X0047600Y0155235D01*
X0047600Y0148365D01*
X0048239Y0146821D01*
X0049421Y0145639D01*
X0050965Y0145000D01*
X0052635Y0145000D01*
X0054179Y0145639D01*
X0055361Y0146821D01*
X0056000Y0148365D01*
X0056000Y0155235D01*
X0055361Y0156779D01*
X0054179Y0157961D01*
X0053800Y0158118D01*
X0053800Y0160172D01*
X0059800Y0166172D01*
X0059800Y0158118D01*
X0059421Y0157961D01*
X0058239Y0156779D01*
X0057600Y0155235D01*
X0057600Y0148365D01*
X0058239Y0146821D01*
X0059421Y0145639D01*
X0060965Y0145000D01*
X0062635Y0145000D01*
X0064179Y0145639D01*
X0065361Y0146821D01*
X0066000Y0148365D01*
X0066000Y0155235D01*
X0065361Y0156779D01*
X0064179Y0157961D01*
X0063800Y0158118D01*
X0063800Y0166172D01*
X0065028Y0167400D01*
X0068623Y0167400D01*
X0069800Y0168577D01*
X0069800Y0158118D01*
X0069421Y0157961D01*
X0068239Y0156779D01*
X0067600Y0155235D01*
X0067600Y0148365D01*
X0068239Y0146821D01*
X0069421Y0145639D01*
X0070965Y0145000D01*
X0072635Y0145000D01*
X0074179Y0145639D01*
X0075361Y0146821D01*
X0076000Y0148365D01*
X0076000Y0155235D01*
X0075361Y0156779D01*
X0074179Y0157961D01*
X0073800Y0158118D01*
X0073800Y0168577D01*
X0074977Y0167400D01*
X0076572Y0167400D01*
X0079800Y0164172D01*
X0079800Y0158118D01*
X0079421Y0157961D01*
X0078239Y0156779D01*
X0077600Y0155235D01*
X0077600Y0148365D01*
X0078239Y0146821D01*
X0079421Y0145639D01*
X0080965Y0145000D01*
X0082635Y0145000D01*
X0084179Y0145639D01*
X0085361Y0146821D01*
X0086000Y0148365D01*
X0086000Y0155235D01*
X0085361Y0156779D01*
X0084179Y0157961D01*
X0083800Y0158118D01*
X0083800Y0162572D01*
X0088916Y0157456D01*
X0088239Y0156779D01*
X0087600Y0155235D01*
X0087600Y0148365D01*
X0088239Y0146821D01*
X0089421Y0145639D01*
X0090965Y0145000D01*
X0092635Y0145000D01*
X0093800Y0145482D01*
X0093800Y0128118D01*
X0092635Y0128600D01*
X0090965Y0128600D01*
X0089421Y0127961D01*
X0088239Y0126779D01*
X0087600Y0125235D01*
X0087600Y0120428D01*
X0086000Y0118828D01*
X0086000Y0125235D01*
X0085361Y0126779D01*
X0084179Y0127961D01*
X0082635Y0128600D01*
X0080965Y0128600D01*
X0079421Y0127961D01*
X0079144Y0127684D01*
X0075028Y0131800D01*
X0067000Y0131800D01*
X0066950Y0132878D02*
X0093800Y0132878D01*
X0093800Y0134476D02*
X0065883Y0134476D01*
X0062517Y0134476D02*
X0013800Y0134476D01*
X0013800Y0132878D02*
X0022050Y0132878D01*
X0020451Y0131279D02*
X0013800Y0131279D01*
X0013800Y0129681D02*
X0018852Y0129681D01*
X0017254Y0128082D02*
X0013800Y0128082D01*
X0013800Y0126484D02*
X0015655Y0126484D01*
X0014057Y0124885D02*
X0013800Y0124885D01*
X0016600Y0121772D02*
X0017600Y0122772D01*
X0017600Y0118365D01*
X0018239Y0116821D01*
X0019421Y0115639D01*
X0020965Y0115000D01*
X0022200Y0115000D01*
X0022200Y0113000D01*
X0021243Y0113000D01*
X0020214Y0112574D01*
X0019426Y0111786D01*
X0019000Y0110757D01*
X0019000Y0110228D01*
X0018272Y0109500D01*
X0017337Y0109500D01*
X0016800Y0108963D01*
X0016600Y0109163D01*
X0016600Y0121772D01*
X0016600Y0121688D02*
X0017600Y0121688D01*
X0017600Y0120090D02*
X0016600Y0120090D01*
X0016600Y0118491D02*
X0017600Y0118491D01*
X0018210Y0116893D02*
X0016600Y0116893D01*
X0016600Y0115294D02*
X0020254Y0115294D01*
X0022200Y0113696D02*
X0016600Y0113696D01*
X0016600Y0112097D02*
X0019737Y0112097D01*
X0019000Y0110499D02*
X0016600Y0110499D01*
X0026200Y0110499D02*
X0027670Y0110499D01*
X0027400Y0110228D02*
X0027400Y0109500D01*
X0027337Y0109500D01*
X0026800Y0108963D01*
X0026263Y0109500D01*
X0026200Y0109500D01*
X0026200Y0120228D01*
X0026000Y0120428D01*
X0026000Y0125235D01*
X0025361Y0126779D01*
X0024179Y0127961D01*
X0023196Y0128368D01*
X0025028Y0130200D01*
X0049372Y0130200D01*
X0046972Y0127800D01*
X0046972Y0127800D01*
X0045800Y0126628D01*
X0045800Y0125718D01*
X0045361Y0126779D01*
X0044179Y0127961D01*
X0042635Y0128600D01*
X0040965Y0128600D01*
X0039421Y0127961D01*
X0038239Y0126779D01*
X0037600Y0125235D01*
X0037600Y0120428D01*
X0036000Y0118828D01*
X0036000Y0125235D01*
X0035361Y0126779D01*
X0034179Y0127961D01*
X0032635Y0128600D01*
X0030965Y0128600D01*
X0029421Y0127961D01*
X0028239Y0126779D01*
X0027600Y0125235D01*
X0027600Y0118365D01*
X0028239Y0116821D01*
X0029421Y0115639D01*
X0030965Y0115000D01*
X0032172Y0115000D01*
X0027400Y0110228D01*
X0026200Y0112097D02*
X0029269Y0112097D01*
X0030867Y0113696D02*
X0026200Y0113696D01*
X0026200Y0115294D02*
X0030254Y0115294D01*
X0028210Y0116893D02*
X0026200Y0116893D01*
X0026200Y0118491D02*
X0027600Y0118491D01*
X0027600Y0120090D02*
X0026200Y0120090D01*
X0026000Y0121688D02*
X0027600Y0121688D01*
X0027600Y0123287D02*
X0026000Y0123287D01*
X0026000Y0124885D02*
X0027600Y0124885D01*
X0028117Y0126484D02*
X0025483Y0126484D01*
X0023885Y0128082D02*
X0029715Y0128082D01*
X0033885Y0128082D02*
X0039715Y0128082D01*
X0038117Y0126484D02*
X0035483Y0126484D01*
X0036000Y0124885D02*
X0037600Y0124885D01*
X0037600Y0123287D02*
X0036000Y0123287D01*
X0036000Y0121688D02*
X0037600Y0121688D01*
X0037261Y0120090D02*
X0036000Y0120090D01*
X0038944Y0116116D02*
X0038032Y0115203D01*
X0038586Y0114974D01*
X0039366Y0114194D01*
X0040404Y0115232D01*
X0039421Y0115639D01*
X0038944Y0116116D01*
X0038123Y0115294D02*
X0040254Y0115294D01*
X0042600Y0111772D02*
X0042600Y0109500D01*
X0042337Y0109500D01*
X0041800Y0108963D01*
X0041263Y0109500D01*
X0040328Y0109500D01*
X0042600Y0111772D01*
X0042600Y0110499D02*
X0041327Y0110499D01*
X0029800Y0098300D02*
X0029800Y0090228D01*
X0024872Y0085300D01*
X0022337Y0085300D01*
X0021800Y0084763D01*
X0021263Y0085300D01*
X0017337Y0085300D01*
X0016800Y0084763D01*
X0016263Y0085300D01*
X0013800Y0085300D01*
X0013800Y0095400D01*
X0016240Y0095400D01*
X0016614Y0095026D01*
X0017643Y0094600D01*
X0018757Y0094600D01*
X0019786Y0095026D01*
X0020574Y0095814D01*
X0021000Y0096843D01*
X0021000Y0097957D01*
X0020858Y0098300D01*
X0021263Y0098300D01*
X0021800Y0098837D01*
X0022337Y0098300D01*
X0026263Y0098300D01*
X0026800Y0098837D01*
X0027337Y0098300D01*
X0029800Y0098300D01*
X0029800Y0097711D02*
X0021000Y0097711D01*
X0020697Y0096112D02*
X0029800Y0096112D01*
X0029800Y0094514D02*
X0013800Y0094514D01*
X0013800Y0092915D02*
X0029800Y0092915D01*
X0029800Y0091317D02*
X0013800Y0091317D01*
X0013800Y0089718D02*
X0029290Y0089718D01*
X0027691Y0088120D02*
X0013800Y0088120D01*
X0013800Y0086521D02*
X0026093Y0086521D01*
X0021960Y0084923D02*
X0021640Y0084923D01*
X0016960Y0084923D02*
X0016640Y0084923D01*
X0003600Y0049755D02*
X0080616Y0049755D01*
X0077843Y0048157D02*
X0003600Y0048157D01*
X0003600Y0046558D02*
X0076501Y0046558D01*
X0075843Y0044960D02*
X0003600Y0044960D01*
X0003600Y0043361D02*
X0075669Y0043361D01*
X0075669Y0041763D02*
X0003600Y0041763D01*
X0003600Y0040164D02*
X0081000Y0040164D01*
X0081000Y0039701D02*
X0082600Y0039701D01*
X0082600Y0041301D01*
X0087931Y0041301D01*
X0087931Y0043400D01*
X0096600Y0043400D01*
X0096600Y0041028D01*
X0089125Y0033554D01*
X0086476Y0033554D01*
X0087043Y0034335D01*
X0087482Y0035195D01*
X0087780Y0036112D01*
X0087931Y0037066D01*
X0087931Y0039701D01*
X0082600Y0039701D01*
X0082600Y0035738D01*
X0081984Y0035738D01*
X0081984Y0030185D01*
X0081616Y0030185D01*
X0081616Y0035738D01*
X0081000Y0035738D01*
X0081000Y0039701D01*
X0081000Y0038566D02*
X0082600Y0038566D01*
X0082600Y0040164D02*
X0095736Y0040164D01*
X0096600Y0041763D02*
X0087931Y0041763D01*
X0087931Y0043361D02*
X0096600Y0043361D01*
X0096640Y0047400D02*
X0088628Y0047400D01*
X0083400Y0052628D01*
X0082228Y0053800D01*
X0074400Y0053800D01*
X0074400Y0059772D01*
X0078000Y0056172D01*
X0078000Y0056172D01*
X0079172Y0055000D01*
X0089200Y0055000D01*
X0089200Y0052637D01*
X0090137Y0051700D01*
X0111463Y0051700D01*
X0112400Y0052637D01*
X0112400Y0055000D01*
X0113704Y0055000D01*
X0113704Y0052988D01*
X0114641Y0052050D01*
X0119921Y0052050D01*
X0122772Y0049200D01*
X0120972Y0047400D01*
X0100560Y0047400D01*
X0100186Y0047774D01*
X0099157Y0048200D01*
X0098043Y0048200D01*
X0097014Y0047774D01*
X0096640Y0047400D01*
X0097939Y0048157D02*
X0087872Y0048157D01*
X0086273Y0049755D02*
X0122216Y0049755D01*
X0121728Y0048157D02*
X0099261Y0048157D01*
X0100600Y0043400D02*
X0122628Y0043400D01*
X0123800Y0044572D01*
X0126428Y0047200D01*
X0127600Y0048372D01*
X0130228Y0051000D01*
X0149840Y0051000D01*
X0150123Y0050717D01*
X0126006Y0026600D01*
X0091270Y0026600D01*
X0091270Y0030042D01*
X0100600Y0039372D01*
X0100600Y0043400D01*
X0100600Y0043361D02*
X0142767Y0043361D01*
X0141169Y0041763D02*
X0100600Y0041763D01*
X0100600Y0040164D02*
X0139570Y0040164D01*
X0137972Y0038566D02*
X0099794Y0038566D01*
X0098196Y0036967D02*
X0136373Y0036967D01*
X0134775Y0035369D02*
X0096597Y0035369D01*
X0094999Y0033770D02*
X0133176Y0033770D01*
X0131578Y0032172D02*
X0093400Y0032172D01*
X0091802Y0030573D02*
X0129979Y0030573D01*
X0128381Y0028975D02*
X0091270Y0028975D01*
X0091270Y0027376D02*
X0126782Y0027376D01*
X0127000Y0024200D02*
X0075800Y0024200D01*
X0075800Y0029000D01*
X0075898Y0029001D01*
X0072330Y0028975D02*
X0003600Y0028975D01*
X0003600Y0030573D02*
X0072330Y0030573D01*
X0072330Y0032172D02*
X0003600Y0032172D01*
X0003600Y0033770D02*
X0076967Y0033770D01*
X0076062Y0035369D02*
X0003600Y0035369D01*
X0003600Y0036967D02*
X0075685Y0036967D01*
X0075669Y0038566D02*
X0003600Y0038566D01*
X0003600Y0027376D02*
X0072330Y0027376D01*
X0072330Y0025778D02*
X0003600Y0025778D01*
X0003600Y0024179D02*
X0073400Y0024179D01*
X0075800Y0024200D02*
X0075800Y0021000D01*
X0071800Y0017000D01*
X0071800Y0016800D01*
X0068936Y0011391D02*
X0003600Y0011391D01*
X0003600Y0009793D02*
X0160000Y0009793D01*
X0160000Y0011391D02*
X0144664Y0011391D01*
X0144223Y0010950D02*
X0147650Y0014377D01*
X0147650Y0019223D01*
X0144223Y0022650D01*
X0139377Y0022650D01*
X0135950Y0019223D01*
X0135950Y0014377D01*
X0139377Y0010950D01*
X0144223Y0010950D01*
X0146263Y0012990D02*
X0160000Y0012990D01*
X0160000Y0014588D02*
X0147650Y0014588D01*
X0147650Y0016187D02*
X0160000Y0016187D01*
X0160000Y0017785D02*
X0147650Y0017785D01*
X0147490Y0019384D02*
X0160000Y0019384D01*
X0160000Y0020982D02*
X0145891Y0020982D01*
X0144292Y0022581D02*
X0160000Y0022581D01*
X0160000Y0024179D02*
X0130373Y0024179D01*
X0128775Y0022581D02*
X0139308Y0022581D01*
X0137709Y0020982D02*
X0115891Y0020982D01*
X0117490Y0019384D02*
X0136110Y0019384D01*
X0135950Y0017785D02*
X0117650Y0017785D01*
X0117650Y0016187D02*
X0135950Y0016187D01*
X0135950Y0014588D02*
X0117650Y0014588D01*
X0116263Y0012990D02*
X0137337Y0012990D01*
X0138936Y0011391D02*
X0114664Y0011391D01*
X0108936Y0011391D02*
X0094947Y0011391D01*
X0094306Y0010750D02*
X0097850Y0014294D01*
X0097850Y0016300D01*
X0092300Y0016300D01*
X0092300Y0010750D01*
X0094306Y0010750D01*
X0096546Y0012990D02*
X0107337Y0012990D01*
X0105950Y0014588D02*
X0097850Y0014588D01*
X0097850Y0016187D02*
X0105950Y0016187D01*
X0105950Y0017785D02*
X0097850Y0017785D01*
X0097772Y0019384D02*
X0106110Y0019384D01*
X0107709Y0020982D02*
X0096174Y0020982D01*
X0092300Y0016187D02*
X0091300Y0016187D01*
X0091300Y0016300D02*
X0091300Y0010750D01*
X0089294Y0010750D01*
X0085750Y0014294D01*
X0085750Y0016300D01*
X0091300Y0016300D01*
X0091300Y0014588D02*
X0092300Y0014588D01*
X0092300Y0012990D02*
X0091300Y0012990D01*
X0091300Y0011391D02*
X0092300Y0011391D01*
X0088653Y0011391D02*
X0074664Y0011391D01*
X0076263Y0012990D02*
X0087054Y0012990D01*
X0085750Y0014588D02*
X0077650Y0014588D01*
X0077650Y0016187D02*
X0085750Y0016187D01*
X0085750Y0017785D02*
X0077650Y0017785D01*
X0077578Y0019384D02*
X0085828Y0019384D01*
X0087426Y0020982D02*
X0078200Y0020982D01*
X0081616Y0030573D02*
X0081984Y0030573D01*
X0081984Y0032172D02*
X0081616Y0032172D01*
X0081616Y0033770D02*
X0081984Y0033770D01*
X0081984Y0035369D02*
X0081616Y0035369D01*
X0081000Y0036967D02*
X0082600Y0036967D01*
X0086633Y0033770D02*
X0089342Y0033770D01*
X0090940Y0035369D02*
X0087538Y0035369D01*
X0087915Y0036967D02*
X0092539Y0036967D01*
X0094137Y0038566D02*
X0087931Y0038566D01*
X0086476Y0033554D02*
X0086476Y0033554D01*
X0084675Y0051354D02*
X0120618Y0051354D01*
X0124188Y0044960D02*
X0144366Y0044960D01*
X0145964Y0046558D02*
X0125787Y0046558D01*
X0127385Y0048157D02*
X0147563Y0048157D01*
X0149161Y0049755D02*
X0128984Y0049755D01*
X0130096Y0055000D02*
X0130096Y0056320D01*
X0126217Y0056320D01*
X0126217Y0057280D01*
X0125257Y0057280D01*
X0125257Y0061750D01*
X0123479Y0061750D01*
X0122628Y0062600D01*
X0121428Y0063800D01*
X0080928Y0063800D01*
X0078428Y0066300D01*
X0075128Y0066300D01*
X0066600Y0074828D01*
X0066600Y0075000D01*
X0068172Y0075000D01*
X0068632Y0075000D01*
X0068677Y0074959D01*
X0068928Y0074973D01*
X0068968Y0074824D01*
X0069205Y0074414D01*
X0070150Y0073469D01*
X0073190Y0076509D01*
X0073191Y0076509D01*
X0070150Y0073469D01*
X0071095Y0072523D01*
X0071506Y0072286D01*
X0071655Y0072246D01*
X0073765Y0070137D01*
X0075992Y0067909D01*
X0077318Y0067909D01*
X0079208Y0069800D01*
X0081772Y0069800D01*
X0084200Y0067372D01*
X0085372Y0066200D01*
X0130628Y0066200D01*
X0138528Y0074100D01*
X0139872Y0074100D01*
X0140600Y0073372D01*
X0141772Y0072200D01*
X0151828Y0072200D01*
X0153000Y0073372D01*
X0153000Y0055534D01*
X0152357Y0055800D01*
X0151243Y0055800D01*
X0150214Y0055374D01*
X0149840Y0055000D01*
X0130096Y0055000D01*
X0130096Y0056149D02*
X0153000Y0056149D01*
X0153000Y0057748D02*
X0130096Y0057748D01*
X0130096Y0057280D02*
X0130096Y0060187D01*
X0129973Y0060644D01*
X0129736Y0061055D01*
X0129401Y0061390D01*
X0128991Y0061627D01*
X0128533Y0061750D01*
X0126217Y0061750D01*
X0126217Y0057280D01*
X0130096Y0057280D01*
X0130096Y0059346D02*
X0153000Y0059346D01*
X0153000Y0060945D02*
X0129800Y0060945D01*
X0126217Y0060945D02*
X0125257Y0060945D01*
X0125257Y0059346D02*
X0126217Y0059346D01*
X0126217Y0057748D02*
X0125257Y0057748D01*
X0122685Y0062543D02*
X0153000Y0062543D01*
X0153000Y0064142D02*
X0080586Y0064142D01*
X0078988Y0065740D02*
X0153000Y0065740D01*
X0153000Y0067339D02*
X0131767Y0067339D01*
X0133366Y0068937D02*
X0153000Y0068937D01*
X0153000Y0070536D02*
X0134964Y0070536D01*
X0136563Y0072134D02*
X0153000Y0072134D01*
X0157800Y0072134D02*
X0160000Y0072134D01*
X0160000Y0070536D02*
X0157800Y0070536D01*
X0157800Y0068937D02*
X0160000Y0068937D01*
X0160000Y0067339D02*
X0157800Y0067339D01*
X0157800Y0065740D02*
X0160000Y0065740D01*
X0160000Y0064142D02*
X0157800Y0064142D01*
X0157800Y0062543D02*
X0160000Y0062543D01*
X0160000Y0060945D02*
X0157800Y0060945D01*
X0157800Y0059346D02*
X0160000Y0059346D01*
X0160000Y0057748D02*
X0157800Y0057748D01*
X0157800Y0056149D02*
X0160000Y0056149D01*
X0160000Y0054551D02*
X0157800Y0054551D01*
X0157800Y0052952D02*
X0160000Y0052952D01*
X0160000Y0051354D02*
X0157482Y0051354D01*
X0155949Y0049755D02*
X0160000Y0049755D01*
X0160000Y0048157D02*
X0154351Y0048157D01*
X0152752Y0046558D02*
X0160000Y0046558D01*
X0160000Y0044960D02*
X0151154Y0044960D01*
X0149555Y0043361D02*
X0160000Y0043361D01*
X0160000Y0041763D02*
X0147957Y0041763D01*
X0146358Y0040164D02*
X0160000Y0040164D01*
X0160000Y0038566D02*
X0144760Y0038566D01*
X0143161Y0036967D02*
X0160000Y0036967D01*
X0160000Y0035369D02*
X0141563Y0035369D01*
X0139964Y0033770D02*
X0160000Y0033770D01*
X0160000Y0032172D02*
X0138366Y0032172D01*
X0136767Y0030573D02*
X0160000Y0030573D01*
X0160000Y0028975D02*
X0135169Y0028975D01*
X0133570Y0027376D02*
X0160000Y0027376D01*
X0160000Y0025778D02*
X0131972Y0025778D01*
X0127000Y0024200D02*
X0155400Y0052600D01*
X0155400Y0083800D01*
X0145800Y0093400D01*
X0134200Y0093400D01*
X0133800Y0093800D01*
X0116600Y0093800D01*
X0109800Y0100600D01*
X0109800Y0113800D01*
X0101800Y0121800D01*
X0106000Y0125235D02*
X0105361Y0126779D01*
X0104179Y0127961D01*
X0102635Y0128600D01*
X0100965Y0128600D01*
X0099800Y0128118D01*
X0099800Y0145281D01*
X0100111Y0145122D01*
X0100770Y0144908D01*
X0101454Y0144800D01*
X0101800Y0144800D01*
X0102146Y0144800D01*
X0102830Y0144908D01*
X0103489Y0145122D01*
X0104106Y0145437D01*
X0104666Y0145844D01*
X0105156Y0146334D01*
X0105563Y0146894D01*
X0105878Y0147511D01*
X0106092Y0148170D01*
X0106200Y0148854D01*
X0106200Y0151800D01*
X0106200Y0152572D01*
X0129800Y0128972D01*
X0129800Y0109500D01*
X0127337Y0109500D01*
X0126800Y0108963D01*
X0126263Y0109500D01*
X0122337Y0109500D01*
X0121800Y0108963D01*
X0121263Y0109500D01*
X0117337Y0109500D01*
X0116800Y0108963D01*
X0116263Y0109500D01*
X0112337Y0109500D01*
X0112200Y0109363D01*
X0112200Y0114277D01*
X0111835Y0115159D01*
X0106000Y0120994D01*
X0106000Y0125235D01*
X0106000Y0124885D02*
X0129800Y0124885D01*
X0129800Y0123287D02*
X0106000Y0123287D01*
X0106000Y0121688D02*
X0129800Y0121688D01*
X0129800Y0120090D02*
X0106904Y0120090D01*
X0108503Y0118491D02*
X0129800Y0118491D01*
X0129800Y0116893D02*
X0110101Y0116893D01*
X0111700Y0115294D02*
X0129800Y0115294D01*
X0129800Y0113696D02*
X0112200Y0113696D01*
X0112200Y0112097D02*
X0129800Y0112097D01*
X0129800Y0110499D02*
X0112200Y0110499D01*
X0107400Y0110499D02*
X0106330Y0110499D01*
X0107400Y0109428D02*
X0107400Y0112806D01*
X0104373Y0115833D01*
X0104179Y0115639D01*
X0102635Y0115000D01*
X0101828Y0115000D01*
X0107400Y0109428D01*
X0107400Y0112097D02*
X0104731Y0112097D01*
X0103133Y0113696D02*
X0106510Y0113696D01*
X0104912Y0115294D02*
X0103346Y0115294D01*
X0098172Y0113000D02*
X0097400Y0113000D01*
X0097400Y0113372D01*
X0097600Y0113572D01*
X0098172Y0113000D01*
X0099040Y0109000D02*
X0098626Y0108586D01*
X0098200Y0107557D01*
X0098200Y0106443D01*
X0098497Y0105726D01*
X0098176Y0105405D01*
X0097904Y0105677D01*
X0096959Y0106622D01*
X0096548Y0106859D01*
X0096399Y0106899D01*
X0094298Y0109000D01*
X0099040Y0109000D01*
X0098940Y0108900D02*
X0094398Y0108900D01*
X0095997Y0107302D02*
X0098200Y0107302D01*
X0098475Y0105703D02*
X0097878Y0105703D01*
X0097904Y0105677D02*
X0094864Y0102637D01*
X0094864Y0102637D01*
X0097904Y0105677D01*
X0096332Y0104105D02*
X0096332Y0104105D01*
X0094864Y0102636D02*
X0091823Y0099596D01*
X0094864Y0102636D01*
X0094864Y0102636D01*
X0094733Y0102506D02*
X0094733Y0102506D01*
X0093135Y0100908D02*
X0093135Y0100908D01*
X0091823Y0099596D02*
X0092768Y0098651D01*
X0093179Y0098414D01*
X0093328Y0098374D01*
X0094702Y0097000D01*
X0078560Y0097000D01*
X0078194Y0097366D01*
X0086265Y0105437D01*
X0088491Y0103211D01*
X0090601Y0101101D01*
X0090641Y0100952D01*
X0090878Y0100541D01*
X0091823Y0099596D01*
X0092110Y0099309D02*
X0080138Y0099309D01*
X0081736Y0100908D02*
X0090666Y0100908D01*
X0089196Y0102506D02*
X0083335Y0102506D01*
X0084933Y0104105D02*
X0087597Y0104105D01*
X0083437Y0108265D02*
X0073772Y0098600D01*
X0071360Y0098600D01*
X0070986Y0098974D01*
X0070905Y0099007D01*
X0072616Y0100718D01*
X0074843Y0102945D01*
X0077070Y0105172D01*
X0079297Y0107399D01*
X0081790Y0109892D01*
X0081790Y0111218D01*
X0079608Y0113400D01*
X0083992Y0113400D01*
X0081810Y0111218D01*
X0081810Y0109892D01*
X0083437Y0108265D01*
X0082802Y0108900D02*
X0080798Y0108900D01*
X0081790Y0110499D02*
X0081810Y0110499D01*
X0082689Y0112097D02*
X0080911Y0112097D01*
X0082473Y0107302D02*
X0079200Y0107302D01*
X0077601Y0105703D02*
X0080875Y0105703D01*
X0079276Y0104105D02*
X0076003Y0104105D01*
X0074404Y0102506D02*
X0077678Y0102506D01*
X0076079Y0100908D02*
X0072806Y0100908D01*
X0071207Y0099309D02*
X0074481Y0099309D01*
X0078539Y0097711D02*
X0093991Y0097711D01*
X0100863Y0102435D02*
X0101400Y0102972D01*
X0101400Y0101898D01*
X0100971Y0102328D01*
X0100863Y0102435D01*
X0100935Y0102506D02*
X0101400Y0102506D01*
X0105400Y0101840D02*
X0105400Y0098172D01*
X0105263Y0098035D01*
X0105691Y0097608D01*
X0105691Y0096282D01*
X0102808Y0093400D01*
X0113606Y0093400D01*
X0108441Y0098565D01*
X0108441Y0098565D01*
X0107765Y0099241D01*
X0107400Y0100123D01*
X0107400Y0101400D01*
X0106443Y0101400D01*
X0105414Y0101826D01*
X0105400Y0101840D01*
X0105400Y0100908D02*
X0107400Y0100908D01*
X0107737Y0099309D02*
X0105400Y0099309D01*
X0105588Y0097711D02*
X0109295Y0097711D01*
X0110894Y0096112D02*
X0105520Y0096112D01*
X0103922Y0094514D02*
X0112492Y0094514D01*
X0116083Y0097711D02*
X0130661Y0097711D01*
X0130072Y0098300D02*
X0132172Y0096200D01*
X0117594Y0096200D01*
X0115494Y0098300D01*
X0116263Y0098300D01*
X0116800Y0098837D01*
X0117337Y0098300D01*
X0121263Y0098300D01*
X0121800Y0098837D01*
X0122337Y0098300D01*
X0126263Y0098300D01*
X0126800Y0098837D01*
X0127337Y0098300D01*
X0130072Y0098300D01*
X0136318Y0097711D02*
X0154600Y0097711D01*
X0154600Y0099309D02*
X0152200Y0099309D01*
X0152200Y0100908D02*
X0154600Y0100908D01*
X0154600Y0102506D02*
X0152200Y0102506D01*
X0152200Y0104105D02*
X0154600Y0104105D01*
X0154600Y0105703D02*
X0152200Y0105703D01*
X0152200Y0107302D02*
X0154600Y0107302D01*
X0154600Y0108900D02*
X0151862Y0108900D01*
X0151000Y0110499D02*
X0154600Y0110499D01*
X0154600Y0112097D02*
X0151000Y0112097D01*
X0151000Y0113696D02*
X0154600Y0113696D01*
X0154600Y0115294D02*
X0151000Y0115294D01*
X0151000Y0116893D02*
X0154600Y0116893D01*
X0154600Y0118491D02*
X0151000Y0118491D01*
X0151000Y0120090D02*
X0154600Y0120090D01*
X0154600Y0121688D02*
X0151000Y0121688D01*
X0151000Y0123287D02*
X0154600Y0123287D01*
X0154600Y0124885D02*
X0151000Y0124885D01*
X0151000Y0126484D02*
X0154600Y0126484D01*
X0154600Y0128082D02*
X0151000Y0128082D01*
X0151000Y0129681D02*
X0154600Y0129681D01*
X0154600Y0131279D02*
X0151000Y0131279D01*
X0151000Y0132878D02*
X0154600Y0132878D01*
X0154600Y0134476D02*
X0151000Y0134476D01*
X0151000Y0136075D02*
X0154600Y0136075D01*
X0154600Y0137673D02*
X0151000Y0137673D01*
X0151000Y0139272D02*
X0154600Y0139272D01*
X0154600Y0140870D02*
X0151000Y0140870D01*
X0151000Y0142469D02*
X0154600Y0142469D01*
X0154600Y0144068D02*
X0151000Y0144068D01*
X0151000Y0145666D02*
X0154600Y0145666D01*
X0154600Y0147265D02*
X0149964Y0147265D01*
X0148365Y0148863D02*
X0154600Y0148863D01*
X0154600Y0150462D02*
X0146767Y0150462D01*
X0145168Y0152060D02*
X0154600Y0152060D01*
X0154600Y0153659D02*
X0143570Y0153659D01*
X0141971Y0155257D02*
X0154600Y0155257D01*
X0154600Y0156856D02*
X0140373Y0156856D01*
X0138774Y0158454D02*
X0154600Y0158454D01*
X0154600Y0160053D02*
X0137176Y0160053D01*
X0135577Y0161651D02*
X0154600Y0161651D01*
X0154600Y0163250D02*
X0133979Y0163250D01*
X0132380Y0164848D02*
X0154600Y0164848D01*
X0158600Y0164848D02*
X0160000Y0164848D01*
X0160000Y0163250D02*
X0158600Y0163250D01*
X0158600Y0161651D02*
X0160000Y0161651D01*
X0160000Y0160053D02*
X0158600Y0160053D01*
X0158600Y0158454D02*
X0160000Y0158454D01*
X0160000Y0156856D02*
X0158600Y0156856D01*
X0158600Y0155257D02*
X0160000Y0155257D01*
X0160000Y0153659D02*
X0158600Y0153659D01*
X0158600Y0152060D02*
X0160000Y0152060D01*
X0160000Y0150462D02*
X0158600Y0150462D01*
X0158600Y0148863D02*
X0160000Y0148863D01*
X0160000Y0147265D02*
X0158600Y0147265D01*
X0158600Y0145666D02*
X0160000Y0145666D01*
X0160000Y0144068D02*
X0158600Y0144068D01*
X0158600Y0142469D02*
X0160000Y0142469D01*
X0160000Y0140870D02*
X0158600Y0140870D01*
X0158600Y0139272D02*
X0160000Y0139272D01*
X0160000Y0137673D02*
X0158600Y0137673D01*
X0158600Y0136075D02*
X0160000Y0136075D01*
X0160000Y0134476D02*
X0158600Y0134476D01*
X0158600Y0132878D02*
X0160000Y0132878D01*
X0160000Y0131279D02*
X0158600Y0131279D01*
X0158600Y0129681D02*
X0160000Y0129681D01*
X0160000Y0128082D02*
X0158600Y0128082D01*
X0158600Y0126484D02*
X0160000Y0126484D01*
X0160000Y0124885D02*
X0158600Y0124885D01*
X0158600Y0123287D02*
X0160000Y0123287D01*
X0160000Y0121688D02*
X0158600Y0121688D01*
X0158600Y0120090D02*
X0160000Y0120090D01*
X0160000Y0118491D02*
X0158600Y0118491D01*
X0158600Y0116893D02*
X0160000Y0116893D01*
X0160000Y0115294D02*
X0158600Y0115294D01*
X0158600Y0113696D02*
X0160000Y0113696D01*
X0160000Y0112097D02*
X0158600Y0112097D01*
X0158600Y0110499D02*
X0160000Y0110499D01*
X0160000Y0108900D02*
X0158600Y0108900D01*
X0158600Y0107302D02*
X0160000Y0107302D01*
X0160000Y0105703D02*
X0158600Y0105703D01*
X0158600Y0104105D02*
X0160000Y0104105D01*
X0160000Y0102506D02*
X0158600Y0102506D01*
X0158600Y0100908D02*
X0160000Y0100908D01*
X0160000Y0099309D02*
X0158600Y0099309D01*
X0158600Y0097711D02*
X0160000Y0097711D01*
X0160000Y0096112D02*
X0158600Y0096112D01*
X0158600Y0094514D02*
X0160000Y0094514D01*
X0160000Y0092915D02*
X0158600Y0092915D01*
X0158600Y0091317D02*
X0160000Y0091317D01*
X0160000Y0089718D02*
X0158600Y0089718D01*
X0159001Y0088120D02*
X0160000Y0088120D01*
X0160000Y0086521D02*
X0159400Y0086521D01*
X0158882Y0084923D02*
X0160000Y0084923D01*
X0160000Y0083324D02*
X0157800Y0083324D01*
X0157800Y0081726D02*
X0160000Y0081726D01*
X0160000Y0080127D02*
X0157800Y0080127D01*
X0157800Y0078529D02*
X0160000Y0078529D01*
X0160000Y0076930D02*
X0157800Y0076930D01*
X0157800Y0075332D02*
X0160000Y0075332D01*
X0160000Y0073733D02*
X0157800Y0073733D01*
X0150506Y0085300D02*
X0146072Y0089734D01*
X0145774Y0089014D01*
X0145400Y0088640D01*
X0145400Y0088628D01*
X0148728Y0085300D01*
X0150506Y0085300D01*
X0149285Y0086521D02*
X0147507Y0086521D01*
X0147686Y0088120D02*
X0145909Y0088120D01*
X0146065Y0089718D02*
X0146088Y0089718D01*
X0140600Y0090628D02*
X0140228Y0091000D01*
X0140600Y0091000D01*
X0140600Y0090628D01*
X0137452Y0088120D02*
X0130066Y0088120D01*
X0130200Y0088443D02*
X0130200Y0089400D01*
X0136172Y0089400D01*
X0138572Y0087000D01*
X0129360Y0087000D01*
X0129774Y0087414D01*
X0130200Y0088443D01*
X0125440Y0087000D02*
X0113428Y0087000D01*
X0111772Y0087000D01*
X0104800Y0080028D01*
X0104800Y0077628D01*
X0103400Y0076228D01*
X0103400Y0077616D01*
X0102776Y0079122D01*
X0101622Y0080276D01*
X0100457Y0080759D01*
X0101236Y0081538D01*
X0103463Y0083765D01*
X0105691Y0085992D01*
X0105691Y0086421D01*
X0106186Y0086626D01*
X0106560Y0087000D01*
X0125440Y0087000D01*
X0125440Y0087000D01*
X0126800Y0074637D02*
X0127337Y0074100D01*
X0131263Y0074100D01*
X0131800Y0074637D01*
X0132337Y0074100D01*
X0132872Y0074100D01*
X0128972Y0070200D01*
X0089898Y0070200D01*
X0090101Y0070402D01*
X0090298Y0070600D01*
X0103428Y0070600D01*
X0107628Y0074800D01*
X0108800Y0075972D01*
X0108800Y0078372D01*
X0111200Y0080772D01*
X0111200Y0079700D01*
X0114300Y0079700D01*
X0114300Y0073900D01*
X0115837Y0073900D01*
X0116295Y0074023D01*
X0116705Y0074260D01*
X0116941Y0074496D01*
X0117337Y0074100D01*
X0121263Y0074100D01*
X0121800Y0074637D01*
X0122337Y0074100D01*
X0126263Y0074100D01*
X0126800Y0074637D01*
X0129308Y0070536D02*
X0090234Y0070536D01*
X0094298Y0074600D02*
X0094498Y0074800D01*
X0095691Y0074800D01*
X0095773Y0074600D01*
X0094298Y0074600D01*
X0090600Y0082498D02*
X0090600Y0086640D01*
X0090974Y0087014D01*
X0091400Y0088043D01*
X0091400Y0089000D01*
X0091772Y0089000D01*
X0094437Y0086335D01*
X0093211Y0085109D01*
X0090984Y0082882D01*
X0090600Y0082498D01*
X0090600Y0083324D02*
X0091426Y0083324D01*
X0090600Y0084923D02*
X0093025Y0084923D01*
X0094250Y0086521D02*
X0090600Y0086521D01*
X0091400Y0088120D02*
X0092652Y0088120D01*
X0086600Y0086640D02*
X0086600Y0078572D01*
X0086637Y0078535D01*
X0086530Y0078428D01*
X0084665Y0076563D01*
X0082200Y0079028D01*
X0082200Y0079557D01*
X0081774Y0080586D01*
X0080986Y0081374D01*
X0079957Y0081800D01*
X0078843Y0081800D01*
X0078408Y0081620D01*
X0078174Y0082186D01*
X0077386Y0082974D01*
X0076357Y0083400D01*
X0075243Y0083400D01*
X0074214Y0082974D01*
X0073426Y0082186D01*
X0073393Y0082105D01*
X0072999Y0082499D01*
X0072959Y0082648D01*
X0072722Y0083059D01*
X0071777Y0084004D01*
X0068736Y0080963D01*
X0068736Y0080964D01*
X0071777Y0084004D01*
X0070832Y0084949D01*
X0070421Y0085186D01*
X0070272Y0085226D01*
X0068428Y0087070D01*
X0066498Y0089000D01*
X0085800Y0089000D01*
X0085800Y0088043D01*
X0086226Y0087014D01*
X0086600Y0086640D01*
X0086600Y0086521D02*
X0068977Y0086521D01*
X0067378Y0088120D02*
X0085800Y0088120D01*
X0086600Y0084923D02*
X0070858Y0084923D01*
X0071097Y0083324D02*
X0071097Y0083324D01*
X0072457Y0083324D02*
X0075060Y0083324D01*
X0076540Y0083324D02*
X0086600Y0083324D01*
X0086600Y0081726D02*
X0080137Y0081726D01*
X0078663Y0081726D02*
X0078364Y0081726D01*
X0081964Y0080127D02*
X0086600Y0080127D01*
X0086631Y0078529D02*
X0082700Y0078529D01*
X0084298Y0076930D02*
X0085032Y0076930D01*
X0081772Y0073800D02*
X0081698Y0073800D01*
X0079563Y0075935D01*
X0079298Y0076200D01*
X0079372Y0076200D01*
X0081772Y0073800D01*
X0080240Y0075332D02*
X0080167Y0075332D01*
X0078346Y0068937D02*
X0082634Y0068937D01*
X0084233Y0067339D02*
X0074089Y0067339D01*
X0074964Y0068937D02*
X0072491Y0068937D01*
X0073366Y0070536D02*
X0070892Y0070536D01*
X0071767Y0072134D02*
X0069294Y0072134D01*
X0069886Y0073733D02*
X0067695Y0073733D01*
X0070414Y0073733D02*
X0070414Y0073733D01*
X0072013Y0075332D02*
X0072013Y0075332D01*
X0069498Y0081726D02*
X0069499Y0081726D01*
X0071360Y0094600D02*
X0071360Y0094600D01*
X0073800Y0094600D01*
X0073800Y0094600D01*
X0071360Y0094600D01*
X0067440Y0094600D02*
X0067428Y0094600D01*
X0066963Y0095065D01*
X0066993Y0095095D01*
X0067026Y0095014D01*
X0067440Y0094600D01*
X0060792Y0093400D02*
X0058200Y0093400D01*
X0058200Y0094357D01*
X0058137Y0094509D01*
X0058910Y0095282D01*
X0060792Y0093400D01*
X0059678Y0094514D02*
X0058142Y0094514D01*
X0067035Y0109863D02*
X0066698Y0110200D01*
X0067372Y0110200D01*
X0067035Y0109863D01*
X0074840Y0116300D02*
X0075361Y0116821D01*
X0075800Y0117882D01*
X0075800Y0116972D01*
X0077081Y0115691D01*
X0076328Y0115691D01*
X0075718Y0116300D01*
X0074840Y0116300D01*
X0075390Y0116893D02*
X0075879Y0116893D01*
X0078746Y0128082D02*
X0079715Y0128082D01*
X0077148Y0129681D02*
X0093800Y0129681D01*
X0093800Y0131279D02*
X0075549Y0131279D01*
X0083885Y0128082D02*
X0089715Y0128082D01*
X0088117Y0126484D02*
X0085483Y0126484D01*
X0086000Y0124885D02*
X0087600Y0124885D01*
X0087600Y0123287D02*
X0086000Y0123287D01*
X0086000Y0121688D02*
X0087600Y0121688D01*
X0087261Y0120090D02*
X0086000Y0120090D01*
X0088944Y0116116D02*
X0089207Y0115854D01*
X0089014Y0115774D01*
X0088269Y0115029D01*
X0088063Y0115235D01*
X0088944Y0116116D01*
X0088535Y0115294D02*
X0088123Y0115294D01*
X0099800Y0129681D02*
X0129091Y0129681D01*
X0129800Y0128082D02*
X0103885Y0128082D01*
X0105483Y0126484D02*
X0129800Y0126484D01*
X0133800Y0126484D02*
X0137000Y0126484D01*
X0137000Y0128082D02*
X0133800Y0128082D01*
X0133800Y0129681D02*
X0137000Y0129681D01*
X0137000Y0131279D02*
X0133149Y0131279D01*
X0132628Y0131800D02*
X0133800Y0130628D01*
X0133800Y0109500D01*
X0136263Y0109500D01*
X0136800Y0108963D01*
X0137000Y0109163D01*
X0137000Y0138972D01*
X0108572Y0167400D01*
X0104977Y0167400D01*
X0102400Y0169977D01*
X0102400Y0173623D01*
X0104977Y0176200D01*
X0108623Y0176200D01*
X0111200Y0173623D01*
X0111200Y0170428D01*
X0141000Y0140628D01*
X0141000Y0109500D01*
X0141263Y0109500D01*
X0141800Y0108963D01*
X0142200Y0109363D01*
X0142200Y0143772D01*
X0108572Y0177400D01*
X0104977Y0177400D01*
X0102400Y0179977D01*
X0102400Y0183623D01*
X0102577Y0183800D01*
X0101828Y0183800D01*
X0101200Y0183172D01*
X0101200Y0179977D01*
X0098623Y0177400D01*
X0094977Y0177400D01*
X0092400Y0179977D01*
X0092400Y0183623D01*
X0094177Y0185400D01*
X0089423Y0185400D01*
X0091200Y0183623D01*
X0091200Y0179977D01*
X0089225Y0178003D01*
X0093003Y0174225D01*
X0094977Y0176200D01*
X0098623Y0176200D01*
X0101200Y0173623D01*
X0101200Y0169977D01*
X0099000Y0167777D01*
X0099000Y0165428D01*
X0132628Y0131800D01*
X0131550Y0132878D02*
X0137000Y0132878D01*
X0137000Y0134476D02*
X0129952Y0134476D01*
X0128353Y0136075D02*
X0137000Y0136075D01*
X0137000Y0137673D02*
X0126755Y0137673D01*
X0125156Y0139272D02*
X0136700Y0139272D01*
X0135101Y0140870D02*
X0123558Y0140870D01*
X0121959Y0142469D02*
X0133503Y0142469D01*
X0131904Y0144068D02*
X0120361Y0144068D01*
X0118762Y0145666D02*
X0130306Y0145666D01*
X0128707Y0147265D02*
X0117164Y0147265D01*
X0115565Y0148863D02*
X0127109Y0148863D01*
X0125510Y0150462D02*
X0113967Y0150462D01*
X0112368Y0152060D02*
X0123912Y0152060D01*
X0122313Y0153659D02*
X0110770Y0153659D01*
X0109171Y0155257D02*
X0120714Y0155257D01*
X0119116Y0156856D02*
X0107573Y0156856D01*
X0105974Y0158454D02*
X0117517Y0158454D01*
X0115919Y0160053D02*
X0104376Y0160053D01*
X0102777Y0161651D02*
X0114320Y0161651D01*
X0112722Y0163250D02*
X0101179Y0163250D01*
X0099580Y0164848D02*
X0111123Y0164848D01*
X0109525Y0166447D02*
X0099000Y0166447D01*
X0099268Y0168045D02*
X0104332Y0168045D01*
X0102734Y0169644D02*
X0100866Y0169644D01*
X0101200Y0171242D02*
X0102400Y0171242D01*
X0102400Y0172841D02*
X0101200Y0172841D01*
X0100383Y0174439D02*
X0103217Y0174439D01*
X0104815Y0176038D02*
X0098785Y0176038D01*
X0098859Y0177636D02*
X0104741Y0177636D01*
X0103143Y0179235D02*
X0100457Y0179235D01*
X0101200Y0180833D02*
X0102400Y0180833D01*
X0102400Y0182432D02*
X0101200Y0182432D01*
X0094741Y0177636D02*
X0089592Y0177636D01*
X0090457Y0179235D02*
X0093143Y0179235D01*
X0092400Y0180833D02*
X0091200Y0180833D01*
X0091200Y0182432D02*
X0092400Y0182432D01*
X0092808Y0184030D02*
X0090792Y0184030D01*
X0084741Y0177636D02*
X0083000Y0177636D01*
X0083000Y0178628D02*
X0081200Y0180428D01*
X0081200Y0183623D01*
X0079423Y0185400D01*
X0084177Y0185400D01*
X0082400Y0183623D01*
X0082400Y0179977D01*
X0084977Y0177400D01*
X0085000Y0177400D01*
X0085000Y0176572D01*
X0085372Y0176200D01*
X0084977Y0176200D01*
X0083000Y0174223D01*
X0083000Y0178628D01*
X0083143Y0179235D02*
X0082394Y0179235D01*
X0082400Y0180833D02*
X0081200Y0180833D01*
X0081200Y0182432D02*
X0082400Y0182432D01*
X0082808Y0184030D02*
X0080792Y0184030D01*
X0078572Y0177400D02*
X0074977Y0177400D01*
X0072400Y0179977D01*
X0072400Y0183623D01*
X0074177Y0185400D01*
X0069423Y0185400D01*
X0071200Y0183623D01*
X0071200Y0180428D01*
X0073800Y0177828D01*
X0073800Y0175023D01*
X0074977Y0176200D01*
X0078623Y0176200D01*
X0079000Y0175823D01*
X0079000Y0176972D01*
X0078572Y0177400D01*
X0078785Y0176038D02*
X0079000Y0176038D01*
X0074815Y0176038D02*
X0073800Y0176038D01*
X0073800Y0177636D02*
X0074741Y0177636D01*
X0073143Y0179235D02*
X0072394Y0179235D01*
X0072400Y0180833D02*
X0071200Y0180833D01*
X0071200Y0182432D02*
X0072400Y0182432D01*
X0072808Y0184030D02*
X0070792Y0184030D01*
X0068572Y0177400D02*
X0064977Y0177400D01*
X0062400Y0179977D01*
X0062400Y0183623D01*
X0064177Y0185400D01*
X0059423Y0185400D01*
X0061200Y0183623D01*
X0061200Y0180428D01*
X0063000Y0178628D01*
X0063000Y0174223D01*
X0064977Y0176200D01*
X0068623Y0176200D01*
X0069800Y0175023D01*
X0069800Y0176172D01*
X0068572Y0177400D01*
X0068785Y0176038D02*
X0069800Y0176038D01*
X0064815Y0176038D02*
X0063000Y0176038D01*
X0063000Y0177636D02*
X0064741Y0177636D01*
X0063143Y0179235D02*
X0062394Y0179235D01*
X0062400Y0180833D02*
X0061200Y0180833D01*
X0061200Y0182432D02*
X0062400Y0182432D01*
X0062808Y0184030D02*
X0060792Y0184030D01*
X0058572Y0177400D02*
X0054977Y0177400D01*
X0052400Y0179977D01*
X0052400Y0183623D01*
X0054177Y0185400D01*
X0049423Y0185400D01*
X0051200Y0183623D01*
X0051200Y0180428D01*
X0053000Y0178628D01*
X0053000Y0174223D01*
X0054977Y0176200D01*
X0058623Y0176200D01*
X0059000Y0175823D01*
X0059000Y0176972D01*
X0058572Y0177400D01*
X0058785Y0176038D02*
X0059000Y0176038D01*
X0054815Y0176038D02*
X0053000Y0176038D01*
X0053000Y0177636D02*
X0054741Y0177636D01*
X0053143Y0179235D02*
X0052394Y0179235D01*
X0052400Y0180833D02*
X0051200Y0180833D01*
X0051200Y0182432D02*
X0052400Y0182432D01*
X0052808Y0184030D02*
X0050792Y0184030D01*
X0048572Y0177400D02*
X0044977Y0177400D01*
X0042400Y0179977D01*
X0042400Y0180372D01*
X0020391Y0158362D01*
X0020965Y0158600D01*
X0022635Y0158600D01*
X0024179Y0157961D01*
X0025361Y0156779D01*
X0025533Y0156362D01*
X0041800Y0172628D01*
X0042400Y0173228D01*
X0042400Y0173623D01*
X0044977Y0176200D01*
X0048623Y0176200D01*
X0049000Y0175823D01*
X0049000Y0176972D01*
X0048572Y0177400D01*
X0048785Y0176038D02*
X0049000Y0176038D01*
X0044815Y0176038D02*
X0038066Y0176038D01*
X0039665Y0177636D02*
X0044741Y0177636D01*
X0043143Y0179235D02*
X0041263Y0179235D01*
X0043217Y0174439D02*
X0036468Y0174439D01*
X0034869Y0172841D02*
X0042012Y0172841D01*
X0040414Y0171242D02*
X0033271Y0171242D01*
X0031672Y0169644D02*
X0038815Y0169644D01*
X0037217Y0168045D02*
X0030074Y0168045D01*
X0028475Y0166447D02*
X0035618Y0166447D01*
X0034020Y0164848D02*
X0026877Y0164848D01*
X0025278Y0163250D02*
X0032421Y0163250D01*
X0030823Y0161651D02*
X0023680Y0161651D01*
X0022081Y0160053D02*
X0029224Y0160053D01*
X0027626Y0158454D02*
X0022988Y0158454D01*
X0020612Y0158454D02*
X0020483Y0158454D01*
X0017609Y0155257D02*
X0017285Y0155257D01*
X0017600Y0153659D02*
X0015687Y0153659D01*
X0014088Y0152060D02*
X0017600Y0152060D01*
X0017600Y0150462D02*
X0013800Y0150462D01*
X0013800Y0148863D02*
X0017600Y0148863D01*
X0018056Y0147265D02*
X0013800Y0147265D01*
X0013800Y0145666D02*
X0019394Y0145666D01*
X0024206Y0145666D02*
X0029394Y0145666D01*
X0028056Y0147265D02*
X0025544Y0147265D01*
X0026000Y0148863D02*
X0027600Y0148863D01*
X0027600Y0150462D02*
X0026000Y0150462D01*
X0026888Y0152060D02*
X0027600Y0152060D01*
X0026027Y0156856D02*
X0025284Y0156856D01*
X0033196Y0158368D02*
X0043603Y0168775D01*
X0044977Y0167400D01*
X0045372Y0167400D01*
X0035056Y0157084D01*
X0034179Y0157961D01*
X0033196Y0158368D01*
X0033283Y0158454D02*
X0036426Y0158454D01*
X0034881Y0160053D02*
X0038024Y0160053D01*
X0036480Y0161651D02*
X0039623Y0161651D01*
X0038078Y0163250D02*
X0041221Y0163250D01*
X0039677Y0164848D02*
X0042820Y0164848D01*
X0041275Y0166447D02*
X0044418Y0166447D01*
X0044332Y0168045D02*
X0042874Y0168045D01*
X0049280Y0161651D02*
X0049800Y0161651D01*
X0049800Y0160053D02*
X0047681Y0160053D01*
X0046083Y0158454D02*
X0049800Y0158454D01*
X0048316Y0156856D02*
X0045284Y0156856D01*
X0045991Y0155257D02*
X0047609Y0155257D01*
X0047600Y0153659D02*
X0046000Y0153659D01*
X0046000Y0152060D02*
X0047600Y0152060D01*
X0047600Y0150462D02*
X0046000Y0150462D01*
X0046000Y0148863D02*
X0047600Y0148863D01*
X0048056Y0147265D02*
X0045544Y0147265D01*
X0044206Y0145666D02*
X0049394Y0145666D01*
X0054206Y0145666D02*
X0059394Y0145666D01*
X0058056Y0147265D02*
X0055544Y0147265D01*
X0056000Y0148863D02*
X0057600Y0148863D01*
X0057600Y0150462D02*
X0056000Y0150462D01*
X0056000Y0152060D02*
X0057600Y0152060D01*
X0057600Y0153659D02*
X0056000Y0153659D01*
X0055991Y0155257D02*
X0057609Y0155257D01*
X0058316Y0156856D02*
X0055284Y0156856D01*
X0053800Y0158454D02*
X0059800Y0158454D01*
X0059800Y0160053D02*
X0053800Y0160053D01*
X0055280Y0161651D02*
X0059800Y0161651D01*
X0059800Y0163250D02*
X0056878Y0163250D01*
X0058477Y0164848D02*
X0059800Y0164848D01*
X0063800Y0164848D02*
X0069800Y0164848D01*
X0069800Y0163250D02*
X0063800Y0163250D01*
X0063800Y0161651D02*
X0069800Y0161651D01*
X0069800Y0160053D02*
X0063800Y0160053D01*
X0063800Y0158454D02*
X0069800Y0158454D01*
X0068316Y0156856D02*
X0065284Y0156856D01*
X0065991Y0155257D02*
X0067609Y0155257D01*
X0067600Y0153659D02*
X0066000Y0153659D01*
X0066000Y0152060D02*
X0067600Y0152060D01*
X0067600Y0150462D02*
X0066000Y0150462D01*
X0066000Y0148863D02*
X0067600Y0148863D01*
X0068056Y0147265D02*
X0065544Y0147265D01*
X0064206Y0145666D02*
X0069394Y0145666D01*
X0074206Y0145666D02*
X0079394Y0145666D01*
X0078056Y0147265D02*
X0075544Y0147265D01*
X0076000Y0148863D02*
X0077600Y0148863D01*
X0077600Y0150462D02*
X0076000Y0150462D01*
X0076000Y0152060D02*
X0077600Y0152060D01*
X0077600Y0153659D02*
X0076000Y0153659D01*
X0075991Y0155257D02*
X0077609Y0155257D01*
X0078316Y0156856D02*
X0075284Y0156856D01*
X0073800Y0158454D02*
X0079800Y0158454D01*
X0079800Y0160053D02*
X0073800Y0160053D01*
X0073800Y0161651D02*
X0079800Y0161651D01*
X0079800Y0163250D02*
X0073800Y0163250D01*
X0073800Y0164848D02*
X0079123Y0164848D01*
X0077525Y0166447D02*
X0073800Y0166447D01*
X0073800Y0168045D02*
X0074332Y0168045D01*
X0069800Y0168045D02*
X0069268Y0168045D01*
X0069800Y0166447D02*
X0064075Y0166447D01*
X0063217Y0174439D02*
X0063000Y0174439D01*
X0053217Y0174439D02*
X0053000Y0174439D01*
X0054075Y0166447D02*
X0054418Y0166447D01*
X0052820Y0164848D02*
X0052477Y0164848D01*
X0051221Y0163250D02*
X0050878Y0163250D01*
X0038056Y0147265D02*
X0035544Y0147265D01*
X0036000Y0148863D02*
X0037600Y0148863D01*
X0037600Y0150462D02*
X0036000Y0150462D01*
X0036000Y0152060D02*
X0037600Y0152060D01*
X0037600Y0153659D02*
X0037287Y0153659D01*
X0039394Y0145666D02*
X0034206Y0145666D01*
X0024509Y0129681D02*
X0048852Y0129681D01*
X0047254Y0128082D02*
X0043885Y0128082D01*
X0045483Y0126484D02*
X0045800Y0126484D01*
X0054340Y0127800D02*
X0056972Y0127800D01*
X0055800Y0126628D01*
X0055800Y0125718D01*
X0055361Y0126779D01*
X0054340Y0127800D01*
X0055483Y0126484D02*
X0055800Y0126484D01*
X0084206Y0145666D02*
X0089394Y0145666D01*
X0088056Y0147265D02*
X0085544Y0147265D01*
X0086000Y0148863D02*
X0087600Y0148863D01*
X0087600Y0150462D02*
X0086000Y0150462D01*
X0086000Y0152060D02*
X0087600Y0152060D01*
X0087600Y0153659D02*
X0086000Y0153659D01*
X0085991Y0155257D02*
X0087609Y0155257D01*
X0088316Y0156856D02*
X0085284Y0156856D01*
X0083800Y0158454D02*
X0087917Y0158454D01*
X0086319Y0160053D02*
X0083800Y0160053D01*
X0083800Y0161651D02*
X0084720Y0161651D01*
X0085000Y0167028D02*
X0083000Y0169028D01*
X0083000Y0169377D01*
X0084977Y0167400D01*
X0085000Y0167400D01*
X0085000Y0167028D01*
X0084332Y0168045D02*
X0083983Y0168045D01*
X0083217Y0174439D02*
X0083000Y0174439D01*
X0083000Y0176038D02*
X0084815Y0176038D01*
X0090600Y0169377D02*
X0089000Y0167777D01*
X0089000Y0165428D01*
X0090600Y0163828D01*
X0090600Y0169377D01*
X0090600Y0168045D02*
X0089268Y0168045D01*
X0089000Y0166447D02*
X0090600Y0166447D01*
X0090600Y0164848D02*
X0089580Y0164848D01*
X0094600Y0164848D02*
X0095000Y0164848D01*
X0095000Y0163772D02*
X0100249Y0158523D01*
X0100111Y0158478D01*
X0099494Y0158163D01*
X0099014Y0157814D01*
X0098628Y0158200D01*
X0094600Y0162228D01*
X0094600Y0167777D01*
X0094977Y0167400D01*
X0095000Y0167400D01*
X0095000Y0163772D01*
X0094600Y0163250D02*
X0095522Y0163250D01*
X0095177Y0161651D02*
X0097120Y0161651D01*
X0096776Y0160053D02*
X0098719Y0160053D01*
X0098374Y0158454D02*
X0100065Y0158454D01*
X0101800Y0151800D02*
X0106200Y0151800D01*
X0101800Y0151800D01*
X0101800Y0151800D01*
X0101800Y0144800D01*
X0101800Y0151800D01*
X0101800Y0151800D01*
X0101800Y0150462D02*
X0101800Y0150462D01*
X0101800Y0148863D02*
X0101800Y0148863D01*
X0101800Y0147265D02*
X0101800Y0147265D01*
X0101800Y0145666D02*
X0101800Y0145666D01*
X0099800Y0144068D02*
X0114704Y0144068D01*
X0113106Y0145666D02*
X0104422Y0145666D01*
X0105752Y0147265D02*
X0111507Y0147265D01*
X0109909Y0148863D02*
X0106200Y0148863D01*
X0106200Y0150462D02*
X0108310Y0150462D01*
X0106712Y0152060D02*
X0106200Y0152060D01*
X0099800Y0142469D02*
X0116303Y0142469D01*
X0117901Y0140870D02*
X0099800Y0140870D01*
X0099800Y0139272D02*
X0119500Y0139272D01*
X0121098Y0137673D02*
X0099800Y0137673D01*
X0099800Y0136075D02*
X0122697Y0136075D01*
X0124295Y0134476D02*
X0099800Y0134476D01*
X0099800Y0132878D02*
X0125894Y0132878D01*
X0127492Y0131279D02*
X0099800Y0131279D01*
X0093800Y0136075D02*
X0013800Y0136075D01*
X0013800Y0137673D02*
X0093800Y0137673D01*
X0093800Y0139272D02*
X0013800Y0139272D01*
X0013800Y0140870D02*
X0093800Y0140870D01*
X0093800Y0142469D02*
X0013800Y0142469D01*
X0013800Y0144068D02*
X0093800Y0144068D01*
X0094600Y0166447D02*
X0095000Y0166447D01*
X0093217Y0174439D02*
X0092789Y0174439D01*
X0091191Y0176038D02*
X0094815Y0176038D01*
X0108785Y0176038D02*
X0109934Y0176038D01*
X0110383Y0174439D02*
X0111532Y0174439D01*
X0111200Y0172841D02*
X0113131Y0172841D01*
X0114729Y0171242D02*
X0111200Y0171242D01*
X0111985Y0169644D02*
X0116328Y0169644D01*
X0117926Y0168045D02*
X0113583Y0168045D01*
X0115182Y0166447D02*
X0119525Y0166447D01*
X0121123Y0164848D02*
X0116780Y0164848D01*
X0118379Y0163250D02*
X0122722Y0163250D01*
X0124320Y0161651D02*
X0119977Y0161651D01*
X0121576Y0160053D02*
X0125919Y0160053D01*
X0127517Y0158454D02*
X0123174Y0158454D01*
X0124773Y0156856D02*
X0129116Y0156856D01*
X0130714Y0155257D02*
X0126371Y0155257D01*
X0127970Y0153659D02*
X0132313Y0153659D01*
X0133912Y0152060D02*
X0129568Y0152060D01*
X0131167Y0150462D02*
X0135510Y0150462D01*
X0137109Y0148863D02*
X0132765Y0148863D01*
X0134364Y0147265D02*
X0138707Y0147265D01*
X0140306Y0145666D02*
X0135962Y0145666D01*
X0137561Y0144068D02*
X0141904Y0144068D01*
X0142200Y0142469D02*
X0139159Y0142469D01*
X0140758Y0140870D02*
X0142200Y0140870D01*
X0142200Y0139272D02*
X0141000Y0139272D01*
X0141000Y0137673D02*
X0142200Y0137673D01*
X0142200Y0136075D02*
X0141000Y0136075D01*
X0141000Y0134476D02*
X0142200Y0134476D01*
X0142200Y0132878D02*
X0141000Y0132878D01*
X0141000Y0131279D02*
X0142200Y0131279D01*
X0142200Y0129681D02*
X0141000Y0129681D01*
X0141000Y0128082D02*
X0142200Y0128082D01*
X0142200Y0126484D02*
X0141000Y0126484D01*
X0141000Y0124885D02*
X0142200Y0124885D01*
X0142200Y0123287D02*
X0141000Y0123287D01*
X0141000Y0121688D02*
X0142200Y0121688D01*
X0142200Y0120090D02*
X0141000Y0120090D01*
X0141000Y0118491D02*
X0142200Y0118491D01*
X0142200Y0116893D02*
X0141000Y0116893D01*
X0141000Y0115294D02*
X0142200Y0115294D01*
X0142200Y0113696D02*
X0141000Y0113696D01*
X0141000Y0112097D02*
X0142200Y0112097D01*
X0142200Y0110499D02*
X0141000Y0110499D01*
X0137000Y0110499D02*
X0133800Y0110499D01*
X0133800Y0112097D02*
X0137000Y0112097D01*
X0137000Y0113696D02*
X0133800Y0113696D01*
X0133800Y0115294D02*
X0137000Y0115294D01*
X0137000Y0116893D02*
X0133800Y0116893D01*
X0133800Y0118491D02*
X0137000Y0118491D01*
X0137000Y0120090D02*
X0133800Y0120090D01*
X0133800Y0121688D02*
X0137000Y0121688D01*
X0137000Y0123287D02*
X0133800Y0123287D01*
X0133800Y0124885D02*
X0137000Y0124885D01*
X0146200Y0124885D02*
X0147000Y0124885D01*
X0147000Y0123287D02*
X0146200Y0123287D01*
X0146200Y0121688D02*
X0147000Y0121688D01*
X0147000Y0120090D02*
X0146200Y0120090D01*
X0146200Y0118491D02*
X0147000Y0118491D01*
X0147000Y0116893D02*
X0146200Y0116893D01*
X0146200Y0115294D02*
X0147000Y0115294D01*
X0147000Y0113696D02*
X0146200Y0113696D01*
X0146200Y0112097D02*
X0147000Y0112097D01*
X0147000Y0110499D02*
X0146200Y0110499D01*
X0146200Y0109500D02*
X0146200Y0145372D01*
X0147000Y0144572D01*
X0147000Y0109163D01*
X0146800Y0108963D01*
X0146263Y0109500D01*
X0146200Y0109500D01*
X0149916Y0096112D02*
X0154600Y0096112D01*
X0154600Y0094514D02*
X0151515Y0094514D01*
X0153113Y0092915D02*
X0154600Y0092915D01*
X0140239Y0073733D02*
X0138161Y0073733D01*
X0132505Y0073733D02*
X0106561Y0073733D01*
X0104963Y0072134D02*
X0130906Y0072134D01*
X0114300Y0073900D02*
X0114300Y0079700D01*
X0114300Y0079700D01*
X0114300Y0079700D01*
X0111200Y0079700D01*
X0111200Y0075463D01*
X0111323Y0075005D01*
X0111560Y0074595D01*
X0111895Y0074260D01*
X0112305Y0074023D01*
X0112763Y0073900D01*
X0114300Y0073900D01*
X0114300Y0075332D02*
X0114300Y0075332D01*
X0114300Y0076930D02*
X0114300Y0076930D01*
X0114300Y0078529D02*
X0114300Y0078529D01*
X0111200Y0078529D02*
X0108957Y0078529D01*
X0108800Y0076930D02*
X0111200Y0076930D01*
X0111235Y0075332D02*
X0108160Y0075332D01*
X0104800Y0078529D02*
X0103022Y0078529D01*
X0103400Y0076930D02*
X0104102Y0076930D01*
X0104899Y0080127D02*
X0101771Y0080127D01*
X0101424Y0081726D02*
X0106497Y0081726D01*
X0108096Y0083324D02*
X0103023Y0083324D01*
X0104621Y0084923D02*
X0109694Y0084923D01*
X0111293Y0086521D02*
X0105932Y0086521D01*
X0110555Y0080127D02*
X0111200Y0080127D01*
X0112400Y0059800D02*
X0112400Y0059000D01*
X0113704Y0059000D01*
X0113704Y0059800D01*
X0112400Y0059800D01*
X0112400Y0059346D02*
X0113704Y0059346D01*
X0113704Y0054551D02*
X0112400Y0054551D01*
X0112400Y0052952D02*
X0113739Y0052952D01*
X0089200Y0052952D02*
X0083076Y0052952D01*
X0078022Y0056149D02*
X0074400Y0056149D01*
X0074400Y0054551D02*
X0089200Y0054551D01*
X0089200Y0059000D02*
X0080828Y0059000D01*
X0080028Y0059800D01*
X0089200Y0059800D01*
X0089200Y0059000D01*
X0089200Y0059346D02*
X0080482Y0059346D01*
X0076424Y0057748D02*
X0074400Y0057748D01*
X0074400Y0059346D02*
X0074825Y0059346D01*
X0068872Y0061900D02*
X0062200Y0061900D01*
X0062200Y0068572D01*
X0068872Y0061900D01*
X0068228Y0062543D02*
X0062200Y0062543D01*
X0062200Y0064142D02*
X0066630Y0064142D01*
X0065031Y0065740D02*
X0062200Y0065740D01*
X0062200Y0067339D02*
X0063433Y0067339D01*
X0051200Y0060945D02*
X0049563Y0060945D01*
X0049896Y0059346D02*
X0051200Y0059346D01*
X0051200Y0055000D02*
X0051200Y0053800D01*
X0049896Y0053800D01*
X0049896Y0055000D01*
X0051200Y0055000D01*
X0051200Y0054551D02*
X0049896Y0054551D01*
X0069308Y0022581D02*
X0003600Y0022581D01*
X0003600Y0020982D02*
X0067709Y0020982D01*
X0066110Y0019384D02*
X0003600Y0019384D01*
X0003600Y0017785D02*
X0065950Y0017785D01*
X0065950Y0016187D02*
X0003600Y0016187D01*
X0003600Y0014588D02*
X0065950Y0014588D01*
X0067337Y0012990D02*
X0003600Y0012990D01*
X0003600Y0008194D02*
X0160000Y0008194D01*
X0160000Y0006596D02*
X0003600Y0006596D01*
X0003600Y0004997D02*
X0160000Y0004997D01*
X0160000Y0003600D02*
X0003600Y0003600D01*
X0003600Y0195000D01*
X0160000Y0195000D01*
X0160000Y0003600D01*
X0147000Y0126484D02*
X0146200Y0126484D01*
X0146200Y0128082D02*
X0147000Y0128082D01*
X0147000Y0129681D02*
X0146200Y0129681D01*
X0146200Y0131279D02*
X0147000Y0131279D01*
X0147000Y0132878D02*
X0146200Y0132878D01*
X0146200Y0134476D02*
X0147000Y0134476D01*
X0147000Y0136075D02*
X0146200Y0136075D01*
X0146200Y0137673D02*
X0147000Y0137673D01*
X0147000Y0139272D02*
X0146200Y0139272D01*
X0146200Y0140870D02*
X0147000Y0140870D01*
X0147000Y0142469D02*
X0146200Y0142469D01*
X0146200Y0144068D02*
X0147000Y0144068D01*
X0158600Y0166447D02*
X0160000Y0166447D01*
X0160000Y0168045D02*
X0158600Y0168045D01*
X0158600Y0169644D02*
X0160000Y0169644D01*
X0160000Y0171242D02*
X0158600Y0171242D01*
X0158600Y0172841D02*
X0160000Y0172841D01*
X0160000Y0174439D02*
X0157189Y0174439D01*
X0155591Y0176038D02*
X0160000Y0176038D01*
X0160000Y0177636D02*
X0153992Y0177636D01*
X0160000Y0192023D02*
X0003600Y0192023D01*
X0003600Y0193621D02*
X0160000Y0193621D01*
X0132934Y0174439D02*
X0125189Y0174439D01*
M02*
