G75*
%MOIN*%
%OFA0B0*%
%FSLAX25Y25*%
%IPPOS*%
%LPD*%
%AMOC8*
5,1,8,0,0,1.08239X$1,22.5*
%
%ADD10C,0.00000*%
%ADD11OC8,0.08900*%
%ADD12R,0.05518X0.06699*%
%ADD13R,0.03000X0.08400*%
%ADD14C,0.05600*%
%ADD15C,0.09061*%
%ADD16R,0.04134X0.06201*%
%ADD17OC8,0.06400*%
%ADD18R,0.20400X0.07400*%
%ADD19OC8,0.06000*%
%ADD20R,0.05400X0.02600*%
%ADD21R,0.02600X0.05400*%
%ADD22C,0.05400*%
D10*
X0001800Y0001800D02*
X0001800Y0196800D01*
X0161800Y0196800D01*
X0161800Y0001800D01*
X0001800Y0001800D01*
D11*
X0071800Y0016800D03*
X0091800Y0016800D03*
X0111800Y0016800D03*
X0141800Y0016800D03*
D12*
X0125737Y0056800D03*
X0117863Y0056800D03*
X0045737Y0056800D03*
X0045737Y0066800D03*
X0037863Y0066800D03*
X0037863Y0056800D03*
D13*
X0039300Y0079700D03*
X0034300Y0079700D03*
X0029300Y0079700D03*
X0024300Y0079700D03*
X0019300Y0079700D03*
X0014300Y0079700D03*
X0014300Y0103900D03*
X0019300Y0103900D03*
X0024300Y0103900D03*
X0029300Y0103900D03*
X0034300Y0103900D03*
X0039300Y0103900D03*
X0044300Y0103900D03*
X0049300Y0103900D03*
X0049300Y0079700D03*
X0044300Y0079700D03*
X0114300Y0079700D03*
X0119300Y0079700D03*
X0124300Y0079700D03*
X0129300Y0079700D03*
X0134300Y0079700D03*
X0139300Y0079700D03*
X0144300Y0079700D03*
X0149300Y0079700D03*
X0149300Y0103900D03*
X0144300Y0103900D03*
X0139300Y0103900D03*
X0134300Y0103900D03*
X0129300Y0103900D03*
X0124300Y0103900D03*
X0119300Y0103900D03*
X0114300Y0103900D03*
D14*
X0101800Y0119200D02*
X0101800Y0124400D01*
X0091800Y0124400D02*
X0091800Y0119200D01*
X0081800Y0119200D02*
X0081800Y0124400D01*
X0071800Y0124400D02*
X0071800Y0119200D01*
X0061800Y0119200D02*
X0061800Y0124400D01*
X0051800Y0124400D02*
X0051800Y0119200D01*
X0041800Y0119200D02*
X0041800Y0124400D01*
X0031800Y0124400D02*
X0031800Y0119200D01*
X0021800Y0119200D02*
X0021800Y0124400D01*
X0021800Y0149200D02*
X0021800Y0154400D01*
X0031800Y0154400D02*
X0031800Y0149200D01*
X0041800Y0149200D02*
X0041800Y0154400D01*
X0051800Y0154400D02*
X0051800Y0149200D01*
X0061800Y0149200D02*
X0061800Y0154400D01*
X0071800Y0154400D02*
X0071800Y0149200D01*
X0081800Y0149200D02*
X0081800Y0154400D01*
X0091800Y0154400D02*
X0091800Y0149200D01*
X0101800Y0149200D02*
X0101800Y0154400D01*
D15*
X0081800Y0043454D02*
X0081800Y0043454D01*
X0081800Y0037548D01*
X0081800Y0037548D01*
X0081800Y0043454D01*
D16*
X0081800Y0028975D03*
X0075894Y0028975D03*
X0087706Y0028975D03*
D17*
X0136800Y0171800D03*
X0136800Y0181800D03*
X0146800Y0181800D03*
X0146800Y0171800D03*
D18*
X0100800Y0056800D03*
X0062800Y0056800D03*
D19*
X0066800Y0171800D03*
X0066800Y0181800D03*
X0056800Y0181800D03*
X0056800Y0171800D03*
X0046800Y0171800D03*
X0046800Y0181800D03*
X0076800Y0181800D03*
X0076800Y0171800D03*
X0086800Y0171800D03*
X0086800Y0181800D03*
X0096800Y0181800D03*
X0096800Y0171800D03*
X0106800Y0171800D03*
X0106800Y0181800D03*
D20*
G36*
X0088783Y0112534D02*
X0084966Y0108717D01*
X0083127Y0110556D01*
X0086944Y0114373D01*
X0088783Y0112534D01*
G37*
G36*
X0091010Y0110307D02*
X0087193Y0106490D01*
X0085354Y0108329D01*
X0089171Y0112146D01*
X0091010Y0110307D01*
G37*
G36*
X0093237Y0108080D02*
X0089420Y0104263D01*
X0087581Y0106102D01*
X0091398Y0109919D01*
X0093237Y0108080D01*
G37*
G36*
X0095465Y0105853D02*
X0091648Y0102036D01*
X0089809Y0103875D01*
X0093626Y0107692D01*
X0095465Y0105853D01*
G37*
G36*
X0097692Y0103626D02*
X0093875Y0099809D01*
X0092036Y0101648D01*
X0095853Y0105465D01*
X0097692Y0103626D01*
G37*
G36*
X0099919Y0101398D02*
X0096102Y0097581D01*
X0094263Y0099420D01*
X0098080Y0103237D01*
X0099919Y0101398D01*
G37*
G36*
X0102146Y0099171D02*
X0098329Y0095354D01*
X0096490Y0097193D01*
X0100307Y0101010D01*
X0102146Y0099171D01*
G37*
G36*
X0104373Y0096944D02*
X0100556Y0093127D01*
X0098717Y0094966D01*
X0102534Y0098783D01*
X0104373Y0096944D01*
G37*
G36*
X0080473Y0073044D02*
X0076656Y0069227D01*
X0074817Y0071066D01*
X0078634Y0074883D01*
X0080473Y0073044D01*
G37*
G36*
X0078246Y0075271D02*
X0074429Y0071454D01*
X0072590Y0073293D01*
X0076407Y0077110D01*
X0078246Y0075271D01*
G37*
G36*
X0076019Y0077498D02*
X0072202Y0073681D01*
X0070363Y0075520D01*
X0074180Y0079337D01*
X0076019Y0077498D01*
G37*
G36*
X0073791Y0079725D02*
X0069974Y0075908D01*
X0068135Y0077747D01*
X0071952Y0081564D01*
X0073791Y0079725D01*
G37*
G36*
X0071564Y0081952D02*
X0067747Y0078135D01*
X0065908Y0079974D01*
X0069725Y0083791D01*
X0071564Y0081952D01*
G37*
G36*
X0069337Y0084180D02*
X0065520Y0080363D01*
X0063681Y0082202D01*
X0067498Y0086019D01*
X0069337Y0084180D01*
G37*
G36*
X0067110Y0086407D02*
X0063293Y0082590D01*
X0061454Y0084429D01*
X0065271Y0088246D01*
X0067110Y0086407D01*
G37*
G36*
X0064883Y0088634D02*
X0061066Y0084817D01*
X0059227Y0086656D01*
X0063044Y0090473D01*
X0064883Y0088634D01*
G37*
D21*
G36*
X0064883Y0094966D02*
X0063044Y0093127D01*
X0059227Y0096944D01*
X0061066Y0098783D01*
X0064883Y0094966D01*
G37*
G36*
X0067110Y0097193D02*
X0065271Y0095354D01*
X0061454Y0099171D01*
X0063293Y0101010D01*
X0067110Y0097193D01*
G37*
G36*
X0069337Y0099420D02*
X0067498Y0097581D01*
X0063681Y0101398D01*
X0065520Y0103237D01*
X0069337Y0099420D01*
G37*
G36*
X0071564Y0101648D02*
X0069725Y0099809D01*
X0065908Y0103626D01*
X0067747Y0105465D01*
X0071564Y0101648D01*
G37*
G36*
X0073791Y0103875D02*
X0071952Y0102036D01*
X0068135Y0105853D01*
X0069974Y0107692D01*
X0073791Y0103875D01*
G37*
G36*
X0076019Y0106102D02*
X0074180Y0104263D01*
X0070363Y0108080D01*
X0072202Y0109919D01*
X0076019Y0106102D01*
G37*
G36*
X0078246Y0108329D02*
X0076407Y0106490D01*
X0072590Y0110307D01*
X0074429Y0112146D01*
X0078246Y0108329D01*
G37*
G36*
X0080473Y0110556D02*
X0078634Y0108717D01*
X0074817Y0112534D01*
X0076656Y0114373D01*
X0080473Y0110556D01*
G37*
G36*
X0102146Y0084429D02*
X0100307Y0082590D01*
X0096490Y0086407D01*
X0098329Y0088246D01*
X0102146Y0084429D01*
G37*
G36*
X0104373Y0086656D02*
X0102534Y0084817D01*
X0098717Y0088634D01*
X0100556Y0090473D01*
X0104373Y0086656D01*
G37*
G36*
X0099919Y0082202D02*
X0098080Y0080363D01*
X0094263Y0084180D01*
X0096102Y0086019D01*
X0099919Y0082202D01*
G37*
G36*
X0097692Y0079974D02*
X0095853Y0078135D01*
X0092036Y0081952D01*
X0093875Y0083791D01*
X0097692Y0079974D01*
G37*
G36*
X0095465Y0077747D02*
X0093626Y0075908D01*
X0089809Y0079725D01*
X0091648Y0081564D01*
X0095465Y0077747D01*
G37*
G36*
X0093237Y0075520D02*
X0091398Y0073681D01*
X0087581Y0077498D01*
X0089420Y0079337D01*
X0093237Y0075520D01*
G37*
G36*
X0091010Y0073293D02*
X0089171Y0071454D01*
X0085354Y0075271D01*
X0087193Y0077110D01*
X0091010Y0073293D01*
G37*
G36*
X0088783Y0071066D02*
X0086944Y0069227D01*
X0083127Y0073044D01*
X0084966Y0074883D01*
X0088783Y0071066D01*
G37*
D22*
X0099300Y0076800D03*
X0066800Y0114300D03*
X0064300Y0106800D03*
M02*
